<svg width="116" height="53" viewBox="0 0 116 53" fill="none" xmlns="http://www.w3.org/2000/svg">
<path d="M115.31 50.572C109.532 50.572 109.532 41.3925 103.779 41.3925C98.0011 41.3925 98.0011 50.572 92.2482 50.572C86.4701 50.572 86.4701 41.3925 80.7171 41.3925C74.9391 41.3925 74.9391 50.572 69.1861 50.572C63.4081 50.572 63.4081 41.3925 57.6551 41.3925C51.877 41.3925 51.877 50.572 46.1241 50.572C40.346 50.572 40.346 41.3925 34.5931 41.3925C28.815 41.3925 28.815 50.572 23.062 50.572C17.284 50.572 17.284 41.3925 11.531 41.3925C5.77807 41.3925 5.75295 50.572 1.54195e-06 50.572M115.31 30.6066C109.532 30.6066 109.532 21.4271 103.779 21.4271C98.0011 21.4271 98.0011 30.6066 92.2482 30.6066C86.4701 30.6066 86.4701 21.4271 80.7171 21.4271C74.9391 21.4271 74.9391 30.6066 69.1861 30.6066C63.4081 30.6066 63.4081 21.4271 57.6551 21.4271C51.877 21.4271 51.877 30.6066 46.1241 30.6066C40.346 30.6066 40.346 21.4271 34.5931 21.4271C28.815 21.4271 28.815 30.6066 23.062 30.6066C17.284 30.6066 17.284 21.4271 11.531 21.4271C5.77807 21.4271 5.75295 30.6066 1.54195e-06 30.6066M115.31 10.6795C109.532 10.6795 109.532 1.50001 103.779 1.50001C98.0011 1.50001 98.0011 10.6795 92.2482 10.6795C86.4701 10.6795 86.4701 1.5 80.7171 1.5C74.9391 1.5 74.9391 10.6795 69.1861 10.6795C63.408 10.6795 63.408 1.5 57.6551 1.5C51.877 1.5 51.877 10.6795 46.1241 10.6795C40.346 10.6795 40.346 1.5 34.5931 1.5C28.815 1.5 28.815 10.6795 23.062 10.6795C17.284 10.6795 17.284 1.5 11.531 1.5C5.77807 1.5 5.75295 10.6795 0 10.6795" stroke="#704EE7" stroke-width="3" stroke-miterlimit="10"/>
</svg>
