<svg width="50" height="55" viewBox="0 0 50 55" fill="none" xmlns="http://www.w3.org/2000/svg">
<path d="M49.9584 9.56342C49.8319 8.16849 48.6628 7.11654 47.2388 7.11654H40.1748V6.09264H40.3123C41.321 6.09264 42.1417 5.2855 42.1417 4.29349V1.79914C42.1417 0.807138 41.321 0 40.3123 0H19.521C19.0686 0 18.7019 0.360602 18.7019 0.805634C18.7019 1.25067 19.0686 1.61127 19.521 1.61127H40.3123C40.4177 1.61127 40.5034 1.69548 40.5034 1.79914V4.29349C40.5034 4.39715 40.4177 4.48137 40.3123 4.48137H9.6877C9.58231 4.48137 9.49657 4.39715 9.49657 4.29349V1.79914C9.49657 1.69548 9.58231 1.61127 9.6877 1.61127H15.6804C16.1328 1.61127 16.4996 1.25067 16.4996 0.805634C16.4996 0.360602 16.1328 0 15.6804 0H9.6877C8.67899 0 7.85835 0.807138 7.85835 1.79914V4.29349C7.85835 5.2855 8.67899 6.09264 9.6877 6.09264H9.8252V7.11654H2.76116C1.33721 7.11654 0.168066 8.16849 0.0415949 9.56342C0.0249942 9.74581 -0.343061 14.088 1.46478 18.8971C3.11884 23.2971 6.91363 28.9153 15.6083 31.1201C17.008 32.2079 18.6062 33.059 20.3402 33.6106L20.7525 34.28C21.5318 35.5452 21.9436 37.041 21.9436 38.6056C21.9436 39.5613 21.7887 40.4949 21.4834 41.3804L20.9109 43.0398H19.0061C17.0513 43.0398 15.4609 44.604 15.4609 46.5267V48.2143H12.4798C11.6385 48.2143 10.9541 48.8876 10.9541 49.715V53.4994C10.9541 54.3268 11.6385 55 12.4798 55H37.5203C38.3616 55 39.0461 54.3268 39.0461 53.4994V49.715C39.0461 48.8876 38.3616 48.2143 37.5203 48.2143H34.5392V46.5267C34.5392 44.604 32.9488 43.0398 30.9941 43.0398H29.0892L28.5167 41.3804C28.2113 40.495 28.0564 39.5614 28.0564 38.6056C28.0564 37.0411 28.4682 35.5453 29.2475 34.28L29.6598 33.6106C31.3938 33.059 32.9919 32.208 34.3917 31.1201C43.0864 28.9153 46.8812 23.2971 48.5352 18.8971C50.3431 14.088 49.975 9.74592 49.9584 9.56342ZM10.1285 22.3809C8.60123 20.9746 7.43121 19.2301 6.63099 17.1508C6.07497 15.706 5.71107 14.1374 5.5491 12.4874H9.8252V19.4064C9.8252 20.4248 9.92994 21.4195 10.1285 22.3809ZM3.00144 18.3384C1.32007 13.8657 1.6582 9.87428 1.67338 9.7066C1.72395 9.14868 2.19161 8.72792 2.76116 8.72792H9.8252V10.8763H5.48128C5.03874 10.8763 4.61411 11.0607 4.31617 11.3823C4.0179 11.7044 3.87046 12.1379 3.91164 12.5719C4.08409 14.3897 4.48349 16.1222 5.09881 17.7213C6.31404 20.8791 8.28112 23.3449 10.9737 25.1003C11.5035 26.358 12.2033 27.5295 13.0449 28.587C7.11033 26.1676 4.3154 21.8335 3.00144 18.3384ZM37.4078 49.8256V53.3887H12.5922V49.8256H37.4078ZM30.9941 44.651C32.0455 44.651 32.901 45.4924 32.901 46.5267V48.2143H17.0992V46.5267C17.0992 45.4924 17.9546 44.651 19.0061 44.651H30.9941ZM26.9654 41.8981L27.3593 43.0398H22.6406L23.0346 41.898C23.3976 40.8454 23.5817 39.7377 23.5817 38.6056C23.5817 37.0208 23.2216 35.4909 22.5369 34.1339C23.3388 34.2632 24.1613 34.3315 25 34.3315C25.8386 34.3315 26.6612 34.2632 27.463 34.1339C26.7782 35.4909 26.4182 37.0208 26.4182 38.6056C26.4183 39.7379 26.6023 40.8455 26.9654 41.8981ZM25 32.7201C17.5359 32.7201 11.4634 26.7476 11.4634 19.4064V6.09264H38.5366V19.4064C38.5366 26.7477 32.4641 32.7201 25 32.7201ZM46.9987 18.3384C45.6847 21.8337 42.8897 26.1682 36.9548 28.5876C37.7979 27.5281 38.4988 26.3543 39.029 25.0941C41.341 23.5841 43.1215 21.5505 44.3476 19.0041C44.5412 18.602 44.3667 18.1215 43.9579 17.9312C43.5492 17.7408 43.0608 17.9123 42.8671 18.3144C42.108 19.891 41.107 21.2493 39.8709 22.3859C40.0701 21.4229 40.175 20.4266 40.175 19.4065V12.4875H44.4511C44.3696 13.3165 44.2342 14.1386 44.0484 14.9322C43.947 15.3658 44.2221 15.7983 44.663 15.898C45.1035 15.9983 45.5435 15.7273 45.645 15.2936C45.8518 14.4097 46.001 13.4939 46.0886 12.5719C46.1298 12.1379 45.9823 11.7044 45.6841 11.3823C45.3861 11.0607 44.9615 10.8763 44.5189 10.8763H40.175V8.72792H47.2391C47.8086 8.72792 48.2763 9.14867 48.3268 9.70671C48.3418 9.87428 48.6799 13.8657 46.9987 18.3384Z" fill="currentColor"/>
<path d="M30.3864 15.6468L28.0376 15.3111C27.9353 15.2964 27.8469 15.2333 27.8012 15.1422L26.7507 13.0488C26.4195 12.3886 25.7487 11.9785 25.0001 11.9785C24.2516 11.9785 23.5807 12.3886 23.2495 13.0488L22.1991 15.1422C22.1533 15.2334 22.065 15.2965 21.9626 15.3111L19.6138 15.6468C18.873 15.7526 18.2692 16.2533 18.0379 16.9536C17.8065 17.6538 17.9958 18.408 18.5318 18.922L20.2314 20.5513C20.3055 20.6223 20.3392 20.7245 20.3218 20.8248L19.9205 23.1257C19.7939 23.8513 20.0915 24.5708 20.6971 25.0036C21.3026 25.4361 22.0905 25.4923 22.7532 25.1498L24.854 24.0634C24.9455 24.0161 25.0547 24.0161 25.1462 24.0634L27.2471 25.1498C27.5353 25.2987 27.8471 25.3723 28.1573 25.3723C28.5604 25.3723 28.9609 25.248 29.3031 25.0034C29.9087 24.5707 30.2063 23.8511 30.0797 23.1256L29.6785 20.8247C29.661 20.7243 29.6947 20.6222 29.7688 20.5513L31.4685 18.9218C32.0045 18.4079 32.1938 17.6536 31.9625 16.9534C31.7312 16.2533 31.1271 15.7526 30.3864 15.6468ZM30.3249 17.7681L28.6252 19.3976C28.1651 19.8388 27.9551 20.4741 28.0637 21.0971L28.465 23.398C28.4937 23.5627 28.399 23.6579 28.34 23.7001C28.2812 23.7424 28.1597 23.8017 28.0093 23.7237L25.9085 22.6374C25.6241 22.4903 25.312 22.4167 25 22.4167C24.688 22.4167 24.3759 22.4903 24.0915 22.6374L21.9908 23.7237C21.8405 23.8015 21.7191 23.7423 21.66 23.7001C21.601 23.6579 21.5064 23.5628 21.535 23.398L21.9363 21.0971C22.045 20.4741 21.8351 19.8388 21.3748 19.3975L19.6752 17.7682C19.5535 17.6516 19.5731 17.5198 19.5957 17.4515C19.6182 17.3833 19.6811 17.2654 19.8492 17.2413L22.198 16.9056C22.834 16.8147 23.3835 16.422 23.6679 15.8553L24.7183 13.762C24.7935 13.6121 24.927 13.5898 24.9999 13.5898C25.0727 13.5898 25.2063 13.6121 25.2814 13.762L26.3319 15.8553C26.6163 16.422 27.1657 16.8148 27.8018 16.9056L30.1507 17.2413C30.3188 17.2654 30.3817 17.3833 30.4042 17.4515C30.4269 17.5198 30.4465 17.6516 30.3249 17.7681Z" fill="currentColor"/>
</svg>
