<svg width="130" height="130" viewBox="0 0 130 130" fill="none" xmlns="http://www.w3.org/2000/svg">
<path d="M137.591 12.6849C137.26 13.0187 136.84 13.2491 136.383 13.3469C135.927 13.4448 135.455 13.4056 135.027 13.2344C134.6 13.0632 134.236 12.7677 133.981 12.3853C133.727 12.0029 133.593 11.5508 133.598 11.0863C133.603 10.6218 133.745 10.1658 134.007 9.77601C134.269 9.38626 134.639 9.08031 135.07 8.89691C135.501 8.71352 135.974 8.66094 136.429 8.74582C136.883 8.83071 137.299 9.04925 137.624 9.37375C137.839 9.58772 138.01 9.84326 138.125 10.1257C138.24 10.4081 138.298 10.7119 138.295 11.0195C138.292 11.3272 138.228 11.6327 138.107 11.9184C137.987 12.2042 137.811 12.4647 137.591 12.6849Z" fill="#6F7494"/>
<path d="M154.302 29.3963C153.971 29.7301 153.551 29.9605 153.095 30.0583C152.638 30.1562 152.166 30.117 151.739 29.9458C151.311 29.7746 150.947 29.4791 150.693 29.0967C150.438 28.7143 150.305 28.2622 150.309 27.7977C150.314 27.3332 150.456 26.8772 150.718 26.4874C150.98 26.0977 151.351 25.7917 151.782 25.6083C152.213 25.4249 152.686 25.3723 153.14 25.4572C153.595 25.5421 154.01 25.7607 154.335 26.0852C154.769 26.5187 155.008 27.1105 155.002 27.731C154.996 28.3515 154.745 28.9503 154.302 29.3963Z" fill="#6F7494"/>
<path d="M171.007 46.1006C170.676 46.4313 170.257 46.6588 169.803 46.7544C169.348 46.85 168.879 46.8094 168.454 46.6377C168.03 46.466 167.668 46.171 167.416 45.7898C167.164 45.4087 167.033 44.9587 167.038 44.4966C167.044 44.0345 167.186 43.5812 167.448 43.1939C167.709 42.8066 168.077 42.5028 168.506 42.3208C168.935 42.1388 169.406 42.0869 169.858 42.1716C170.31 42.2563 170.724 42.4738 171.046 42.7966C171.479 43.2295 171.718 43.8207 171.711 44.4403C171.703 45.06 171.45 45.6572 171.007 46.1006Z" fill="#6F7494"/>
<path d="M187.718 62.812C187.385 63.1476 186.962 63.3785 186.503 63.4752C186.044 63.572 185.569 63.5302 185.141 63.3551C184.712 63.18 184.348 62.8797 184.096 62.4926C183.844 62.1054 183.715 61.6491 183.726 61.182C183.737 60.7149 183.887 60.2582 184.157 59.8706C184.426 59.4829 184.804 59.1818 185.241 59.0058C185.678 58.8298 186.154 58.787 186.609 58.8828C187.063 58.9786 187.476 59.2086 187.793 59.5435C188.211 59.9797 188.436 60.5661 188.422 61.177C188.408 61.788 188.155 62.3749 187.718 62.812Z" fill="#6F7494"/>
<path d="M124.259 26.0164C123.928 26.3502 123.508 26.5807 123.052 26.6785C122.595 26.7763 122.123 26.7371 121.696 26.566C121.268 26.3948 120.904 26.0992 120.65 25.7168C120.395 25.3344 120.262 24.8823 120.266 24.4178C120.271 23.9533 120.413 23.4973 120.675 23.1076C120.938 22.7178 121.308 22.4119 121.739 22.2285C122.17 22.0451 122.643 21.9925 123.097 22.0774C123.552 22.1623 123.968 22.3808 124.292 22.7053C124.508 22.9193 124.678 23.1748 124.794 23.4572C124.909 23.7397 124.967 24.0434 124.964 24.3511C124.961 24.6587 124.897 24.9642 124.776 25.25C124.655 25.5358 124.48 25.7963 124.259 26.0164Z" fill="#6F7494"/>
<path d="M140.971 42.7278C140.64 43.0616 140.219 43.2921 139.763 43.3899C139.307 43.4877 138.835 43.4486 138.407 43.2774C137.98 43.1062 137.616 42.8107 137.361 42.4283C137.107 42.0458 136.973 41.5938 136.978 41.1293C136.982 40.6648 137.125 40.2087 137.387 39.819C137.649 39.4292 138.019 39.1233 138.45 38.9399C138.881 38.7565 139.354 38.7039 139.809 38.7888C140.263 38.8737 140.679 39.0922 141.003 39.4167C141.437 39.8502 141.677 40.442 141.671 41.0626C141.665 41.6831 141.413 42.2819 140.971 42.7278Z" fill="#6F7494"/>
<path d="M157.675 59.4321C157.344 59.7628 156.925 59.9903 156.471 60.0859C156.017 60.1816 155.548 60.1409 155.123 59.9692C154.698 59.7976 154.337 59.5025 154.085 59.1214C153.833 58.7403 153.701 58.2902 153.707 57.8282C153.712 57.3661 153.855 56.9128 154.116 56.5255C154.377 56.1382 154.746 55.8343 155.175 55.6523C155.604 55.4704 156.074 55.4185 156.526 55.5031C156.978 55.5878 157.392 55.8053 157.715 56.1282C158.148 56.561 158.387 57.1523 158.379 57.7719C158.372 58.3915 158.118 58.9887 157.675 59.4321Z" fill="#6F7494"/>
<path d="M174.386 76.1436C174.055 76.4777 173.634 76.7082 173.178 76.8059C172.721 76.9036 172.248 76.864 171.821 76.6922C171.393 76.5203 171.029 76.224 170.775 75.8408C170.521 75.4576 170.388 75.0048 170.394 74.5399C170.399 74.0749 170.543 73.6188 170.806 73.2294C171.07 72.8399 171.441 72.5348 171.873 72.3526C172.305 72.1704 172.778 72.1195 173.233 72.2062C173.688 72.2928 174.103 72.5133 174.426 72.8396C174.859 73.2724 175.098 73.8637 175.091 74.4833C175.083 75.103 174.83 75.7002 174.386 76.1436Z" fill="#6F7494"/>
<path d="M110.913 39.3625C110.581 39.6946 110.16 39.9231 109.704 40.0191C109.248 40.1152 108.777 40.0744 108.35 39.902C107.923 39.7295 107.561 39.4332 107.307 39.0504C107.054 38.6676 106.922 38.2156 106.928 37.7516C106.933 37.2875 107.076 36.8322 107.339 36.4432C107.601 36.0542 107.971 35.749 108.402 35.5663C108.833 35.3835 109.305 35.3314 109.76 35.4164C110.214 35.5015 110.629 35.7199 110.953 36.0441C111.17 36.2587 111.34 36.5151 111.456 36.7984C111.571 37.0818 111.628 37.3865 111.625 37.695C111.621 38.0035 111.556 38.3097 111.434 38.5959C111.312 38.8821 111.135 39.1427 110.913 39.3625Z" fill="#6F7494"/>
<path d="M127.625 56.0739C127.293 56.406 126.872 56.6345 126.416 56.7306C125.959 56.8266 125.488 56.7858 125.061 56.6134C124.635 56.4409 124.272 56.1446 124.019 55.7618C123.766 55.3791 123.633 54.9271 123.639 54.463C123.645 53.9989 123.788 53.5436 124.05 53.1546C124.313 52.7656 124.683 52.4605 125.114 52.2777C125.545 52.0949 126.017 52.0428 126.471 52.1278C126.925 52.2129 127.34 52.4313 127.665 52.7555C128.099 53.1903 128.339 53.7841 128.332 54.4065C128.324 55.0288 128.07 55.6286 127.625 56.0739Z" fill="#6F7494"/>
<path d="M144.329 72.7782C143.997 73.1072 143.578 73.3328 143.124 73.4266C142.669 73.5204 142.201 73.4782 141.777 73.3052C141.353 73.1323 140.993 72.8365 140.743 72.455C140.492 72.0736 140.361 71.6236 140.368 71.1619C140.374 70.7003 140.518 70.2476 140.779 69.8611C141.041 69.4746 141.41 69.1715 141.838 68.9902C142.267 68.8089 142.737 68.7574 143.189 68.8422C143.64 68.9271 144.054 69.1445 144.376 69.467C144.591 69.6819 144.76 69.9382 144.874 70.2212C144.988 70.5041 145.045 70.8082 145.04 71.1158C145.036 71.4235 144.971 71.7287 144.849 72.014C144.727 72.2993 144.55 72.559 144.329 72.7782Z" fill="#6F7494"/>
<path d="M161.04 89.4897C160.706 89.8235 160.283 90.0525 159.824 90.1474C159.365 90.2424 158.891 90.1989 158.463 90.0226C158.035 89.8463 157.673 89.5452 157.422 89.1577C157.172 88.7702 157.044 88.3139 157.056 87.8473C157.068 87.3806 157.218 86.9247 157.488 86.5378C157.759 86.1509 158.136 85.8505 158.573 85.6752C159.009 85.4999 159.485 85.4575 159.939 85.5534C160.394 85.6494 160.806 85.8793 161.123 86.2139C161.541 86.6513 161.767 87.2398 161.752 87.8525C161.736 88.4652 161.481 89.0532 161.04 89.4897Z" fill="#6F7494"/>
<path d="M97.589 52.6868C97.2547 53.0155 96.833 53.2402 96.3769 53.3326C95.9209 53.425 95.451 53.381 95.0263 53.2061C94.6017 53.0312 94.2414 52.7332 93.9908 52.3498C93.7402 51.9663 93.6105 51.5145 93.618 51.0513C93.6256 50.588 93.7701 50.1341 94.0333 49.7467C94.2965 49.3592 94.6667 49.0556 95.0972 48.8741C95.5276 48.6926 95.9991 48.6413 96.4522 48.7267C96.9054 48.8121 97.3198 49.0303 97.6434 49.3539C97.8599 49.5704 98.0303 49.8286 98.1448 50.1137C98.2594 50.3988 98.3157 50.7051 98.3106 51.015C98.3056 51.3249 98.2392 51.6321 98.1153 51.9191C97.9915 52.206 97.8126 52.467 97.589 52.6868Z" fill="#6F7494"/>
<path d="M114.3 69.3982C113.966 69.7269 113.544 69.9516 113.088 70.044C112.632 70.1364 112.162 70.0924 111.738 69.9175C111.313 69.7426 110.953 69.4446 110.702 69.0612C110.452 68.6777 110.322 68.2259 110.329 67.7627C110.337 67.2995 110.482 66.8455 110.745 66.4581C111.008 66.0707 111.378 65.7671 111.809 65.5855C112.239 65.404 112.711 65.3527 113.164 65.4381C113.617 65.5235 114.031 65.7417 114.355 66.0653C114.57 66.2825 114.739 66.5409 114.853 66.8259C114.967 67.1109 115.023 67.4169 115.018 67.7264C115.013 68.0359 114.947 68.3428 114.824 68.6297C114.701 68.9165 114.523 69.1777 114.3 69.3982Z" fill="#6F7494"/>
<path d="M131.005 86.1025C130.671 86.428 130.25 86.6498 129.797 86.74C129.343 86.8302 128.875 86.7848 128.454 86.6094C128.032 86.434 127.674 86.1366 127.426 85.7544C127.178 85.3723 127.05 84.9225 127.058 84.4618C127.067 84.001 127.212 83.5497 127.474 83.1647C127.736 82.7797 128.105 82.4782 128.533 82.2981C128.962 82.118 129.431 82.0674 129.881 82.1525C130.332 82.2377 130.744 82.4549 131.066 82.7767C131.281 82.9935 131.45 83.2517 131.563 83.5364C131.677 83.8211 131.732 84.1268 131.726 84.4358C131.721 84.7448 131.654 85.0511 131.53 85.3372C131.406 85.6232 131.228 85.8833 131.005 86.1025Z" fill="#6F7494"/>
<path d="M147.716 102.814C147.38 103.144 146.955 103.37 146.496 103.461C146.038 103.552 145.565 103.505 145.14 103.327C144.714 103.148 144.354 102.845 144.106 102.457C143.858 102.069 143.733 101.613 143.746 101.147C143.76 100.681 143.912 100.227 144.183 99.8413C144.454 99.456 144.832 99.1572 145.268 98.9831C145.704 98.8091 146.179 98.7675 146.632 98.8637C147.085 98.96 147.497 99.1897 147.813 99.5236C148.232 99.9648 148.456 100.557 148.438 101.172C148.419 101.788 148.16 102.377 147.716 102.814Z" fill="#6F7494"/>
<path d="M17.3248 -2.51695C16.9938 -2.18313 16.5734 -1.95271 16.1171 -1.85488C15.6607 -1.75705 15.1889 -1.79621 14.7613 -1.9674C14.3337 -2.1386 13.9696 -2.43412 13.7151 -2.81653C13.4606 -3.19894 13.3272 -3.65102 13.3318 -4.11553C13.3364 -4.58003 13.4787 -5.03603 13.7408 -5.42578C14.0029 -5.81553 14.373 -6.12149 14.8041 -6.30488C15.2352 -6.48828 15.708 -6.54086 16.1625 -6.45598C16.6171 -6.37109 17.0329 -6.15256 17.3574 -5.82805C17.5733 -5.61408 17.7438 -5.35855 17.859 -5.07612C17.9743 -4.79369 18.032 -4.48993 18.029 -4.18228C18.026 -3.87462 17.9622 -3.56913 17.8413 -3.28335C17.7205 -2.99757 17.5449 -2.73711 17.3248 -2.51695Z" fill="#6F7494"/>
<path d="M34.0362 14.1945C33.7052 14.5283 33.2849 14.7587 32.8285 14.8565C32.3722 14.9544 31.9003 14.9152 31.4727 14.744C31.0451 14.5728 30.681 14.2773 30.4265 13.8949C30.172 13.5125 30.0386 13.0604 30.0432 12.5959C30.0478 12.1314 30.1902 11.6754 30.4522 11.2856C30.7143 10.8959 31.0844 10.5899 31.5155 10.4065C31.9466 10.2231 32.4194 10.1706 32.8739 10.2554C33.3285 10.3403 33.7444 10.5589 34.0689 10.8834C34.5024 11.3169 34.7423 11.9087 34.7362 12.5292C34.7301 13.1497 34.4784 13.7485 34.0362 14.1945Z" fill="#6F7494"/>
<path d="M50.7405 30.8988C50.4098 31.2295 49.9909 31.457 49.5366 31.5526C49.0823 31.6482 48.6131 31.6076 48.1883 31.4359C47.7636 31.2642 47.4023 30.9692 47.1502 30.588C46.8981 30.2069 46.7665 29.7569 46.7721 29.2948C46.7777 28.8327 46.9201 28.3794 47.1815 27.9921C47.4428 27.6048 47.8113 27.301 48.2403 27.119C48.6693 26.937 49.1397 26.8851 49.5918 26.9698C50.0439 27.0545 50.4575 27.272 50.7803 27.5948C51.2131 28.0276 51.4521 28.6189 51.4447 29.2385C51.4372 29.8582 51.1839 30.4554 50.7405 30.8988Z" fill="#6F7494"/>
<path d="M67.4519 47.6102C67.119 47.9457 66.6958 48.1767 66.2366 48.2734C65.7775 48.3702 65.3031 48.3284 64.8744 48.1533C64.4457 47.9782 64.0821 47.6779 63.8301 47.2908C63.5781 46.9036 63.4493 46.4473 63.46 45.9802C63.4708 45.5131 63.6207 45.0564 63.8905 44.6687C64.1603 44.2811 64.5378 43.98 64.9746 43.804C65.4114 43.628 65.8876 43.5852 66.3424 43.681C66.7971 43.7768 67.2097 44.0068 67.5272 44.3417C67.9444 44.7779 68.1701 45.3643 68.156 45.9752C68.142 46.5862 67.8892 47.1731 67.4519 47.6102Z" fill="#6F7494"/>
<path d="M3.9932 10.8146C3.66219 11.1484 3.24188 11.3789 2.78553 11.4767C2.32917 11.5745 1.8573 11.5354 1.4297 11.3642C1.00209 11.193 0.637987 10.8974 0.383513 10.515C0.129039 10.1326 -0.0043503 9.68054 0.000235371 9.21603C0.00482104 8.75153 0.147177 8.29552 0.409274 7.90578C0.671371 7.51603 1.04141 7.21007 1.47252 7.02668C1.90363 6.84328 2.3764 6.7907 2.83095 6.87559C3.2855 6.96047 3.70137 7.17901 4.02588 7.50351C4.24177 7.71748 4.41223 7.97302 4.52747 8.25545C4.64272 8.53788 4.70048 8.84164 4.69744 9.14929C4.69441 9.45694 4.63063 9.76243 4.50977 10.0482C4.38892 10.334 4.21337 10.5945 3.9932 10.8146Z" fill="#6F7494"/>
<path d="M20.7046 27.526C20.3736 27.8599 19.9533 28.0903 19.4969 28.1881C19.0406 28.2859 18.5687 28.2468 18.1411 28.0756C17.7135 27.9044 17.3494 27.6089 17.0949 27.2265C16.8405 26.844 16.7071 26.392 16.7117 25.9274C16.7162 25.4629 16.8586 25.0069 17.1207 24.6172C17.3828 24.2274 17.7528 23.9215 18.1839 23.7381C18.615 23.5547 19.0878 23.5021 19.5424 23.587C19.9969 23.6719 20.4128 23.8904 20.7373 24.2149C21.1708 24.6484 21.4108 25.2402 21.4046 25.8608C21.3985 26.4813 21.1468 27.0801 20.7046 27.526Z" fill="#6F7494"/>
<path d="M37.4089 44.2304C37.0783 44.561 36.6593 44.7886 36.205 44.8842C35.7507 44.9798 35.2815 44.9391 34.8568 44.7675C34.432 44.5958 34.0707 44.3007 33.8186 43.9196C33.5665 43.5385 33.435 43.0884 33.4405 42.6264C33.4461 42.1643 33.5886 41.711 33.8499 41.3237C34.1112 40.9364 34.4797 40.6325 34.9088 40.4506C35.3378 40.2686 35.8081 40.2167 36.2602 40.3014C36.7123 40.386 37.1259 40.6035 37.4487 40.9263C37.8816 41.3592 38.1206 41.9505 38.1131 42.5701C38.1056 43.1897 37.8523 43.7869 37.4089 44.2304Z" fill="#6F7494"/>
<path d="M54.1203 60.9418C53.789 61.2759 53.3683 61.5064 52.9114 61.6041C52.4546 61.7018 51.9823 61.6622 51.5545 61.4904C51.1267 61.3185 50.7627 61.0222 50.5086 60.639C50.2545 60.2558 50.1218 59.803 50.1274 59.3381C50.133 58.8731 50.2767 58.417 50.54 58.0276C50.8034 57.6382 51.1747 57.333 51.6068 57.1508C52.0388 56.9686 52.5122 56.9177 52.9668 57.0044C53.4214 57.0911 53.8368 57.3115 54.1601 57.6378C54.593 58.0706 54.832 58.6619 54.8245 59.2815C54.8171 59.9011 54.5638 60.4983 54.1203 60.9418Z" fill="#6F7494"/>
<path d="M69.8569 -55.0491C69.5259 -54.7153 69.1056 -54.4849 68.6493 -54.3871C68.1929 -54.2892 67.721 -54.3284 67.2934 -54.4996C66.8658 -54.6708 66.5017 -54.9663 66.2472 -55.3487C65.9928 -55.7311 65.8594 -56.1832 65.864 -56.6477C65.8686 -57.1122 66.0109 -57.5682 66.273 -57.958C66.5351 -58.3477 66.9051 -58.6537 67.3363 -58.8371C67.7674 -59.0204 68.2401 -59.073 68.6947 -58.9881C69.1492 -58.9033 69.5651 -58.6847 69.8896 -58.3602C70.1055 -58.1463 70.276 -57.8907 70.3912 -57.6083C70.5065 -57.3259 70.5642 -57.0221 70.5612 -56.7144C70.5581 -56.4068 70.4944 -56.1013 70.3735 -55.8155C70.2527 -55.5297 70.0771 -55.2693 69.8569 -55.0491Z" fill="#6F7494"/>
<path d="M86.5683 -38.3377C86.2373 -38.0039 85.817 -37.7735 85.3607 -37.6756C84.9043 -37.5778 84.4325 -37.617 84.0048 -37.7882C83.5772 -37.9594 83.2131 -38.2549 82.9587 -38.6373C82.7042 -39.0197 82.5708 -39.4718 82.5754 -39.9363C82.58 -40.4008 82.7223 -40.8568 82.9844 -41.2465C83.2465 -41.6363 83.6166 -41.9422 84.0477 -42.1256C84.4788 -42.309 84.9516 -42.3616 85.4061 -42.2767C85.8607 -42.1918 86.2765 -41.9733 86.601 -41.6488C87.0346 -41.2153 87.2745 -40.6235 87.2684 -40.003C87.2623 -39.3824 87.0106 -38.7837 86.5683 -38.3377Z" fill="#6F7494"/>
<path d="M103.273 -21.6334C102.942 -21.3027 102.523 -21.0752 102.069 -20.9796C101.614 -20.884 101.145 -20.9246 100.721 -21.0963C100.296 -21.268 99.9345 -21.563 99.6824 -21.9441C99.4303 -22.3252 99.2987 -22.7753 99.3043 -23.2374C99.3098 -23.6994 99.4523 -24.1528 99.7136 -24.5401C99.975 -24.9274 100.343 -25.2312 100.772 -25.4132C101.202 -25.5951 101.672 -25.6471 102.124 -25.5624C102.576 -25.4777 102.99 -25.2602 103.312 -24.9374C103.745 -24.5045 103.984 -23.9132 103.977 -23.2936C103.969 -22.674 103.716 -22.0768 103.273 -21.6334Z" fill="#6F7494"/>
<path d="M119.984 -4.92197C119.651 -4.58642 119.228 -4.35548 118.769 -4.25873C118.31 -4.16198 117.835 -4.20382 117.407 -4.37888C116.978 -4.55394 116.614 -4.85427 116.362 -5.24141C116.11 -5.62855 115.981 -6.08488 115.992 -6.55199C116.003 -7.0191 116.153 -7.47574 116.423 -7.86343C116.692 -8.25112 117.07 -8.55221 117.507 -8.72818C117.944 -8.90416 118.42 -8.94699 118.875 -8.8512C119.329 -8.75541 119.742 -8.52536 120.059 -8.19049C120.477 -7.75431 120.702 -7.1679 120.688 -6.55693C120.674 -5.94597 120.421 -5.35906 119.984 -4.92197Z" fill="#6F7494"/>
<path d="M56.5254 -41.7176C56.1944 -41.3837 55.7741 -41.1533 55.3177 -41.0555C54.8613 -40.9577 54.3895 -40.9968 53.9619 -41.168C53.5343 -41.3392 53.1702 -41.6347 52.9157 -42.0171C52.6612 -42.3995 52.5278 -42.8516 52.5324 -43.3161C52.537 -43.7806 52.6793 -44.2366 52.9414 -44.6264C53.2035 -45.0161 53.5736 -45.3221 54.0047 -45.5055C54.4358 -45.6889 54.9086 -45.7415 55.3631 -45.6566C55.8177 -45.5717 56.2335 -45.3532 56.5581 -45.0287C56.7739 -44.8147 56.9444 -44.5592 57.0596 -44.2767C57.1749 -43.9943 57.2327 -43.6905 57.2296 -43.3829C57.2266 -43.0752 57.1628 -42.7697 57.0419 -42.484C56.9211 -42.1982 56.7455 -41.9377 56.5254 -41.7176Z" fill="#6F7494"/>
<path d="M73.2368 -25.0061C72.9058 -24.6723 72.4855 -24.4419 72.0291 -24.3441C71.5728 -24.2462 71.1009 -24.2854 70.6733 -24.4566C70.2457 -24.6278 69.8816 -24.9233 69.6271 -25.3057C69.3726 -25.6881 69.2392 -26.1402 69.2438 -26.6047C69.2484 -27.0692 69.3908 -27.5252 69.6529 -27.915C69.915 -28.3047 70.285 -28.6107 70.7161 -28.7941C71.1472 -28.9775 71.62 -29.0301 72.0745 -28.9452C72.5291 -28.8603 72.945 -28.6417 73.2695 -28.3172C73.703 -27.8837 73.9429 -27.292 73.9368 -26.6714C73.9307 -26.0509 73.679 -25.4521 73.2368 -25.0061Z" fill="#6F7494"/>
<path d="M89.9411 -8.30182C89.6104 -7.97115 89.1915 -7.74363 88.7372 -7.64802C88.2829 -7.55242 87.8137 -7.59303 87.3889 -7.76472C86.9642 -7.93641 86.6029 -8.23146 86.3508 -8.61257C86.0987 -8.99368 85.9671 -9.44373 85.9727 -9.9058C85.9783 -10.3679 86.1207 -10.8212 86.3821 -11.2085C86.6434 -11.5958 87.0119 -11.8996 87.4409 -12.0816C87.87 -12.2636 88.3403 -12.3155 88.7924 -12.2308C89.2445 -12.1461 89.6581 -11.9286 89.9809 -11.6058C90.4138 -11.173 90.6527 -10.5817 90.6453 -9.96206C90.6378 -9.34244 90.3845 -8.74524 89.9411 -8.30182Z" fill="#6F7494"/>
<path d="M106.653 8.40959C106.321 8.74371 105.9 8.97425 105.444 9.07192C104.987 9.16959 104.514 9.13 104.087 8.95818C103.659 8.78636 103.295 8.49005 103.041 8.10685C102.787 7.72366 102.654 7.27085 102.66 6.80591C102.665 6.34096 102.809 5.88483 103.072 5.49541C103.336 5.10598 103.707 4.80082 104.139 4.61864C104.571 4.43647 105.044 4.38549 105.499 4.47218C105.954 4.55888 106.369 4.77934 106.692 5.10559C107.125 5.53845 107.364 6.12973 107.357 6.74935C107.349 7.36897 107.096 7.96617 106.653 8.40959Z" fill="#6F7494"/>
<path d="M43.1793 -28.3715C42.8472 -28.0393 42.4264 -27.8108 41.9701 -27.7148C41.5139 -27.6188 41.0426 -27.6596 40.616 -27.832C40.1894 -28.0045 39.8266 -28.3008 39.5734 -28.6836C39.3202 -29.0663 39.188 -29.5183 39.1936 -29.9824C39.1992 -30.4465 39.3423 -30.9018 39.6048 -31.2908C39.8672 -31.6798 40.2373 -31.9849 40.6682 -32.1677C41.0991 -32.3504 41.5715 -32.4026 42.0255 -32.3175C42.4796 -32.2325 42.895 -32.014 43.2192 -31.6898C43.4357 -31.4753 43.6065 -31.2189 43.7218 -30.9356C43.837 -30.6522 43.8945 -30.3475 43.8907 -30.039C43.887 -29.7305 43.8222 -29.4243 43.7001 -29.138C43.578 -28.8518 43.401 -28.5913 43.1793 -28.3715Z" fill="#6F7494"/>
<path d="M59.8907 -11.66C59.5586 -11.3279 59.1378 -11.0994 58.6815 -11.0034C58.2253 -10.9074 57.754 -10.9482 57.3274 -11.1206C56.9008 -11.293 56.538 -11.5894 56.2848 -11.9721C56.0316 -12.3549 55.8994 -12.8069 55.905 -13.271C55.9106 -13.7351 56.0537 -14.1904 56.3162 -14.5794C56.5787 -14.9684 56.9487 -15.2735 57.3796 -15.4563C57.8105 -15.639 58.2829 -15.6912 58.737 -15.6061C59.191 -15.5211 59.6064 -15.3026 59.9306 -14.9784C60.3654 -14.5437 60.6054 -13.9498 60.5979 -13.3275C60.5904 -12.7052 60.336 -12.1054 59.8907 -11.66Z" fill="#6F7494"/>
<path d="M76.595 5.04428C76.2632 5.37323 75.8438 5.59885 75.3896 5.69264C74.9355 5.78644 74.4669 5.74421 74.0431 5.57129C73.6194 5.39836 73.2593 5.1025 73.0085 4.72104C72.7577 4.33958 72.6274 3.88963 72.634 3.42798C72.6405 2.96632 72.7837 2.51367 73.0454 2.12715C73.3071 1.74063 73.6756 1.43757 74.1045 1.25623C74.5333 1.0749 75.0031 1.0234 75.4548 1.10825C75.9064 1.19311 76.3196 1.4105 76.6421 1.733C76.857 1.94793 77.0263 2.20423 77.1403 2.48718C77.2543 2.77014 77.3108 3.07418 77.3064 3.38185C77.302 3.68952 77.2369 3.99476 77.1149 4.28004C76.9928 4.56533 76.8161 4.82505 76.595 5.04428Z" fill="#6F7494"/>
<path d="M93.3064 21.7557C92.9724 22.0895 92.5487 22.3185 92.0897 22.4135C91.6306 22.5084 91.1569 22.4649 90.7292 22.2886C90.3015 22.1123 89.9391 21.8112 89.6884 21.4237C89.4378 21.0362 89.3101 20.58 89.3219 20.1133C89.3337 19.6466 89.4843 19.1907 89.7544 18.8038C90.0246 18.4169 90.4021 18.1166 90.8387 17.9412C91.2753 17.7659 91.7511 17.7235 92.2054 17.8194C92.6597 17.9154 93.0717 18.1453 93.389 18.4799C93.8073 18.9173 94.0331 19.5058 94.0177 20.1185C94.0023 20.7313 93.7468 21.3192 93.3064 21.7557Z" fill="#6F7494"/>
<path d="M29.855 -15.0472C29.5207 -14.7185 29.099 -14.4938 28.6429 -14.4014C28.1869 -14.309 27.717 -14.353 27.2924 -14.5279C26.8677 -14.7028 26.5074 -15.0008 26.2568 -15.3842C26.0062 -15.7677 25.8765 -16.2195 25.8841 -16.6827C25.8916 -17.1459 26.0361 -17.5999 26.2994 -17.9873C26.5626 -18.3747 26.9327 -18.6783 27.3632 -18.8598C27.7936 -19.0413 28.2651 -19.0926 28.7183 -19.0073C29.1714 -18.9219 29.5859 -18.7037 29.9095 -18.3801C30.1259 -18.1636 30.2964 -17.9054 30.4109 -17.6203C30.5254 -17.3352 30.5817 -17.0289 30.5767 -16.719C30.5716 -16.4091 30.5052 -16.1018 30.3814 -15.8149C30.2575 -15.528 30.0786 -15.267 29.855 -15.0472Z" fill="#6F7494"/>
<path d="M46.5664 1.66425C46.2321 1.99292 45.8104 2.21762 45.3544 2.31002C44.8983 2.40243 44.4284 2.35841 44.0038 2.18351C43.5791 2.00862 43.2188 1.71067 42.9682 1.32721C42.7176 0.94375 42.5879 0.491939 42.5955 0.0287055C42.6031 -0.434529 42.7476 -0.888457 43.0108 -1.27589C43.274 -1.66332 43.6441 -1.96692 44.0746 -2.14842C44.5051 -2.32993 44.9765 -2.38123 45.4297 -2.29585C45.8828 -2.21048 46.2973 -1.99225 46.6209 -1.66866C46.8361 -1.45151 47.0055 -1.19305 47.1192 -0.908036C47.233 -0.62302 47.2889 -0.317031 47.2838 -0.00754056C47.2788 0.30195 47.2128 0.608877 47.0897 0.895724C46.9666 1.18257 46.7888 1.44372 46.5664 1.66425Z" fill="#6F7494"/>
<path d="M63.2707 18.3686C62.9368 18.6941 62.5165 18.9159 62.0625 19.0061C61.6086 19.0962 61.1414 19.0508 60.7196 18.8754C60.2978 18.7001 59.9403 18.4026 59.6921 18.0205C59.4438 17.6383 59.316 17.1886 59.3245 16.7278C59.333 16.267 59.4776 15.8157 59.74 15.4308C60.0025 15.0458 60.3711 14.7443 60.7994 14.5642C61.2278 14.3841 61.6968 14.3334 62.1475 14.4186C62.5982 14.5037 63.0104 14.7209 63.3323 15.0428C63.5472 15.2596 63.7162 15.5177 63.8294 15.8024C63.9427 16.0872 63.9981 16.3928 63.9923 16.7018C63.9866 17.0108 63.9199 17.3172 63.7961 17.6032C63.6722 17.8892 63.4937 18.1493 63.2707 18.3686Z" fill="#6F7494"/>
<path d="M79.9821 35.08C79.6459 35.4104 79.2213 35.6355 78.7625 35.7268C78.3036 35.8181 77.8313 35.7714 77.4056 35.5927C76.9799 35.4139 76.6201 35.1112 76.372 34.723C76.1239 34.3348 75.9987 33.8788 76.0125 33.413C76.0262 32.9472 76.1782 32.4927 76.4491 32.1074C76.7201 31.722 77.0976 31.4233 77.5337 31.2492C77.9698 31.0751 78.4448 31.0335 78.8981 31.1298C79.3514 31.226 79.7626 31.4557 80.0792 31.7897C80.4976 32.2309 80.7218 32.823 80.7037 33.4385C80.6855 34.0539 80.4264 34.6435 79.9821 35.08Z" fill="#6F7494"/>
<path d="M85.0587 65.217C84.7277 65.5508 84.3074 65.7813 83.8511 65.8791C83.3947 65.9769 82.9228 65.9378 82.4952 65.7666C82.0676 65.5954 81.7035 65.2999 81.4491 64.9174C81.1946 64.535 81.0612 64.083 81.0658 63.6184C81.0704 63.1539 81.2127 62.6979 81.4748 62.3082C81.7369 61.9184 82.1069 61.6125 82.5381 61.4291C82.9692 61.2457 83.4419 61.1931 83.8965 61.278C84.351 61.3629 84.7669 61.5814 85.0914 61.9059C85.3073 62.1199 85.4778 62.3754 85.593 62.6579C85.7083 62.9403 85.766 63.244 85.763 63.5517C85.7599 63.8593 85.6962 64.1648 85.5753 64.4506C85.4545 64.7364 85.2789 64.9969 85.0587 65.217Z" fill="#6F7494"/>
<path d="M101.77 81.9284C101.439 82.2623 101.019 82.4927 100.562 82.5905C100.106 82.6883 99.6343 82.6492 99.2066 82.478C98.779 82.3068 98.4149 82.0113 98.1605 81.6289C97.906 81.2465 97.7726 80.7944 97.7772 80.3299C97.7818 79.8654 97.9241 79.4094 98.1862 79.0196C98.4483 78.6299 98.8184 78.3239 99.2495 78.1405C99.6806 77.9571 100.153 77.9045 100.608 77.9894C101.062 78.0743 101.478 78.2928 101.803 78.6173C102.236 79.0508 102.476 79.6426 102.47 80.2632C102.464 80.8837 102.212 81.4825 101.77 81.9284Z" fill="#6F7494"/>
<path d="M118.474 98.6328C118.144 98.9634 117.725 99.191 117.271 99.2866C116.816 99.3822 116.347 99.3415 115.922 99.1699C115.498 98.9982 115.136 98.7031 114.884 98.322C114.632 97.9409 114.5 97.4908 114.506 97.0288C114.512 96.5667 114.654 96.1134 114.915 95.7261C115.177 95.3388 115.545 95.0349 115.974 94.853C116.403 94.671 116.874 94.6191 117.326 94.7038C117.778 94.7884 118.191 95.006 118.514 95.3288C118.947 95.7616 119.186 96.3529 119.179 96.9725C119.171 97.5921 118.918 98.1893 118.474 98.6328Z" fill="#6F7494"/>
<path d="M135.186 115.344C134.853 115.68 134.43 115.911 133.971 116.007C133.511 116.104 133.037 116.062 132.608 115.887C132.18 115.712 131.816 115.412 131.564 115.025C131.312 114.638 131.183 114.181 131.194 113.714C131.205 113.247 131.355 112.79 131.624 112.403C131.894 112.015 132.272 111.714 132.709 111.538C133.145 111.362 133.622 111.319 134.076 111.415C134.531 111.511 134.944 111.741 135.261 112.076C135.678 112.512 135.904 113.098 135.89 113.709C135.876 114.32 135.623 114.907 135.186 115.344Z" fill="#6F7494"/>
<path d="M71.7272 78.5486C71.3962 78.8824 70.9759 79.1128 70.5195 79.2107C70.0631 79.3085 69.5913 79.2693 69.1637 79.0981C68.7361 78.9269 68.372 78.6314 68.1175 78.249C67.863 77.8666 67.7296 77.4145 67.7342 76.95C67.7388 76.4855 67.8812 76.0295 68.1432 75.6397C68.4053 75.25 68.7754 74.944 69.2065 74.7606C69.6376 74.5773 70.1104 74.5247 70.5649 74.6096C71.0195 74.6944 71.4354 74.913 71.7599 75.2375C71.9757 75.4515 72.1462 75.707 72.2614 75.9894C72.3767 76.2719 72.4345 76.5756 72.4314 76.8833C72.4284 77.1909 72.3646 77.4964 72.2437 77.7822C72.1229 78.068 71.9473 78.3284 71.7272 78.5486Z" fill="#6F7494"/>
<path d="M88.4386 95.26C88.1076 95.5938 87.6873 95.8242 87.2309 95.9221C86.7746 96.0199 86.3027 95.9807 85.8751 95.8095C85.4475 95.6384 85.0834 95.3428 84.8289 94.9604C84.5744 94.578 84.441 94.1259 84.4456 93.6614C84.4502 93.1969 84.5926 92.7409 84.8547 92.3512C85.1168 91.9614 85.4868 91.6555 85.9179 91.4721C86.349 91.2887 86.8218 91.2361 87.2763 91.321C87.7309 91.4059 88.1468 91.6244 88.4713 91.9489C88.9048 92.3824 89.1447 92.9742 89.1386 93.5947C89.1325 94.2153 88.8808 94.814 88.4386 95.26Z" fill="#6F7494"/>
<path d="M105.143 111.964C104.812 112.295 104.393 112.523 103.939 112.618C103.485 112.714 103.016 112.673 102.591 112.501C102.166 112.33 101.805 112.035 101.553 111.654C101.301 111.272 101.169 110.822 101.174 110.36C101.18 109.898 101.323 109.445 101.584 109.058C101.845 108.67 102.214 108.366 102.643 108.185C103.072 108.003 103.542 107.951 103.994 108.035C104.446 108.12 104.86 108.338 105.183 108.66C105.616 109.093 105.855 109.684 105.847 110.304C105.84 110.924 105.586 111.521 105.143 111.964Z" fill="#6F7494"/>
<path d="M121.854 128.676C121.523 129.01 121.102 129.24 120.645 129.338C120.189 129.436 119.716 129.396 119.288 129.224C118.861 129.053 118.497 128.756 118.243 128.373C117.988 127.99 117.856 127.537 117.861 127.072C117.867 126.607 118.011 126.151 118.274 125.762C118.537 125.372 118.909 125.067 119.341 124.885C119.773 124.703 120.246 124.652 120.701 124.738C121.155 124.825 121.571 125.045 121.894 125.372C122.327 125.805 122.566 126.396 122.559 127.016C122.551 127.635 122.298 128.232 121.854 128.676Z" fill="#6F7494"/>
</svg>
