<svg width="139" height="139" viewBox="0 0 139 139" fill="none" xmlns="http://www.w3.org/2000/svg">
<path d="M96.4684 133.686C107.237 122.917 95.4897 93.7107 70.2303 68.4513C44.9708 43.1918 15.7644 31.4446 4.99578 42.2132C-5.77279 52.9818 5.97439 82.1883 31.2338 107.448C56.4933 132.707 85.6998 144.454 96.4684 133.686Z" stroke="#C2B1FF" stroke-width="2" stroke-miterlimit="10"/>
<path d="M115.077 115.077C125.846 104.308 114.099 75.1019 88.8391 49.8424C63.5797 24.583 34.3732 12.8358 23.6046 23.6044C12.836 34.3729 24.5832 63.5794 49.8427 88.8389C75.1021 114.098 104.309 125.846 115.077 115.077Z" stroke="#C2B1FF" stroke-width="2" stroke-miterlimit="10"/>
<path d="M133.686 96.4681C144.455 85.6995 132.707 56.493 107.448 31.2336C82.1885 5.97414 52.982 -5.77304 42.2134 4.99553C31.4449 15.7641 43.1921 44.9706 68.4515 70.23C93.711 95.4895 122.917 107.237 133.686 96.4681Z" stroke="#C2B1FF" stroke-width="2" stroke-miterlimit="10"/>
</svg>
