<svg width="139" height="140" viewBox="0 0 139 140" fill="none" xmlns="http://www.w3.org/2000/svg">
<path d="M5.21539 97.9888C16.1879 108.55 45.1644 96.246 69.9363 70.5082C94.7081 44.7704 105.895 15.3446 94.9222 4.78394C83.9497 -5.77675 54.9731 6.52674 30.2013 32.2646C5.42945 58.0024 -5.75712 87.4281 5.21539 97.9888Z" stroke="#C2B1FF" stroke-width="2" stroke-miterlimit="10"/>
<path d="M24.1766 116.238C35.1491 126.799 64.1257 114.496 88.8975 88.7578C113.669 63.02 124.856 33.5942 113.883 23.0336C102.911 12.4729 73.9344 24.7763 49.1625 50.5142C24.3907 76.252 13.2041 105.678 24.1766 116.238Z" stroke="#C2B1FF" stroke-width="2" stroke-miterlimit="10"/>
<path d="M43.1379 134.488C54.1104 145.049 83.0869 132.745 107.859 107.007C132.631 81.2696 143.817 51.8439 132.845 41.2832C121.872 30.7225 92.8956 43.026 68.1238 68.7638C43.3519 94.5016 32.1654 123.927 43.1379 134.488Z" stroke="#C2B1FF" stroke-width="2" stroke-miterlimit="10"/>
</svg>
