<svg width="197" height="216" viewBox="0 0 197 216" fill="none" xmlns="http://www.w3.org/2000/svg">
<path d="M182.771 198.895L182.762 205.627L176.695 205.596L176.671 207.922L182.759 207.931L182.749 214.663L184.853 214.643L184.842 207.934L190.93 207.942L190.933 205.638L184.866 205.607L184.855 198.898L182.771 198.895Z" fill="white" fill-opacity="0.5"/>
<path d="M160.823 174.555L160.793 181.264L154.747 181.256L154.723 183.582L160.81 183.591L160.78 190.3L162.905 190.303L162.894 183.594L168.981 183.602L168.964 181.276L162.918 181.267L162.907 174.558L160.823 174.555Z" fill="white" fill-opacity="0.5"/>
<path d="M138.854 150.192L138.845 156.924L132.778 156.893L132.775 159.242L138.842 159.228L138.832 165.96L140.936 165.94L140.946 159.254L147.012 159.239L147.016 156.935L140.949 156.904L140.958 150.218L138.854 150.192Z" fill="white" fill-opacity="0.5"/>
<path d="M116.905 125.851L116.895 132.582L110.828 132.551L110.805 134.878L116.892 134.886L116.882 141.618L118.986 141.598L118.975 134.889L125.063 134.898L125.066 132.594L118.999 132.563L118.988 125.854L116.905 125.851Z" fill="white" fill-opacity="0.5"/>
<path d="M94.9568 101.511L94.9474 108.243L88.8805 108.212L88.8568 110.538L94.9442 110.547L94.9347 117.279L97.0387 117.259L97.0277 110.55L103.115 110.558L103.118 108.254L97.0514 108.223L97.0404 101.514L94.9568 101.511Z" fill="white" fill-opacity="0.5"/>
<path d="M73.007 77.1696L72.9772 83.8787L66.9307 83.8702L66.907 86.1969L72.9943 86.2054L72.9645 92.9145L75.0889 92.9174L75.0779 86.2084L81.1652 86.2169L81.1481 83.8902L75.1016 83.8817L75.0906 77.1726L73.007 77.1696Z" fill="white" fill-opacity="0.5"/>
<path d="M51.0377 52.8062L51.0282 59.5379L44.9614 59.5068L44.9581 61.856L51.025 61.842L51.0156 68.5736L53.1196 68.554L53.129 61.8675L59.1959 61.8535L59.1992 59.5493L53.1323 59.5183L53.1417 52.8317L51.0377 52.8062Z" fill="white" fill-opacity="0.5"/>
<path d="M29.0899 28.4669L29.0804 35.1985L23.0136 35.1674L22.9899 37.4941L29.0772 37.5026L29.0677 44.2343L31.1718 44.2147L31.1608 37.5056L37.2481 37.5141L37.2514 35.21L31.1845 35.1789L31.1735 28.4698L29.0899 28.4669Z" fill="white" fill-opacity="0.5"/>
<path d="M7.14026 4.1252L7.11043 10.8343L1.06392 10.8257L1.04026 13.1524L7.12757 13.161L7.09775 19.87L9.22216 19.873L9.21118 13.1639L15.2985 13.1724L15.2814 10.8457L9.23484 10.8372L9.22387 4.12815L7.14026 4.1252Z" fill="white" fill-opacity="0.5"/>
<path d="M182.65 150.486L182.62 157.195L176.553 157.209L176.55 159.513L182.637 159.522L182.607 166.231L184.711 166.256L184.721 159.525L190.808 159.533L190.791 157.206L184.724 157.22L184.733 150.489L182.65 150.486Z" fill="white" fill-opacity="0.5"/>
<path d="M160.681 126.123L160.672 132.855L154.584 132.846L154.602 135.173L160.668 135.159L160.659 141.891L162.743 141.894L162.772 135.185L168.839 135.17L168.843 132.866L162.755 132.858L162.785 126.149L160.681 126.123Z" fill="white" fill-opacity="0.5"/>
<path d="M138.732 101.782L138.722 108.513L132.635 108.505L132.632 110.809L138.719 110.817L138.709 117.549L140.793 117.552L140.802 110.82L146.89 110.829L146.893 108.525L140.806 108.516L140.815 101.785L138.732 101.782Z" fill="white" fill-opacity="0.5"/>
<path d="M116.784 77.4422L116.774 84.1738L110.687 84.1653L110.684 86.4694L116.771 86.478L116.762 93.2096L118.845 93.2126L118.855 86.4809L124.942 86.4895L124.945 84.1853L118.858 84.1768L118.867 77.4451L116.784 77.4422Z" fill="white" fill-opacity="0.5"/>
<path d="M94.834 53.1007L94.8042 59.8097L88.7372 59.8238L88.734 62.1279L94.8213 62.1364L94.7915 68.8455L96.8954 68.871L96.9049 62.1394L102.992 62.1479L102.975 59.8212L96.9081 59.8352L96.9176 53.1036L94.834 53.1007Z" fill="white" fill-opacity="0.5"/>
<path d="M72.8646 28.7373L72.8552 35.4689L66.7678 35.4604L66.785 37.7871L72.8519 37.773L72.8425 44.5047L74.9261 44.5076L74.9559 37.7985L81.0229 37.7845L81.0261 35.4804L74.9388 35.4718L74.9686 28.7628L72.8646 28.7373Z" fill="white" fill-opacity="0.5"/>
<path d="M50.9169 4.39779L50.9074 11.1294L44.8201 11.1209L44.8169 13.425L50.9042 13.4336L50.8947 20.1652L52.9783 20.1681L52.9878 13.4365L59.0751 13.445L59.0783 11.1409L52.991 11.1324L53.0005 4.40073L50.9169 4.39779Z" fill="white" fill-opacity="0.5"/>
<path d="M182.487 102.077L182.498 108.786L176.411 108.778L176.428 111.104L182.474 111.113L182.485 117.822L184.569 117.825L184.599 111.116L190.645 111.124L190.669 108.798L184.582 108.789L184.611 102.08L182.487 102.077Z" fill="white" fill-opacity="0.5"/>
<path d="M160.537 77.7355L160.548 84.4447L154.461 84.4361L154.458 86.7402L160.525 86.7713L160.536 93.4804L162.619 93.4833L162.629 86.7517L168.696 86.7828L168.719 84.4561L162.632 84.4475L162.641 77.7159L160.537 77.7355Z" fill="white" fill-opacity="0.5"/>
<path d="M138.59 53.3962L138.601 60.1052L132.513 60.0967L132.51 62.4008L138.577 62.4319L138.588 69.141L140.672 69.144L140.681 62.4123L146.748 62.4434L146.772 60.1167L140.684 60.1082L140.694 53.3765L138.59 53.3962Z" fill="white" fill-opacity="0.5"/>
<path d="M116.64 29.0546L116.631 35.7411L110.564 35.7552L110.56 38.0593L116.627 38.0904L116.618 44.7769L118.722 44.8024L118.731 38.0708L124.798 38.1019L124.801 35.7526L118.734 35.7666L118.744 29.035L116.64 29.0546Z" fill="white" fill-opacity="0.5"/>
<path d="M94.6705 4.69121L94.6815 11.4003L88.5942 11.3918L88.6113 13.7185L94.6578 13.727L94.6688 20.4361L96.7524 20.439L96.7822 13.7299L102.829 13.7385L102.852 11.4118L96.7651 11.4032L96.7949 4.69417L94.6705 4.69121Z" fill="white" fill-opacity="0.5"/>
<path d="M182.364 53.6668L182.355 60.3985L176.288 60.3674L176.264 62.6941L182.351 62.7026L182.342 69.4343L184.446 69.4146L184.435 62.7055L190.522 62.7141L190.526 60.41L184.459 60.3788L184.448 53.6698L182.364 53.6668Z" fill="white" fill-opacity="0.5"/>
<path d="M160.416 29.3275L160.407 36.0591L154.34 36.028L154.316 38.3546L160.404 38.3633L160.394 45.0949L162.498 45.0752L162.487 38.3661L168.575 38.3747L168.578 36.0706L162.511 36.0395L162.5 29.3303L160.416 29.3275Z" fill="white" fill-opacity="0.5"/>
<path d="M138.467 4.98581L138.437 11.6948L132.39 11.6863L132.367 14.013L138.454 14.0216L138.424 20.7306L140.549 20.7336L140.538 14.0245L146.625 14.0331L146.608 11.7063L140.561 11.6978L140.55 4.98874L138.467 4.98581Z" fill="white" fill-opacity="0.5"/>
<path d="M182.243 5.25812L182.234 11.9898L176.146 11.9812L176.143 14.2853L182.231 14.2939L182.221 21.0255L184.305 21.0285L184.314 14.2968L190.401 14.3054L190.405 12.0012L184.317 11.9927L184.327 5.26101L182.243 5.25812Z" fill="white" fill-opacity="0.5"/>
</svg>
