<svg width="145" height="140" viewBox="0 0 145 140" fill="none" xmlns="http://www.w3.org/2000/svg">
<g clip-path="url(#clip0_4035_2829)">
<path d="M137.117 47.6569C134.918 51.0801 132.708 54.4922 130.509 57.9154C130.333 58.1946 130.139 58.3454 129.756 58.3454C125.353 58.3677 120.95 58.4068 116.547 58.4459C116.468 58.4459 116.389 58.4292 116.31 58.418C116.395 57.8931 121.885 49.1982 123.355 47.2716C127.989 47.2325 132.604 47.1934 137.311 47.1543C137.232 47.361 137.202 47.5229 137.117 47.6569ZM114.998 58.4124C110.734 58.3677 106.477 58.3231 102.214 58.284C101.789 58.2784 101.527 58.1667 101.309 57.8205C99.1284 54.3917 96.9238 50.9796 94.7374 47.5564C94.6706 47.4503 94.6159 47.3386 94.5188 47.1488C94.7617 47.1208 94.9561 47.0762 95.1504 47.0762C99.4139 47.1152 103.671 47.1655 107.935 47.2046C108.311 47.2102 108.585 47.2716 108.797 47.6011C111.032 51.1137 113.279 54.615 115.526 58.122C115.557 58.1611 115.557 58.217 115.611 58.3733C115.356 58.3957 115.18 58.4124 114.998 58.4124ZM122.669 47.0147C122.669 47.2549 122.577 47.495 122.407 47.7686C120.385 50.9964 118.405 54.2465 116.407 57.491C116.267 57.7255 116.121 57.9489 115.921 58.2616C115.745 58.0438 115.599 57.9042 115.502 57.7479C113.449 54.3917 111.409 51.0299 109.338 47.6849C109.192 47.4447 109.113 47.2381 109.113 47.0203C109.113 46.8249 109.18 46.6238 109.319 46.4004C111.39 43.0833 113.425 39.7495 115.472 36.4212C115.587 36.2313 115.721 36.0526 115.939 35.7455C116.334 36.3765 116.656 36.8847 116.972 37.3985C118.788 40.3693 120.579 43.3458 122.426 46.2999C122.59 46.5512 122.669 46.7858 122.669 47.0147ZM94.4641 23.7447C94.6281 23.4543 94.7374 23.2365 94.871 23.0355C96.9785 19.763 99.098 16.5018 101.181 13.2182C101.473 12.7547 101.795 12.5815 102.384 12.5815C106.52 12.5704 110.656 12.5257 114.785 12.4922C115.047 12.4922 115.302 12.5089 115.654 12.5257C115.49 12.8161 115.381 13.0339 115.247 13.2349C113.14 16.5073 111.02 19.7686 108.937 23.0522C108.645 23.5157 108.323 23.6888 107.74 23.6888C103.604 23.7 99.4685 23.7447 95.3387 23.7782C95.0775 23.7782 94.8224 23.7559 94.4641 23.7447ZM93.2859 23.7447C89.0224 23.7056 84.759 23.6553 80.5016 23.6162C80.1251 23.6107 79.8518 23.5436 79.6392 23.2142C77.4164 19.7239 75.1753 16.2449 72.9403 12.7602C72.8978 12.6988 72.8796 12.6262 72.8067 12.4531C73.0983 12.4363 73.3047 12.414 73.5112 12.4196C77.72 12.4643 81.9288 12.5145 86.1376 12.548C86.5749 12.5536 86.8786 12.6206 87.1276 13.0115C89.3018 16.4403 91.5064 19.858 93.6989 23.2756C93.7657 23.3817 93.8143 23.4934 93.9175 23.6833C93.6746 23.7056 93.4802 23.7447 93.2859 23.7447ZM100.859 12.8273C98.7276 16.2561 96.6262 19.696 94.5066 23.1304C94.4277 23.2588 94.3305 23.3705 94.1908 23.5604C94.039 23.3761 93.8932 23.2365 93.7961 23.0801C91.7311 19.7072 89.6723 16.3231 87.5952 12.9501C87.4616 12.7323 87.3826 12.5369 87.3826 12.3414C87.3826 12.1739 87.4373 12.0008 87.5588 11.7997C89.6723 8.41561 91.7493 5.01473 93.8386 1.62502C93.9297 1.47983 94.039 1.3458 94.2394 1.07217C94.4398 1.39606 94.5734 1.60268 94.701 1.8093C96.7295 5.12083 98.7458 8.43794 100.78 11.7495C100.914 11.9673 101.011 12.1627 101.011 12.3749C101.011 12.5089 100.969 12.6597 100.859 12.8273ZM57.3745 12.8663C55.3035 16.1835 53.2689 19.5173 51.2222 22.8456C51.1068 23.0355 50.9672 23.2142 50.791 23.4655C50.6331 23.2588 50.4934 23.1192 50.3963 22.9629C48.3253 19.5843 46.2725 16.2058 44.1893 12.8328C44.0557 12.6206 43.9889 12.4308 43.9889 12.2409C43.9889 12.0678 44.0497 11.8891 44.1772 11.6825C46.2725 8.32067 48.3313 4.94213 50.4084 1.57476C50.5117 1.40723 50.6392 1.25087 50.8457 0.960481C51.0522 1.28996 51.1858 1.50216 51.3194 1.70879C53.3297 5.00356 55.3278 8.29833 57.3563 11.5819C57.502 11.8221 57.587 12.0287 57.587 12.2465C57.581 12.4419 57.5142 12.6374 57.3745 12.8663ZM42.7135 12.4699C43.1447 12.4754 43.4545 12.5369 43.7035 12.9278C45.8838 16.3566 48.0823 19.7798 50.2809 23.1974C50.3477 23.2979 50.3902 23.4152 50.4874 23.5939C50.2384 23.6218 50.0379 23.6665 49.8436 23.6665C45.6044 23.6274 41.3653 23.566 37.1261 23.5436C36.5917 23.5381 36.3123 23.3594 36.0511 22.9517C33.9133 19.5843 31.7512 16.2281 29.6013 12.8719C29.5223 12.7491 29.4677 12.6095 29.3462 12.3693C29.6681 12.3526 29.8807 12.3358 30.0871 12.3358C34.2838 12.3861 38.4987 12.4308 42.7135 12.4699ZM58.2551 12.5257C62.8526 12.4866 67.4744 12.4475 72.2844 12.4084C69.843 16.2058 67.4865 19.8636 65.0997 23.5604C60.4658 23.5995 55.8319 23.6386 51.1858 23.6777C51.3133 23.1081 57.2712 13.7263 58.2551 12.5257ZM65.7799 23.4208C67.942 19.9306 70.092 16.4292 72.2419 12.9334C72.2905 12.8552 72.3695 12.7826 72.5213 12.6039C72.7096 12.9054 72.8492 13.1121 72.9768 13.3298C74.987 16.619 76.9852 19.9138 79.0197 23.1918C79.1715 23.4375 79.2505 23.6497 79.2505 23.862C79.2505 24.0742 79.1715 24.292 79.0197 24.5377C76.9609 27.8269 74.9445 31.1384 72.91 34.4443C72.7946 34.6342 72.6549 34.8129 72.4788 35.0698C72.333 34.8855 72.2176 34.7682 72.1326 34.6342C70.0312 31.1942 67.9359 27.7543 65.8285 24.3143C65.7192 24.1412 65.6524 23.9848 65.6524 23.8173C65.6585 23.6888 65.6949 23.5604 65.7799 23.4208ZM64.5228 24.0407C64.9418 24.0462 65.209 24.1468 65.4337 24.4986C67.6201 27.9274 69.8247 31.345 72.0172 34.7682C72.084 34.8743 72.1265 34.986 72.2419 35.2094C71.8897 35.2261 71.6528 35.2429 71.4159 35.2429C67.2557 35.1982 63.1016 35.148 58.9414 35.12C58.4069 35.1145 58.0668 34.9916 57.7814 34.5393C55.6618 31.1886 53.5119 27.8548 51.3741 24.5209C51.283 24.3757 51.204 24.2194 51.0825 24.0016C51.3012 23.9681 51.4712 23.9122 51.6413 23.9122C55.9351 23.9513 60.2289 24.0016 64.5228 24.0407ZM73.08 34.6621C75.2361 31.3115 77.4042 27.9553 79.5602 24.6047C79.7607 24.2864 79.9611 24.0853 80.4226 24.0853C84.7468 24.0686 89.0589 24.0239 93.377 23.9848C93.5288 23.9848 93.6807 24.0127 93.96 24.0351C93.7657 24.359 93.6381 24.5768 93.5045 24.789C91.4153 28.0335 89.3079 31.278 87.2369 34.5337C86.9454 34.9916 86.6296 35.1815 86.0404 35.1815C81.9045 35.1926 77.7808 35.2373 73.6448 35.2708C73.3898 35.2708 73.1286 35.2541 72.7764 35.2429C72.9039 34.9972 72.9768 34.8185 73.08 34.6621ZM95.2051 24.0183C99.4199 24.063 103.629 24.1133 107.844 24.1412C108.323 24.1468 108.621 24.2752 108.87 24.6661C111.014 28.0335 113.176 31.3897 115.326 34.7459C115.417 34.8911 115.496 35.0474 115.623 35.2876C115.332 35.3099 115.107 35.3434 114.889 35.3434C110.674 35.2987 106.465 35.2485 102.25 35.2206C101.716 35.215 101.436 35.0363 101.175 34.6286C99.0373 31.2612 96.8752 27.905 94.7253 24.5488C94.6463 24.426 94.5917 24.2864 94.4702 24.0462C94.7921 24.0351 94.9986 24.0183 95.2051 24.0183ZM87.5588 34.919C89.6905 31.4958 91.7919 28.0558 93.9054 24.627C93.9783 24.5042 94.0754 24.3925 94.2576 24.1523C94.4459 24.4539 94.5674 24.6438 94.6828 24.8336C96.7173 28.1675 98.7458 31.5069 100.799 34.8241C100.932 35.0419 101.005 35.2373 101.005 35.4272C101.005 35.617 100.938 35.8125 100.799 36.0359C98.7336 39.353 96.6991 42.6868 94.6524 46.0095C94.537 46.1994 94.4034 46.3725 94.2212 46.6294C94.0511 46.4004 93.9114 46.2385 93.7961 46.0598C91.7311 42.6868 89.6784 39.3083 87.6074 35.9354C87.4859 35.7399 87.413 35.5612 87.413 35.3769C87.413 35.2373 87.4555 35.0921 87.5588 34.919ZM86.2591 35.6394C86.6599 35.645 86.8907 35.7846 87.0911 36.0973C89.2714 39.5205 91.47 42.9381 93.6564 46.3614C93.7353 46.4842 93.7839 46.6127 93.875 46.8081C93.5653 46.8249 93.3345 46.8472 93.1037 46.8416C88.9192 46.8025 84.7347 46.7523 80.5563 46.7132C80.1251 46.7076 79.8153 46.6517 79.5663 46.2553C77.3799 42.8041 75.1632 39.3697 72.9525 35.9298C72.8978 35.846 72.8614 35.7566 72.7885 35.6059C72.9829 35.5724 73.1529 35.5109 73.3169 35.5165C77.6289 35.55 81.947 35.6003 86.2591 35.6394ZM94.4459 46.8193C96.8509 43.0387 99.2317 39.3865 101.606 35.6952C106.252 35.6561 110.886 35.617 115.678 35.5779C115.447 35.9521 115.326 36.1699 115.186 36.3765C113.109 39.6099 111.014 42.832 108.955 46.071C108.651 46.5456 108.336 46.7578 107.704 46.7578C103.623 46.7578 99.5414 46.8081 95.4662 46.8416C95.1808 46.8416 94.8953 46.8304 94.4459 46.8193ZM137.427 46.8751C137.026 46.8919 136.771 46.9142 136.516 46.9142C132.38 46.8751 128.25 46.8137 124.12 46.7969C123.488 46.7969 123.16 46.5959 122.857 46.1101C120.78 42.8265 118.666 39.554 116.571 36.2816C116.449 36.0973 116.358 35.9018 116.194 35.6059C116.583 35.5947 116.82 35.5835 117.063 35.5835C121.193 35.6282 125.323 35.6785 129.458 35.7064C130.029 35.712 130.376 35.8572 130.673 36.3318C132.756 39.6154 134.864 42.8823 136.971 46.1547C137.105 46.3614 137.232 46.568 137.427 46.8751ZM137.991 24.8113C140.069 28.201 142.146 31.6019 144.229 34.9972C144.35 35.1926 144.423 35.3657 144.423 35.55C144.423 35.6952 144.374 35.846 144.271 36.0135C142.146 39.4367 140.044 42.8767 137.931 46.3055C137.852 46.4284 137.755 46.5401 137.578 46.7802C137.39 46.4842 137.275 46.2999 137.153 46.1045C135.107 42.7483 133.06 39.3921 131.007 36.0415C130.886 35.846 130.807 35.6673 130.807 35.483C130.807 35.3434 130.849 35.1926 130.952 35.0251C133.078 31.6019 135.18 28.1619 137.293 24.7275C137.372 24.6047 137.463 24.493 137.609 24.3031C137.761 24.5097 137.894 24.6493 137.991 24.8113ZM137.402 24.1077C134.973 27.8771 132.629 31.5181 130.23 35.2317C125.608 35.2708 120.962 35.3099 116.182 35.349C116.364 35.0251 116.474 34.8073 116.607 34.6063C118.709 31.3394 120.828 28.0782 122.911 24.8001C123.209 24.331 123.537 24.1803 124.114 24.1747C128.213 24.1635 132.319 24.1188 136.425 24.0853C136.692 24.0853 136.953 24.1021 137.402 24.1077ZM122.529 24.5153C120.446 27.8548 118.399 31.211 116.334 34.5616C116.231 34.7291 116.109 34.8911 115.951 35.12C115.812 34.9637 115.678 34.8576 115.593 34.7235C113.486 31.2836 111.384 27.838 109.271 24.3981C109.161 24.2249 109.095 24.0686 109.095 23.901C109.095 23.7782 109.131 23.6497 109.216 23.5101C111.396 19.992 113.559 16.4738 115.727 12.9501C115.769 12.8887 115.83 12.8384 115.994 12.6597C116.17 12.9445 116.304 13.1511 116.431 13.3578C118.454 16.6749 120.47 19.992 122.505 23.2979C122.644 23.5213 122.717 23.7168 122.717 23.9178C122.723 24.1077 122.662 24.2975 122.529 24.5153ZM136.54 23.8508C132.355 23.8061 128.177 23.7559 123.992 23.7279C123.519 23.7223 123.209 23.6162 122.954 23.2142C120.816 19.8524 118.654 16.5018 116.498 13.1456C116.395 12.9836 116.316 12.8105 116.188 12.5704C116.498 12.5536 116.729 12.5257 116.96 12.5257C121.114 12.5704 125.268 12.6262 129.428 12.643C130.011 12.6486 130.339 12.8217 130.631 13.2852C132.72 16.5911 134.839 19.8747 136.953 23.1695C137.068 23.3538 137.165 23.5492 137.311 23.8061C137.008 23.8229 136.777 23.8508 136.54 23.8508ZM138.028 1.71995C140.105 5.10966 142.176 8.51054 144.259 11.9058C144.381 12.1013 144.453 12.2744 144.453 12.4587C144.453 12.6039 144.405 12.7547 144.302 12.9222C142.176 16.3454 140.069 19.7854 137.961 23.2198C137.882 23.3426 137.785 23.4543 137.609 23.6888C137.433 23.4096 137.323 23.2421 137.226 23.069C135.161 19.696 133.109 16.3175 131.038 12.9445C130.916 12.7491 130.843 12.576 130.843 12.3917C130.843 12.2465 130.892 12.1013 130.995 11.9282C133.121 8.49937 135.222 5.06499 137.336 1.6306C137.408 1.50775 137.512 1.39606 137.651 1.21178C137.803 1.41281 137.925 1.55801 138.028 1.71995ZM116.626 11.4758C118.721 8.23132 120.822 4.98681 122.893 1.73112C123.185 1.2732 123.501 1.08892 124.09 1.08334C128.22 1.07217 132.349 1.02749 136.479 0.993986C136.74 0.988402 136.995 1.01074 137.348 1.02749C137.22 1.2732 137.147 1.44632 137.044 1.60827C134.888 4.96447 132.72 8.3095 130.564 11.6657C130.363 11.9784 130.163 12.1851 129.701 12.1851C125.383 12.2018 121.065 12.2465 116.747 12.28C116.595 12.28 116.437 12.2576 116.164 12.2297C116.364 11.9002 116.492 11.688 116.626 11.4758ZM108.014 1.04983C108.36 1.04983 108.615 1.12801 108.809 1.42957C111.038 4.91979 113.279 8.40444 115.514 11.8891C115.557 11.9505 115.569 12.0231 115.648 12.2186C115.296 12.2297 115.034 12.2465 114.779 12.2409C110.649 12.2018 106.514 12.146 102.384 12.1236C101.801 12.118 101.467 11.9505 101.175 11.487C99.0859 8.18665 96.9602 4.89187 94.8528 1.5971C94.7435 1.42957 94.6402 1.26204 94.4884 1.02191C94.7253 0.977234 94.8892 0.915806 95.0593 0.92139C99.3774 0.960481 103.696 1.01074 108.014 1.04983ZM79.6088 1.47424C79.785 1.20061 79.955 1.02191 80.3437 1.01632C84.7711 0.993987 89.1986 0.954896 93.6321 0.926974C93.6807 0.926974 93.7353 0.949312 93.8993 0.993987C92.7818 2.88709 91.5489 4.69084 90.3768 6.52809C89.1986 8.37652 87.9961 10.2194 86.7996 12.0734C82.1475 12.1125 77.5378 12.1515 72.831 12.1906C72.9221 11.9673 72.9525 11.8053 73.0375 11.6713C75.23 8.26483 77.4224 4.86954 79.6088 1.47424ZM64.4195 0.97165C64.8629 0.977234 65.1604 1.06658 65.4034 1.44632C67.5776 4.87512 69.7762 8.29275 71.9686 11.7104C72.0354 11.8165 72.084 11.9282 72.1933 12.1404C71.8654 12.1515 71.6589 12.1739 71.4524 12.1683C67.2436 12.1236 63.0348 12.0734 58.826 12.0399C58.3826 12.0343 58.0972 11.9393 57.8543 11.5596C55.6922 8.15314 53.4997 4.75785 51.3194 1.36256C51.2404 1.23411 51.1797 1.10009 51.0704 0.899053C51.3194 0.871131 51.5198 0.832041 51.7202 0.837625C55.9533 0.887884 60.1864 0.938144 64.4195 0.97165ZM36.4641 0.926975C41.1102 0.887885 45.7502 0.848794 50.4631 0.809703C50.3963 0.999572 50.3841 1.13918 50.3112 1.25087C48.1006 4.69084 45.8777 8.1308 43.667 11.5708C43.4848 11.85 43.2905 11.9952 42.9079 12.0008C38.5047 12.0231 34.1077 12.0622 29.7045 12.0957C29.6256 12.0957 29.5466 12.0789 29.2976 12.0454C31.7148 8.29834 34.0773 4.62941 36.4641 0.926975ZM7.68274 0.837626C7.85279 0.798535 7.99247 0.737107 8.13216 0.737107C12.4746 0.776198 16.817 0.826457 21.1594 0.865547C21.5177 0.871132 21.7546 0.97165 21.9429 1.26204C24.1778 4.7746 26.4249 8.276 28.6721 11.783C28.6964 11.8277 28.7024 11.8779 28.7571 12.0343C28.4838 12.0454 28.2773 12.0678 28.0708 12.0678C23.8377 12.0231 19.5985 11.9784 15.3594 11.9449C14.9403 11.9393 14.6731 11.8277 14.4545 11.4814C12.2742 8.05821 10.0756 4.64058 7.87708 1.22295C7.82242 1.11684 7.77384 0.999572 7.68274 0.837626ZM6.85677 22.7227C4.82221 19.3889 2.79373 16.055 0.740958 12.7267C0.613419 12.5201 0.546615 12.3358 0.546615 12.1571C0.546615 11.9728 0.613425 11.7941 0.747037 11.5819C2.82411 8.24249 4.87081 4.89187 6.92966 1.54126C7.04505 1.35697 7.18473 1.18944 7.36085 0.949313C7.53698 1.20061 7.67059 1.37372 7.78598 1.56359C9.82661 4.89187 11.8551 8.23132 13.9079 11.5484C14.0476 11.7774 14.1204 11.9784 14.1204 12.1795C14.1204 12.3861 14.0476 12.5927 13.9018 12.8273C11.8369 16.1444 9.80232 19.4726 7.75562 22.8009C7.64023 22.9852 7.50054 23.1527 7.30012 23.4264C7.11792 23.1304 6.98431 22.9294 6.85677 22.7227ZM7.69489 23.5716C7.74954 23.404 7.76169 23.2644 7.83457 23.1527C10.0453 19.7128 12.2681 16.2784 14.4727 12.8384C14.6549 12.5592 14.8492 12.414 15.2319 12.4084C19.6289 12.3861 24.026 12.347 28.4291 12.3135C28.5081 12.3135 28.587 12.3358 28.7935 12.3638C28.6478 12.6262 28.5506 12.8217 28.4352 13.006C26.3035 16.3175 24.1596 19.6234 22.04 22.9405C21.7971 23.3203 21.5481 23.4934 21.0379 23.499C16.7988 23.5157 12.5596 23.5604 8.32652 23.5939C8.13217 23.5995 7.94996 23.5827 7.69489 23.5716ZM28.6599 34.3885C26.6011 31.0155 24.5422 27.637 22.4712 24.264C22.3498 24.0686 22.2769 23.8899 22.2769 23.7056C22.2769 23.566 22.3194 23.4152 22.4287 23.2477C24.5604 19.8245 26.6618 16.3845 28.7692 12.9501C28.8482 12.8273 28.9454 12.7156 29.0851 12.5257C29.2551 12.7491 29.3948 12.911 29.5041 13.0953C31.569 16.4683 33.6279 19.8468 35.6989 23.2198C35.8203 23.4152 35.8932 23.5939 35.8932 23.7782C35.8932 23.9234 35.8446 24.0686 35.7414 24.2361C33.6157 27.6649 31.5083 31.0993 29.4009 34.5337C29.3219 34.6565 29.2247 34.7682 29.0486 35.0083C28.8725 34.7291 28.7632 34.5616 28.6599 34.3885ZM29.6559 34.5951C31.8302 31.2166 34.0105 27.8436 36.1787 24.4651C36.3791 24.1523 36.5916 24.0127 36.9986 24.0071C41.347 23.9848 45.6955 23.9401 50.044 23.9066C50.1473 23.9066 50.2566 23.9234 50.4934 23.9457C49.3638 25.8779 48.1248 27.6761 46.9588 29.5077C45.7805 31.3562 44.5841 33.199 43.3816 35.053C38.7355 35.0921 34.1198 35.1312 29.3948 35.1703C29.5041 34.9302 29.5588 34.7515 29.6559 34.5951ZM44.1529 34.7794C46.2482 31.4176 48.307 28.0391 50.3841 24.6717C50.4874 24.5042 50.6149 24.3534 50.8092 24.0742C51.1979 24.6996 51.5259 25.2078 51.8356 25.716C53.6515 28.6868 55.4492 31.6633 57.2895 34.6174C57.4534 34.8855 57.5445 35.1144 57.5445 35.349C57.5445 35.5612 57.4716 35.779 57.3137 36.0303C55.261 39.3027 53.2568 42.5919 51.2344 45.8755C51.1068 46.0877 50.9611 46.2888 50.7849 46.5568C50.6331 46.3781 50.4995 46.2608 50.4145 46.1212C48.3313 42.7259 46.2603 39.3195 44.1711 35.9298C44.0375 35.7176 43.9707 35.5277 43.9707 35.3378C43.9646 35.1591 44.0254 34.9804 44.1529 34.7794ZM49.7707 46.7355C45.5619 46.6908 41.3531 46.6406 37.1443 46.6071C36.707 46.6015 36.4095 46.5177 36.1665 46.1324C33.9862 42.7036 31.7877 39.2916 29.5952 35.8683C29.5284 35.7622 29.4798 35.6505 29.3948 35.483C29.6013 35.4495 29.7774 35.3993 29.9475 35.3993C34.2352 35.4383 38.529 35.4886 42.8168 35.5277C43.1933 35.5333 43.4666 35.6059 43.6731 35.9354C45.8959 39.4256 48.1309 42.9046 50.3659 46.3893C50.4084 46.4507 50.4206 46.5233 50.4934 46.6964C50.1837 46.7188 49.9772 46.7355 49.7707 46.7355ZM51.0036 46.7132C53.4208 42.9605 55.7833 39.2971 58.1701 35.5891C62.8162 35.55 67.4501 35.5109 72.1812 35.4718C72.1022 35.6841 72.0658 35.846 71.9808 35.9744C69.7822 39.3977 67.5715 42.8097 65.373 46.2329C65.1969 46.5121 65.0086 46.6629 64.6199 46.6685C60.2168 46.6908 55.8136 46.7299 51.4105 46.7634C51.3376 46.769 51.2587 46.7467 51.0036 46.7132ZM65.8892 46.3502C67.9845 42.9884 70.0434 39.6099 72.1204 36.2425C72.2237 36.075 72.3452 35.9242 72.5577 35.6282C72.7642 35.9577 72.8978 36.1699 73.0254 36.3765C75.0356 39.6713 77.0337 42.9661 79.0622 46.2497C79.2141 46.4898 79.293 46.6964 79.293 46.9142C79.293 47.1097 79.2262 47.3051 79.0865 47.5285C77.0155 50.8456 74.981 54.1795 72.9343 57.5133C72.8189 57.7032 72.6853 57.8819 72.5091 58.1332C72.3452 57.9322 72.2115 57.7925 72.1144 57.6306C70.0495 54.2521 67.9906 50.8735 65.9075 47.5062C65.7738 47.2884 65.701 47.1041 65.701 46.9142C65.701 46.7299 65.7617 46.5512 65.8892 46.3502ZM58.747 58.217C58.2308 58.2114 57.9879 57.9936 57.751 57.625C55.844 54.6206 53.9248 51.6218 52.0057 48.6174C51.6959 48.1316 51.3923 47.6402 51.0097 47.0259C51.4105 47.0147 51.6716 47.0036 51.9328 47.0036C56.093 47.0482 60.2471 47.0985 64.4074 47.1264C64.8871 47.132 65.1847 47.2549 65.4398 47.6513C67.5776 51.0187 69.7397 54.3749 71.8957 57.7311C71.9929 57.8763 72.0658 58.0327 72.1812 58.2449C71.9686 58.2784 71.7925 58.3342 71.6224 58.3342C67.3347 58.3007 63.0409 58.2449 58.747 58.217ZM79.955 47.1878C84.5464 47.1488 89.1743 47.1097 93.9904 47.0706C91.5307 50.8847 89.1803 54.5313 86.7996 58.2225C82.1718 58.2616 77.5378 58.3007 72.8918 58.3398C73.0132 57.787 78.9043 48.5002 79.955 47.1878ZM93.705 69.0674C91.6704 65.7335 89.648 62.3997 87.5891 59.077C87.4616 58.8647 87.3948 58.686 87.3948 58.5018C87.3948 58.3175 87.4616 58.1388 87.5891 57.9266C89.6662 54.5871 91.7129 51.2365 93.7718 47.8859C93.8872 47.7016 94.0268 47.5341 94.203 47.2939C94.3791 47.5397 94.5127 47.7184 94.6281 47.9026C96.6687 51.2309 98.6972 54.5704 100.75 57.8875C100.896 58.1164 100.963 58.3231 100.963 58.5241C100.963 58.7307 100.89 58.9373 100.744 59.1663C98.679 62.4834 96.6444 65.8173 94.5977 69.14C94.4823 69.3243 94.3426 69.4974 94.1422 69.7654C93.96 69.475 93.8325 69.2684 93.705 69.0674ZM137.299 69.3913C135.192 65.9513 133.09 62.5058 130.977 59.0714C130.867 58.8983 130.801 58.7419 130.801 58.5744C130.801 58.4515 130.837 58.3231 130.928 58.1835C133.102 54.6653 135.271 51.1472 137.439 47.6234C137.475 47.562 137.536 47.5117 137.706 47.333C137.888 47.6178 138.016 47.8245 138.143 48.0311C140.166 51.3482 142.182 54.6653 144.217 57.9712C144.356 58.1946 144.429 58.3957 144.429 58.5967C144.429 58.781 144.362 58.9709 144.229 59.1886C142.146 62.5281 140.099 65.8843 138.04 69.2349C137.937 69.408 137.815 69.5644 137.657 69.7933C137.518 69.6314 137.384 69.5253 137.299 69.3913ZM138.028 139.341C138.095 139.252 138.149 139.185 138.192 139.123C138.277 139.017 138.344 138.928 138.404 138.827L140.202 135.912C141.69 133.494 143.227 130.992 144.751 128.535C144.824 128.418 144.879 128.295 144.921 128.167L144.927 128.15L144.933 128.133C144.951 128.044 144.964 127.954 144.964 127.865C144.964 127.765 144.951 127.664 144.927 127.564L144.921 127.552L144.915 127.53C144.903 127.48 144.872 127.413 144.848 127.34C144.806 127.251 144.769 127.173 144.715 127.089C143.433 125.006 142.158 122.923 140.882 120.84C140.081 119.528 139.279 118.215 138.471 116.903C138.392 116.769 138.295 116.657 138.198 116.534C138.155 116.479 138.107 116.423 138.058 116.356L138.034 116.322L138.137 116.138C138.168 116.093 138.198 116.06 138.222 116.026C138.307 115.92 138.368 115.836 138.435 115.736L140.111 113.005C141.623 110.542 143.184 108.002 144.733 105.505L144.745 105.489L144.757 105.472C144.885 105.226 144.945 104.992 144.945 104.757C144.945 104.511 144.879 104.271 144.745 104.014L144.739 103.998L144.733 103.986C143.961 102.736 143.196 101.479 142.431 100.228L141.805 99.2062L141.599 98.8655L141.32 98.4076C140.567 97.1791 139.82 95.9505 139.066 94.7219L138.502 93.8173C138.417 93.6833 138.325 93.5604 138.222 93.4375C138.18 93.3873 138.137 93.3314 138.089 93.27L138.028 93.1918L138.076 93.1304C138.119 93.0746 138.155 93.0355 138.186 92.9964C138.247 92.9182 138.301 92.8512 138.35 92.7674L140.056 89.9976L141.739 87.2668L141.921 87.0099L142.692 85.7479C143.385 84.6198 144.083 83.4918 144.775 82.3638C144.915 82.1404 144.982 81.9226 144.982 81.6936C144.982 81.3753 144.842 81.1073 144.721 80.9118C143.5 78.9182 142.279 76.9246 141.058 74.9254C140.202 73.5237 139.346 72.122 138.483 70.7148C138.404 70.5807 138.313 70.4691 138.21 70.335C138.174 70.2848 138.131 70.2345 138.089 70.1787L138.38 69.7207L138.35 69.7207C138.411 69.6314 138.465 69.5476 138.52 69.4639C139.054 68.5983 139.583 67.7271 140.117 66.8616C141.617 64.4212 143.166 61.8971 144.702 59.4232C144.885 59.1272 144.976 58.8536 144.976 58.5799C144.976 58.3007 144.885 58.0215 144.69 57.7088C143.136 55.1902 141.569 52.6214 140.056 50.1364L138.623 47.7798C138.532 47.6234 138.435 47.4726 138.313 47.2828L138.113 46.9589C138.143 46.9198 138.168 46.8863 138.192 46.8528C138.277 46.7467 138.344 46.6573 138.404 46.5568L140.196 43.6474C141.684 41.2237 143.221 38.7219 144.745 36.2648C144.897 36.0191 144.97 35.7902 144.97 35.55C144.97 35.2205 144.83 34.9469 144.709 34.7459C143.433 32.6685 142.158 30.5855 140.888 28.5081C140.081 27.1958 139.273 25.8779 138.471 24.56C138.392 24.426 138.295 24.3143 138.198 24.1914C138.161 24.1468 138.119 24.0965 138.083 24.0462L138.356 23.6218L138.332 23.6218C138.368 23.5716 138.404 23.5213 138.441 23.4655L140.123 20.7291C141.648 18.2497 143.221 15.6864 144.781 13.1735C144.933 12.9278 145.006 12.6932 145.006 12.4587C145.006 12.1292 144.866 11.8556 144.739 11.6601C143.403 9.4878 142.073 7.3099 140.743 5.132C139.996 3.90902 139.249 2.68605 138.502 1.46866C138.417 1.33463 138.325 1.21178 138.222 1.08892C138.18 1.03866 138.137 0.982818 138.089 0.92139L138.04 0.859962L138.198 0.56399L137.803 0.547237L137.633 0.329447L137.481 0.536069L137.372 0.530484L137.087 0.519315C136.862 0.508147 136.667 0.496978 136.473 0.502562C135.21 0.502562 133.941 0.513731 132.671 0.5249C129.859 0.547237 126.95 0.575159 124.09 0.580744C123.312 0.586328 122.814 0.854377 122.42 1.47983C120.907 3.85876 119.346 6.27121 117.84 8.60547C117.275 9.47664 116.717 10.3478 116.152 11.219C116.079 11.3251 116.012 11.4367 115.939 11.5596L114.026 8.58314C112.447 6.11485 110.862 3.64656 109.283 1.17269C108.925 0.61425 108.39 0.547238 108.02 0.547238C105.924 0.5249 103.823 0.502563 101.728 0.480225C99.505 0.457888 97.2882 0.43555 95.0654 0.413213C94.8832 0.413213 94.7253 0.446719 94.5734 0.48581C94.5552 0.491394 94.537 0.496978 94.5127 0.496978L94.2698 0.111657L93.9965 0.491394C93.96 0.480225 93.9357 0.474641 93.9114 0.469057C93.8325 0.446719 93.7414 0.418797 93.6199 0.418797L90.2492 0.446719C86.9454 0.469057 83.6476 0.496979 80.3437 0.513732C79.5845 0.519316 79.2809 0.988403 79.1351 1.21736C78.0298 2.93735 76.9184 4.65733 75.813 6.37731C74.732 8.05262 73.6509 9.72793 72.5699 11.4088C72.5395 11.4535 72.5152 11.5038 72.4909 11.5484C72.4727 11.5205 72.4545 11.487 72.4363 11.4591L70.4928 8.42677C68.9745 6.059 67.4015 3.60747 65.871 1.19502C65.4641 0.558407 64.9114 0.474641 64.4195 0.469057C61.7776 0.44672 59.1297 0.418798 56.4878 0.390876C54.8966 0.374123 53.3054 0.35737 51.7202 0.340617C51.5441 0.335032 51.3741 0.362954 51.2162 0.379707C51.204 0.379707 51.1919 0.385292 51.1797 0.385292L51.2101 0.295942L51.0643 0.295942L50.876 -2.93951e-05L50.6574 0.301526L50.4509 0.301526L42.1791 0.374123L36.458 0.424382L36.1483 0.429967L35.9904 0.675679C33.8404 4.00396 31.7148 7.30432 29.5527 10.6661L29.0729 11.4144L27.6578 9.20859C25.9087 6.47783 24.1657 3.75266 22.4226 1.02191C22.1493 0.591913 21.7364 0.379708 21.1715 0.374123C18.9426 0.351786 16.7137 0.329448 14.4848 0.307111C12.3713 0.284774 10.2578 0.262436 8.14432 0.245683C7.96819 0.245683 7.81029 0.290358 7.68882 0.323864C7.65845 0.335033 7.62809 0.340617 7.59772 0.351786L7.373 0.0334773L7.05719 0.474642L6.89929 0.508148L6.95395 0.614251L6.90536 0.675679C6.84462 0.759445 6.78996 0.837626 6.7353 0.904638C6.63813 1.03308 6.54096 1.16152 6.462 1.29554L4.78578 4.02071C3.30997 6.42199 1.79165 8.90145 0.279396 11.3306C0.0971972 11.6266 0.0121621 11.8891 0.0121621 12.1571C0.0121621 12.4252 0.0971913 12.6821 0.273317 12.978C1.8463 15.5301 3.43751 18.1324 4.96798 20.6454L6.38306 22.9685C6.46201 23.0969 6.54096 23.2253 6.63814 23.3817L6.8264 23.6777L7.00253 23.9625L6.97217 24.0574L7.06327 24.0574L7.26369 24.3813L7.4884 24.0742L7.67666 24.0797C7.76776 24.0853 7.84672 24.0853 7.92567 24.0909C8.07143 24.0965 8.19898 24.1021 8.32652 24.1021L11.2903 24.0742C14.4848 24.0462 17.7948 24.0183 21.044 24.0016C21.3112 24.0016 21.542 23.9625 21.7485 23.8787C21.7849 24.13 21.9003 24.3422 22.0036 24.5042C23.692 27.2572 25.3743 30.0159 27.0626 32.7746L28.1923 34.6286C28.2591 34.7403 28.332 34.852 28.4231 34.9972L28.581 35.2485L28.6903 35.4216L28.5688 35.6785L28.8482 35.6785L29.0122 35.9409L29.0183 35.9298C29.0547 35.9968 29.0851 36.0582 29.1276 36.1252L30.4455 38.1803C32.1703 40.8663 33.9558 43.6474 35.6989 46.3893C36.0997 47.0203 36.6585 47.1097 37.1504 47.1097C40.0048 47.132 42.8593 47.1599 45.7077 47.1934C47.062 47.2102 48.4164 47.2214 49.7707 47.2381C49.9286 47.2381 50.0865 47.2325 50.2626 47.2213C50.3355 47.2158 50.4145 47.2102 50.4995 47.2046L50.5481 47.2772L50.9125 47.858C51.1372 48.221 51.3437 48.5448 51.5502 48.8687L53.0624 51.2365C54.4775 53.4479 55.8865 55.6593 57.2955 57.8763C57.5567 58.2896 57.9393 58.714 58.7592 58.7196C61.6015 58.7363 64.4863 58.7698 67.28 58.7977C68.7316 58.8145 70.1831 58.8312 71.6346 58.8424C71.8107 58.8424 71.9686 58.8145 72.1083 58.781C72.1569 58.7698 72.2055 58.7586 72.2541 58.7531L72.2601 58.7642L72.2419 58.8536L72.3087 58.8536C72.3573 58.9429 72.4059 59.0267 72.4423 59.1049C72.5274 59.2612 72.5942 59.3953 72.6792 59.5293C73.2683 60.4507 73.8635 61.3777 74.4587 62.2991C75.9527 64.6278 77.5014 67.0403 79.0015 69.4192C79.3902 70.0279 79.8943 70.2904 80.6959 70.2904C83.6597 70.3071 86.6781 70.3406 89.5994 70.3741C90.7655 70.3853 91.9255 70.402 93.0915 70.4132C93.2373 70.4132 93.377 70.4076 93.541 70.3965C93.4742 70.4858 93.4195 70.5696 93.3648 70.6589C92.794 71.5859 92.2231 72.5185 91.6522 73.4455C90.1764 75.8468 88.652 78.3318 87.1397 80.7666C86.9636 81.0458 86.8786 81.3083 86.8786 81.5708C86.8786 81.8444 86.9636 82.1125 87.1579 82.414C88.0993 83.9385 89.0346 85.4687 89.9699 86.9988L90.1278 87.2557L90.1703 87.2557L91.9498 90.1595L93.292 92.3542C93.3709 92.4826 93.4499 92.6111 93.5531 92.7786L93.6017 92.8512L93.6199 92.8791L93.6442 92.907C93.6685 92.9405 93.6989 92.9685 93.7232 93.002L93.705 93.0075L93.7596 93.0969L93.5228 93.4711L93.9904 93.4655L94.0754 93.6051L94.4823 94.2584L96.0189 96.6485C97.5676 99.061 99.1648 101.552 100.726 104.009C101.108 104.617 101.631 104.891 102.402 104.897C105.305 104.913 108.251 104.941 111.099 104.975C112.332 104.986 113.565 105.003 114.791 105.014C114.949 105.014 115.113 105.008 115.296 105.003C115.289 105.014 115.283 105.025 115.277 105.036L113.856 107.343C112.162 110.096 110.467 112.849 108.767 115.596C108.718 115.674 108.694 115.736 108.682 115.781L108.67 115.803L108.651 115.853C108.615 115.982 108.597 116.104 108.597 116.227C108.597 116.317 108.609 116.4 108.621 116.49L108.627 116.518L108.639 116.546C108.682 116.674 108.742 116.797 108.809 116.914C110.018 118.88 111.22 120.846 112.423 122.811C113.328 124.286 114.227 125.765 115.132 127.24C115.217 127.379 115.326 127.485 115.423 127.586C115.46 127.625 115.502 127.664 115.545 127.714L115.557 127.731L115.326 128.139L115.921 128.133L116.018 128.239L116.097 128.128L116.237 128.128L130.017 128.01L130.108 128.01L130.193 127.982C130.23 127.971 130.26 127.96 130.291 127.949C130.291 127.971 130.297 127.999 130.297 128.022L130.303 128.049L130.309 128.077C130.357 128.245 130.424 128.407 130.527 128.574C132.076 131.093 133.619 133.617 135.155 136.141L136.674 138.632C136.795 138.827 136.916 139.017 137.099 139.313L137.536 140.006L138.028 139.341ZM137.305 93.002C137.026 93.0131 136.825 93.0355 136.625 93.0299C132.416 92.9852 128.207 92.9349 123.999 92.9014C123.561 92.8959 123.258 92.8121 123.015 92.4324C121.812 90.5393 120.598 88.6462 119.383 86.7531L119.34 86.7531C118.405 85.29 117.464 83.8324 116.528 82.3693C116.425 82.2074 116.346 82.0343 116.219 81.7941C116.522 81.7774 116.753 81.7495 116.984 81.7495C121.138 81.7941 125.298 81.85 129.452 81.8667C130.035 81.8667 130.363 82.051 130.655 82.5089C131.566 83.9497 132.489 85.3905 133.412 86.8257L133.406 86.8257C134.675 88.8025 135.939 90.785 137.208 92.7618C137.244 92.8177 137.263 92.8791 137.305 93.002ZM138.01 70.9716C140.093 74.3669 142.164 77.7734 144.247 81.1687C144.362 81.3586 144.435 81.5261 144.435 81.6992C144.435 81.8276 144.393 81.9673 144.302 82.118C143.348 83.6593 142.395 85.2062 141.447 86.7531L141.417 86.7531C140.232 88.6741 139.048 90.6007 137.864 92.5217C137.815 92.6055 137.742 92.6837 137.627 92.8344C137.481 92.6613 137.336 92.5385 137.244 92.3821C136.097 90.5058 134.949 88.6294 133.801 86.7531L133.758 86.7531C132.866 85.2955 131.979 83.8436 131.08 82.3917C130.916 82.1348 130.837 81.9058 130.837 81.6769C130.837 81.4535 130.916 81.2301 131.074 80.9732C133.121 77.7008 135.125 74.406 137.147 71.1224C137.275 70.9158 137.421 70.7148 137.609 70.4356C137.779 70.6645 137.912 70.8097 138.01 70.9716ZM130.224 81.3977C125.59 81.4367 120.956 81.4758 116.31 81.5149C116.48 80.8727 121.976 72.2058 123.361 70.363C127.946 70.3239 132.586 70.2848 137.414 70.2457C134.955 74.0542 132.604 77.7008 130.224 81.3977ZM129.562 58.8089C129.999 58.8145 130.303 58.8927 130.546 59.278C132.714 62.69 134.9 66.0853 137.08 69.4862C137.159 69.6091 137.22 69.7431 137.323 69.9385C137.062 69.9665 136.862 70.0111 136.667 70.0056C132.428 69.9665 128.189 69.9162 123.95 69.8771C123.513 69.8715 123.203 69.7989 122.96 69.4136C120.78 65.9848 118.575 62.5672 116.383 59.144C116.316 59.0434 116.279 58.9262 116.182 58.714C116.504 58.7028 116.711 58.6805 116.923 58.686C121.144 58.7251 125.353 58.7754 129.562 58.8089ZM80.6838 69.7878C80.1129 69.7878 79.7607 69.6426 79.4631 69.1679C77.3739 65.862 75.2482 62.5728 73.1408 59.2724C73.0254 59.0881 72.9282 58.8927 72.7764 58.6134C73.1225 58.5967 73.3837 58.5744 73.6388 58.5799C77.7686 58.6246 81.9045 58.6749 86.0344 58.7028C86.6053 58.7084 86.9514 58.8592 87.249 59.3283C89.3322 62.6119 91.4457 65.8787 93.547 69.1511C93.6746 69.3522 93.8021 69.5588 93.9965 69.8715C93.5956 69.8883 93.3345 69.9106 93.0794 69.9106C88.9496 69.8659 84.8197 69.8101 80.6838 69.7878ZM94.537 69.9162C94.5917 69.7543 94.6038 69.6091 94.6767 69.4974C96.8874 66.0574 99.1041 62.623 101.315 59.1831C101.497 58.9038 101.691 58.7586 102.074 58.7531C106.471 58.7307 110.868 58.6916 115.271 58.6581C115.35 58.6581 115.429 58.6805 115.63 58.7084C115.484 58.9709 115.387 59.1663 115.265 59.3562C113.133 62.6677 110.99 65.9736 108.87 69.2908C108.627 69.6705 108.372 69.8436 107.868 69.8436C103.629 69.8604 99.3896 69.905 95.1565 69.9385C94.9743 69.9385 94.7921 69.9218 94.537 69.9162ZM109.271 69.5867C111.403 66.1635 113.498 62.7235 115.611 59.2892C115.684 59.1663 115.787 59.0546 115.964 58.8201C116.14 59.0993 116.249 59.2724 116.352 59.4399C118.411 62.8129 120.47 66.1914 122.541 69.5644C122.662 69.7598 122.735 69.933 122.735 70.1117C122.735 70.2568 122.687 70.4076 122.583 70.5807C120.458 74.004 118.356 77.4439 116.243 80.8783C116.164 81.0012 116.067 81.1129 115.927 81.2971C115.763 81.0738 115.617 80.9062 115.508 80.7275C113.443 77.349 111.39 73.9705 109.319 70.6031C109.198 70.4076 109.125 70.2289 109.125 70.0502C109.119 69.905 109.161 69.7543 109.271 69.5867ZM95.2051 70.1787C99.4139 70.2233 103.623 70.2736 107.831 70.3071C108.269 70.3127 108.572 70.3909 108.815 70.7762C110.99 74.205 113.194 77.6226 115.381 81.0458C115.447 81.1519 115.496 81.2636 115.605 81.4814C115.283 81.4982 115.077 81.5149 114.87 81.5093C110.662 81.4647 106.453 81.4144 102.244 81.3809C101.807 81.3753 101.509 81.2916 101.266 80.9062C99.098 77.4998 96.9117 74.1045 94.7313 70.7092C94.6524 70.5807 94.5856 70.4467 94.4702 70.2345C94.7556 70.2122 94.9803 70.1787 95.2051 70.1787ZM94.0572 92.6055C93.9297 92.4044 93.8386 92.2592 93.7475 92.114C92.6543 90.3271 91.5611 88.5401 90.474 86.7586L90.4314 86.7586C89.4962 85.2285 88.5548 83.6984 87.6134 82.1739C87.4798 81.9561 87.4069 81.7718 87.4069 81.5764C87.4069 81.4032 87.4677 81.2245 87.5952 81.0235C89.6844 77.6617 91.7494 74.2832 93.8264 70.9102C93.9297 70.7427 94.0511 70.5863 94.2637 70.2959C94.4702 70.631 94.6038 70.8376 94.7374 71.0442C96.7477 74.339 98.7458 77.6338 100.774 80.9174C100.92 81.1575 101.005 81.3697 101.005 81.5819C101.005 81.7718 100.938 81.9728 100.799 82.1962C99.8511 83.7096 98.9158 85.2341 97.9806 86.7531L97.9623 86.7531C96.8327 88.5903 95.7031 90.4276 94.5734 92.2648C94.4884 92.4044 94.373 92.5329 94.1969 92.773C94.1422 92.7116 94.0997 92.6557 94.0572 92.6055ZM98.4239 86.8257L98.3935 86.8257C99.4624 85.1671 100.525 83.5197 101.6 81.8556C106.228 81.8165 110.862 81.7774 115.502 81.7383C115.453 82.0063 114.063 84.2959 112.514 86.7531L112.453 86.7531C111.226 88.6573 110.012 90.5448 108.785 92.4435C108.67 92.6055 108.572 92.7395 108.493 92.8456C103.89 92.8847 99.2802 92.9238 94.4763 92.9629C95.8063 90.8799 97.1242 88.8472 98.4239 86.8257ZM109.253 92.7116C110.461 90.7515 111.67 88.7914 112.872 86.8312L112.848 86.8312C113.783 85.3067 114.725 83.7878 115.666 82.2632C115.715 82.1795 115.794 82.118 115.945 81.9393C116.134 82.2465 116.267 82.4531 116.401 82.6709C117.251 84.0558 118.095 85.4463 118.946 86.8312L118.94 86.8312C120.106 88.7411 121.278 90.6454 122.456 92.5496C122.517 92.6501 122.559 92.7451 122.596 92.8344C122.614 92.8847 122.632 92.9405 122.644 92.9908C122.65 93.0131 122.65 93.0299 122.656 93.0522C122.662 93.1025 122.669 93.1472 122.669 93.1974C122.669 93.2924 122.656 93.3873 122.626 93.4822C122.59 93.5883 122.529 93.7 122.456 93.8229C120.397 97.1176 118.381 100.429 116.346 103.73C116.231 103.919 116.097 104.098 115.915 104.355C115.769 104.171 115.66 104.048 115.575 103.914C113.474 100.474 111.378 97.0283 109.265 93.5995C109.161 93.4375 109.119 93.2923 109.113 93.1472C109.113 93.002 109.155 92.8624 109.253 92.7116ZM114.779 104.523C110.649 104.483 106.514 104.428 102.384 104.405C101.801 104.4 101.467 104.227 101.175 103.769C99.1102 100.507 97.021 97.2684 94.9378 94.0183C94.8042 93.8061 94.6706 93.5883 94.5248 93.3649C94.7374 93.3203 94.8953 93.27 95.0532 93.2756C99.3713 93.3147 103.689 93.3649 108.008 93.404C108.062 93.404 108.117 93.4096 108.165 93.4152C108.469 93.4822 108.694 93.6497 108.888 93.9234C111.087 97.3689 113.297 100.803 115.502 104.243C115.532 104.294 115.551 104.355 115.599 104.483C115.569 104.489 115.538 104.5 115.508 104.506C115.235 104.511 115.004 104.528 114.779 104.523ZM116.213 104.511C116.219 104.5 116.225 104.495 116.231 104.483C116.395 104.21 116.51 104.014 116.632 103.824C118.721 100.58 120.828 97.3354 122.899 94.0797C123.191 93.6218 123.507 93.4375 124.096 93.432C128.226 93.4264 132.355 93.3761 136.485 93.3426C136.722 93.337 136.971 93.3594 137.281 93.3705C137.257 93.4487 137.232 93.5213 137.208 93.5883C137.153 93.6944 137.105 93.7949 137.05 93.8843C134.894 97.2405 132.726 100.586 130.57 103.942C130.369 104.26 130.169 104.461 129.707 104.461C125.389 104.478 121.071 104.523 116.753 104.556C116.607 104.556 116.456 104.534 116.213 104.511ZM130.843 104.74C130.843 104.662 130.861 104.584 130.88 104.506C130.904 104.433 130.934 104.361 130.983 104.277C133.109 100.848 135.21 97.4136 137.323 93.9792C137.396 93.8564 137.5 93.7447 137.639 93.5548C137.797 93.7614 137.925 93.901 138.022 94.063C138.957 95.5931 139.898 97.1232 140.834 98.6589C140.998 98.927 141.162 99.1894 141.32 99.4575C142.297 101.055 143.269 102.646 144.247 104.243C144.344 104.428 144.393 104.595 144.393 104.763C144.393 104.925 144.35 105.087 144.259 105.265C142.146 108.666 140.056 112.078 137.955 115.49C137.876 115.613 137.779 115.725 137.603 115.959C137.427 115.68 137.317 115.513 137.22 115.339C135.155 111.966 133.102 108.588 131.031 105.215C130.928 105.047 130.861 104.897 130.843 104.74ZM116.237 104.913C116.522 104.897 116.747 104.869 116.972 104.874C121.126 104.913 125.28 104.975 129.44 104.992C130.023 104.997 130.351 105.17 130.643 105.628C130.813 105.891 130.977 106.153 131.147 106.421C133.078 109.459 135.022 112.486 136.965 115.518C137.068 115.68 137.159 115.859 137.281 116.082C137.281 116.082 137.281 116.082 137.281 116.088C136.989 116.104 136.765 116.132 136.546 116.127C132.361 116.082 128.183 116.032 123.999 116.004C123.525 115.998 123.215 115.892 122.96 115.49C120.822 112.128 118.66 108.778 116.504 105.422C116.419 105.271 116.34 105.109 116.237 104.913ZM115.593 127C113.486 123.56 111.384 120.114 109.271 116.674C109.216 116.579 109.174 116.49 109.143 116.406C109.131 116.35 109.125 116.294 109.125 116.238C109.125 116.16 109.137 116.077 109.161 115.993C109.18 115.948 109.192 115.903 109.222 115.859C111.403 112.341 113.565 108.822 115.733 105.299C115.775 105.237 115.836 105.187 116 105.008C116.176 105.293 116.31 105.5 116.437 105.706C118.46 109.024 120.476 112.341 122.511 115.647C122.577 115.753 122.626 115.853 122.662 115.954C122.669 115.97 122.669 115.987 122.675 116.004C122.699 116.077 122.711 116.144 122.717 116.211C122.711 116.389 122.656 116.574 122.523 116.786C120.44 120.125 118.393 123.481 116.328 126.832C116.225 127 116.103 127.162 115.945 127.39C115.812 127.24 115.678 127.134 115.593 127ZM116.607 126.96C118.709 123.694 120.828 120.432 122.911 117.154C123.209 116.685 123.537 116.534 124.114 116.529C128.213 116.518 132.319 116.473 136.425 116.44C136.674 116.44 136.935 116.451 137.336 116.456C137.293 116.534 137.257 116.596 137.22 116.657C134.9 120.254 132.653 123.744 130.369 127.29C130.266 127.396 130.145 127.463 130.005 127.513C125.468 127.552 120.907 127.592 116.225 127.631C116.383 127.346 116.486 127.145 116.607 126.96ZM137.153 138.381C135.107 135.024 133.06 131.668 131.007 128.317C130.928 128.189 130.88 128.066 130.843 127.949C130.837 127.904 130.831 127.86 130.831 127.815C130.831 127.737 130.843 127.659 130.861 127.58C130.886 127.513 130.91 127.452 130.952 127.379C133.078 123.956 135.18 120.516 137.293 117.082C137.372 116.959 137.463 116.842 137.609 116.657C137.761 116.858 137.894 116.998 137.991 117.16C140.069 120.555 142.146 123.95 144.229 127.346C144.271 127.413 144.302 127.474 144.326 127.536C144.344 127.58 144.362 127.631 144.374 127.675C144.374 127.681 144.374 127.681 144.381 127.686C144.399 127.748 144.405 127.809 144.405 127.871C144.405 127.921 144.399 127.977 144.387 128.033C144.362 128.111 144.326 128.195 144.271 128.29C142.146 131.713 140.044 135.153 137.931 138.587C137.852 138.71 137.755 138.822 137.578 139.062C137.39 138.766 137.269 138.576 137.153 138.381Z" fill="#704EEB"/>
</g>
<defs>
<clipPath id="clip0_4035_2829">
<rect width="140" height="145" fill="white" transform="translate(145) rotate(90)"/>
</clipPath>
</defs>
</svg>
