<svg width="227" height="239" viewBox="0 0 227 239" fill="none" xmlns="http://www.w3.org/2000/svg">
<path d="M149.472 12.9549C143.931 16.5651 138.408 20.1953 132.868 23.8055C132.416 24.0948 132.172 24.4139 132.172 25.0422C132.136 32.2726 132.072 39.503 132.009 46.7334C132.009 46.8631 132.036 46.9927 132.054 47.1224C132.904 46.9828 146.977 37.9672 150.095 35.5537C150.159 27.9443 150.222 20.3649 150.285 12.6358C149.951 12.7654 149.689 12.8153 149.472 12.9549ZM132.063 49.2766C132.136 56.2776 132.208 63.2687 132.271 70.2697C132.28 70.9678 132.461 71.3967 133.021 71.7557C138.571 75.336 144.094 78.9562 149.634 82.5465C149.806 82.6562 149.987 82.7459 150.294 82.9055C150.339 82.5066 150.412 82.1874 150.412 81.8683C150.348 74.8673 150.267 67.8762 150.204 60.8751C150.195 60.2568 150.095 59.808 149.562 59.459C143.877 55.7889 138.21 52.0989 132.533 48.4089C132.47 48.359 132.38 48.359 132.127 48.2693C132.09 48.6882 132.063 48.9774 132.063 49.2766ZM150.511 36.6807C150.122 36.6807 149.734 36.8303 149.291 37.1095C144.067 40.4305 138.806 43.6817 133.555 46.9628C133.175 47.1922 132.813 47.4316 132.307 47.7607C132.66 48.0499 132.886 48.2892 133.139 48.4488C138.571 51.8197 144.012 55.1706 149.426 58.5714C149.815 58.8107 150.15 58.9404 150.502 58.9404C150.818 58.9404 151.144 58.8307 151.505 58.6013C156.874 55.2005 162.27 51.8596 167.657 48.4987C167.965 48.3092 168.254 48.0898 168.751 47.7307C167.73 47.0825 166.907 46.5539 166.076 46.0353C161.267 43.0534 156.449 40.1114 151.668 37.0796C151.261 36.8103 150.882 36.6807 150.511 36.6807ZM188.175 82.9952C188.645 82.726 188.998 82.5465 189.323 82.3271C194.62 78.8664 199.898 75.3858 205.213 71.9651C205.963 71.4864 206.243 70.9578 206.243 69.9905C206.261 63.1989 206.334 56.4072 206.388 49.6256C206.388 49.1968 206.361 48.7779 206.334 48.1995C205.864 48.4687 205.511 48.6483 205.186 48.8677C199.889 52.3283 194.61 55.8089 189.296 59.2296C188.546 59.7083 188.265 60.2369 188.265 61.1943C188.247 67.9859 188.175 74.7775 188.121 81.5591C188.121 81.988 188.157 82.4068 188.175 82.9952ZM188.175 84.93C188.238 91.931 188.32 98.9321 188.383 105.923C188.392 106.541 188.5 106.99 189.034 107.339C194.683 110.989 200.314 114.669 205.954 118.34C206.053 118.409 206.171 118.439 206.451 118.559C206.478 118.08 206.514 117.741 206.505 117.402C206.433 110.491 206.352 103.579 206.297 96.6682C206.288 95.9502 206.18 95.4515 205.547 95.0426C199.997 91.4723 194.466 87.8521 188.934 84.2518C188.762 84.1421 188.582 84.0623 188.274 83.8928C188.238 84.2917 188.175 84.6109 188.175 84.93ZM205.845 72.4937C200.296 75.9942 194.728 79.4449 189.169 82.9254C188.961 83.0551 188.781 83.2146 188.473 83.444C188.772 83.6933 188.998 83.9327 189.251 84.0923C194.71 87.4831 200.187 90.8639 205.647 94.2747C205.999 94.4941 206.315 94.6237 206.632 94.6237C206.903 94.6237 207.183 94.534 207.509 94.3345C212.986 90.8639 218.491 87.4532 223.977 84.0225C224.212 83.8729 224.429 83.6933 224.872 83.3642C224.348 83.0351 224.013 82.8157 223.679 82.6063C218.319 79.2753 212.95 75.9643 207.59 72.6233C207.237 72.4039 206.921 72.2443 206.578 72.2443C206.361 72.2443 206.117 72.3142 205.845 72.4937ZM205.782 143.9C200.413 147.301 195.017 150.642 189.63 154.003C189.323 154.192 189.034 154.422 188.627 154.711C188.961 154.97 189.187 155.2 189.44 155.359C194.909 158.76 200.377 162.131 205.836 165.552C206.18 165.771 206.487 165.881 206.795 165.881C207.075 165.881 207.364 165.781 207.698 165.572C213.14 162.131 218.608 158.75 224.058 155.339C224.329 155.17 224.583 154.96 225.053 154.621C224.519 154.282 224.176 154.063 223.841 153.843C218.509 150.542 213.176 147.261 207.861 143.93C207.472 143.691 207.138 143.551 206.786 143.551C206.469 143.561 206.153 143.671 205.782 143.9ZM206.424 167.975C206.415 167.267 206.315 166.758 205.683 166.35C200.133 162.769 194.592 159.159 189.061 155.549C188.898 155.439 188.708 155.369 188.419 155.21C188.374 155.619 188.302 155.948 188.302 156.267C188.365 163.228 188.464 170.189 188.5 177.15C188.509 178.028 188.799 178.487 189.458 178.915C194.909 182.426 200.341 185.976 205.773 189.507C205.972 189.636 206.198 189.726 206.587 189.926C206.614 189.397 206.641 189.048 206.641 188.709C206.56 181.818 206.487 174.896 206.424 167.975ZM206.334 142.454C206.397 134.905 206.46 127.315 206.523 119.417C200.377 123.426 194.457 127.295 188.473 131.215C188.41 138.824 188.347 146.433 188.283 154.063C189.205 153.853 204.39 144.07 206.334 142.454ZM188.699 130.098C194.348 126.547 200.016 123.017 205.674 119.486C205.8 119.407 205.918 119.277 206.207 119.028C205.719 118.718 205.385 118.489 205.032 118.28C199.708 114.979 194.375 111.698 189.07 108.357C188.672 108.107 188.329 107.978 187.985 107.978C187.642 107.978 187.289 108.107 186.892 108.357C181.568 111.737 176.208 115.048 170.857 118.389C170.55 118.579 170.26 118.808 169.845 119.097C170.143 119.337 170.333 119.526 170.55 119.666C176.117 123.117 181.685 126.557 187.253 130.018C187.533 130.197 187.786 130.307 188.057 130.307C188.265 130.297 188.473 130.237 188.699 130.098ZM187.696 132.162C187.687 131.474 187.524 131.035 186.955 130.666C181.405 127.076 175.873 123.456 170.333 119.855C170.161 119.746 169.98 119.676 169.619 119.486C169.592 120.065 169.564 120.454 169.564 120.843C169.637 127.674 169.718 134.496 169.763 141.327C169.772 142.205 169.971 142.763 170.703 143.232C176.127 146.713 181.523 150.243 186.919 153.754C187.154 153.903 187.407 154.033 187.759 154.232C187.813 153.873 187.904 153.594 187.904 153.315C187.841 146.264 187.759 139.213 187.696 132.162ZM170.504 118.11C175.928 114.57 181.36 111.009 186.783 107.469C187.298 107.14 187.624 106.811 187.624 106.053C187.651 98.952 187.723 91.8712 187.786 84.7804C187.786 84.5311 187.741 84.2818 187.705 83.823C187.181 84.1421 186.828 84.3516 186.485 84.571C181.233 88.0017 175.982 91.4623 170.712 94.8631C169.971 95.3418 169.664 95.8604 169.664 96.8278C169.646 103.619 169.574 110.391 169.519 117.183C169.519 117.602 169.546 118.03 169.564 118.609C169.962 118.399 170.251 118.28 170.504 118.11ZM187.732 81.7785C187.66 74.8573 187.578 67.946 187.533 61.0247C187.524 60.2369 187.316 59.7482 186.684 59.3393C181.233 55.8188 175.801 52.2685 170.369 48.738C170.134 48.5884 169.881 48.4588 169.492 48.2493C169.456 48.728 169.402 49.097 169.402 49.4561C169.474 56.3773 169.555 63.2886 169.601 70.2099C169.61 71.0875 169.899 71.5462 170.559 71.9751C176.009 75.4856 181.441 79.036 186.873 82.5664C187.072 82.696 187.298 82.7858 187.687 82.9853C187.705 82.4567 187.732 82.1176 187.732 81.7785ZM170.089 94.3345C175.629 90.834 181.197 87.3834 186.747 83.9128C186.946 83.7931 187.127 83.6335 187.515 83.3343C187.027 83.0252 186.72 82.8257 186.412 82.6362C181.016 79.2953 175.611 75.9643 170.242 72.5934C169.89 72.374 169.574 72.2543 169.266 72.2543C168.959 72.2543 168.643 72.364 168.281 72.5934C162.912 75.9842 157.516 79.3252 152.138 82.6861C151.831 82.8756 151.551 83.095 151.135 83.3942C151.505 83.6734 151.767 83.9028 152.057 84.0923C157.516 87.4831 162.984 90.854 168.444 94.2548C168.76 94.4542 169.049 94.5739 169.348 94.5739C169.574 94.5739 169.809 94.5041 170.089 94.3345ZM168.923 96.4688C168.914 95.8105 168.688 95.4316 168.182 95.1025C162.641 91.5221 157.109 87.9119 151.569 84.3217C151.37 84.192 151.162 84.1122 150.845 83.9626C150.818 84.4712 150.782 84.8502 150.791 85.2292C150.855 92.1006 150.936 98.972 150.999 105.833C151.008 106.541 151.099 107.05 151.74 107.459C157.326 111.049 162.885 114.689 168.453 118.32C168.588 118.409 168.733 118.469 168.977 118.589C169.031 118.27 169.131 117.99 169.122 117.721C169.067 110.64 168.986 103.55 168.923 96.4688ZM150.827 83.0252C156.947 79.0759 162.858 75.1664 168.832 71.267C168.896 63.6377 168.959 56.0283 169.022 48.1596C168.417 48.5386 168.064 48.738 167.73 48.9674C162.496 52.3782 157.281 55.8188 152.039 59.1997C151.27 59.6983 150.927 60.2169 150.927 61.2541C150.927 67.956 150.846 74.6578 150.791 81.3497C150.791 81.8184 150.809 82.2872 150.827 83.0252ZM150.737 12.4463C150.71 13.1045 150.674 13.5234 150.674 13.9422C150.737 20.7339 150.836 27.5155 150.864 34.2971C150.864 35.3343 151.189 35.8729 151.975 36.3715C157.29 39.7823 162.587 43.2529 167.883 46.6936C168.182 46.893 168.498 47.0426 168.977 47.3119C168.995 46.6736 169.013 46.2847 169.013 45.8857C168.941 39.1041 168.859 32.3225 168.814 25.5309C168.805 24.5934 168.57 24.0249 167.802 23.5363C162.487 20.1155 157.2 16.6549 151.903 13.1943C151.569 12.9749 151.234 12.7654 150.737 12.4463ZM186.449 11.5188C180.962 8.10805 175.458 4.69728 169.962 1.27655C169.646 1.07709 169.366 0.957413 169.067 0.957413C168.832 0.957413 168.588 1.0372 168.317 1.20674C162.776 4.69729 157.209 8.14794 151.659 11.6185C151.46 11.7482 151.279 11.9078 150.891 12.197C151.37 12.5061 151.668 12.6956 151.984 12.8951C157.417 16.256 162.849 19.6169 168.272 22.9878C168.588 23.1872 168.878 23.3169 169.176 23.3169C169.402 23.3169 169.646 23.2471 169.917 23.0775C175.458 19.587 181.025 16.1363 186.584 12.6657C186.783 12.5361 186.964 12.3865 187.271 12.1471C186.937 11.8978 186.711 11.6784 186.449 11.5188ZM187.587 12.4862C181.486 16.4754 175.593 20.325 169.583 24.2643C169.519 31.8537 169.456 39.4831 169.393 47.3318C169.917 47.0326 170.269 46.8531 170.595 46.6337C175.882 43.1831 181.161 39.7025 186.467 36.2817C187.226 35.7931 187.47 35.2545 187.479 34.3071C187.497 27.5753 187.569 20.8336 187.624 14.0918C187.624 13.653 187.597 13.2242 187.587 12.4862ZM186.928 36.91C181.523 40.3308 176.09 43.6917 170.667 47.0825C170.396 47.252 170.134 47.4515 169.763 47.7108C170.016 47.9402 170.188 48.1596 170.405 48.2992C175.973 51.7598 181.55 55.2105 187.117 58.6811C187.398 58.8606 187.651 58.9703 187.922 58.9703C188.121 58.9703 188.329 58.9105 188.555 58.7708C194.249 55.1905 199.943 51.6402 205.647 48.0798C205.746 48.01 205.827 47.9103 206.117 47.641C205.656 47.3518 205.321 47.1324 204.987 46.9229C199.618 43.6019 194.249 40.2909 188.898 36.9499C188.537 36.7206 188.22 36.6009 187.895 36.6009C187.587 36.5909 187.28 36.6906 186.928 36.91ZM188.003 13.9024C188.076 20.7737 188.157 27.6352 188.202 34.5066C188.211 35.2845 188.383 35.7931 189.034 36.2119C194.475 39.7224 199.898 43.2728 205.33 46.8132C205.592 46.9828 205.873 47.1124 206.261 47.3218C206.288 46.8132 206.334 46.4343 206.334 46.0553C206.261 39.2338 206.171 32.4122 206.144 25.5807C206.135 24.6233 205.855 24.0848 205.104 23.6061C199.753 20.1754 194.439 16.6948 189.106 13.2242C188.808 13.0347 188.491 12.8751 188.076 12.6358C188.048 13.1344 188.003 13.5134 188.003 13.9024ZM223.823 11.459C218.337 8.04821 212.832 4.64742 207.337 1.22668C207.02 1.02722 206.74 0.907544 206.442 0.907544C206.207 0.907544 205.963 0.987328 205.692 1.15687C200.151 4.64742 194.583 8.10805 189.025 11.5687C188.826 11.6983 188.645 11.8579 188.265 12.1471C188.717 12.4363 188.988 12.6158 189.269 12.7754C194.728 16.1662 200.196 19.5371 205.656 22.9379C205.972 23.1373 206.252 23.257 206.55 23.257C206.785 23.257 207.02 23.1772 207.301 23.0077C212.85 19.5171 218.409 16.0665 223.968 12.5959C224.167 12.4762 224.348 12.3067 224.646 12.0773C224.32 11.828 224.085 11.6285 223.823 11.459ZM208.033 46.6038C213.284 43.1631 218.536 39.7125 223.805 36.3117C224.546 35.833 224.845 35.3144 224.854 34.347C224.872 27.5653 224.944 20.7837 224.998 14.0021C225.007 13.5732 224.971 13.1544 224.944 12.5759C224.546 12.7854 224.266 12.9051 224.004 13.0746C218.572 16.615 213.158 20.1754 207.726 23.7158C207.219 24.0449 206.885 24.374 206.885 25.1319C206.858 32.2227 206.785 39.3135 206.731 46.4043C206.731 46.6537 206.767 46.913 206.813 47.3617C207.346 47.0326 207.689 46.8232 208.033 46.6038ZM224.908 60.7455C224.908 60.177 224.781 59.7582 224.293 59.439C218.644 55.7789 213.004 52.0989 207.364 48.4289C207.265 48.359 207.147 48.3391 206.831 48.2094C206.813 48.7879 206.785 49.2167 206.795 49.6356C206.858 56.4172 206.948 63.2088 206.984 69.9905C206.993 70.9479 207.265 71.4964 208.015 71.9751C213.357 75.4058 218.689 78.8963 224.022 82.357C224.293 82.5365 224.564 82.706 224.953 82.9553C225.025 82.5664 225.125 82.2971 225.116 82.0179C225.053 74.9271 224.971 67.8363 224.908 60.7455ZM224.221 107.389C224.664 107.1 224.953 106.821 224.962 106.182C224.998 98.9121 225.062 91.6418 225.107 84.3615C225.107 84.2818 225.071 84.192 224.998 83.9227C221.934 85.7578 219.015 87.7823 216.041 89.7071C213.049 91.6418 210.067 93.6165 207.066 95.5811C207.002 103.22 206.939 110.79 206.876 118.519C207.237 118.369 207.5 118.32 207.716 118.18C213.23 114.58 218.726 110.979 224.221 107.389ZM225.034 132.332C225.025 131.604 224.881 131.115 224.266 130.716C218.716 127.146 213.185 123.535 207.653 119.935C207.481 119.825 207.301 119.746 206.957 119.566C206.939 120.105 206.903 120.444 206.912 120.783C206.984 127.694 207.066 134.605 207.12 141.517C207.129 142.245 207.283 142.714 207.897 143.112C213.411 146.663 218.906 150.263 224.402 153.843C224.61 153.973 224.827 154.073 225.152 154.252C225.197 153.843 225.26 153.514 225.251 153.185C225.17 146.234 225.089 139.283 225.034 132.332ZM225.107 178.237C225.17 170.608 225.233 162.989 225.297 155.25C224.989 155.359 224.763 155.379 224.583 155.499C219.015 159.129 213.447 162.779 207.879 166.409C207.427 166.709 207.192 167.028 207.183 167.656C207.147 174.886 207.084 182.107 207.03 189.337C207.03 189.467 207.057 189.597 207.111 190.005C213.176 186.036 219.114 182.157 225.107 178.237ZM225.251 225.499C225.315 225.22 225.414 224.991 225.414 224.761C225.351 217.631 225.269 210.5 225.206 203.369C225.197 202.781 225.034 202.392 224.564 202.083C218.879 198.413 213.212 194.723 207.536 191.033C207.463 190.993 207.382 190.983 207.129 190.893C207.111 191.342 207.075 191.681 207.075 192.02C207.147 198.971 207.219 205.932 207.274 212.893C207.283 213.582 207.463 214.02 208.024 214.379C213.564 217.96 219.096 221.57 224.628 225.18C224.799 225.27 224.989 225.35 225.251 225.499ZM189.829 226.856C195.225 230.197 200.621 233.528 206.008 236.898C206.343 237.108 206.641 237.218 206.93 237.218C207.228 237.218 207.518 237.108 207.861 236.888C213.266 233.478 218.689 230.117 224.113 226.736C224.411 226.546 224.682 226.317 225.071 226.028C224.664 225.739 224.384 225.519 224.076 225.33C218.689 221.979 213.284 218.648 207.915 215.277C207.545 215.048 207.219 214.928 206.894 214.928C206.56 214.928 206.225 215.048 205.845 215.287C200.477 218.678 195.09 222.019 189.703 225.38C189.404 225.569 189.133 225.799 188.69 226.128C189.169 226.427 189.495 226.646 189.829 226.856ZM188.455 225.479C188.726 225.39 188.952 225.37 189.133 225.25C194.701 221.62 200.26 217.97 205.827 214.35C206.279 214.05 206.514 213.731 206.523 213.103C206.56 205.882 206.623 198.662 206.677 191.432C206.677 191.302 206.641 191.172 206.596 190.833C206.171 191.073 205.855 191.232 205.556 191.422C200.196 194.922 194.845 198.443 189.477 201.923C188.862 202.322 188.582 202.731 188.573 203.569C188.546 210.53 188.473 217.491 188.419 224.442C188.41 224.761 188.437 225.061 188.455 225.479ZM170.947 191.053C176.407 194.433 181.875 197.814 187.334 201.215C187.651 201.415 187.94 201.534 188.238 201.534C188.464 201.534 188.708 201.464 188.979 201.285C194.52 197.784 200.088 194.334 205.647 190.873C205.845 190.743 206.026 190.584 206.334 190.354C205.972 190.075 205.71 189.846 205.412 189.666C199.952 186.276 194.484 182.895 189.025 179.494C188.708 179.294 188.419 179.175 188.121 179.175C187.886 179.175 187.651 179.255 187.38 179.424C181.83 182.915 176.271 186.375 170.712 189.836C170.514 189.966 170.333 190.125 169.944 190.414C170.396 190.704 170.667 190.883 170.947 191.053ZM170.613 189.417C176.081 185.847 181.541 182.266 187.009 178.706C187.515 178.377 187.741 178.028 187.75 177.36C187.786 170.219 187.859 163.078 187.913 155.938C187.913 155.768 187.886 155.589 187.85 155.2C184.722 157.055 181.812 159.089 178.847 161.004C175.855 162.939 172.873 164.903 169.872 166.878C169.809 174.507 169.745 182.087 169.682 189.846C170.071 189.666 170.36 189.577 170.613 189.417ZM170.315 165.612C175.756 162.171 181.224 158.79 186.675 155.379C186.946 155.21 187.19 155 187.642 154.681C186.629 154.043 185.807 153.504 184.984 152.996C180.176 150.014 175.358 147.062 170.577 144.04C170.143 143.771 169.772 143.621 169.393 143.621C169.049 143.621 168.697 143.741 168.29 144C162.993 147.371 157.67 150.662 152.355 153.983C152.011 154.192 151.686 154.432 151.252 154.721C151.541 154.97 151.731 155.19 151.957 155.329C157.453 158.75 162.966 162.151 168.453 165.582C168.796 165.801 169.104 165.911 169.411 165.911C169.7 165.921 169.989 165.821 170.315 165.612ZM150.963 156.386C151.035 163.298 151.117 170.209 151.171 177.12C151.18 177.838 151.316 178.327 151.939 178.726C157.489 182.306 163.011 185.917 168.552 189.517C168.724 189.626 168.905 189.706 169.176 189.846C169.23 189.507 169.311 189.218 169.311 188.938C169.248 181.897 169.167 174.847 169.104 167.806C169.094 167.187 168.977 166.738 168.444 166.399C162.795 162.749 157.163 159.079 151.523 155.409C151.424 155.339 151.306 155.319 151.026 155.2C150.99 155.708 150.963 156.047 150.963 156.386ZM150.999 154.362C157.073 150.393 163.002 146.513 169.004 142.594C169.067 134.964 169.131 127.355 169.194 119.586C168.85 119.716 168.588 119.776 168.38 119.915C162.84 123.525 157.317 127.156 151.776 130.766C151.325 131.055 151.081 131.364 151.071 132.003C151.035 139.233 150.972 146.463 150.918 153.694C150.909 153.813 150.945 153.943 150.999 154.362ZM151.587 129.918C157.028 126.477 162.496 123.097 167.947 119.686C168.218 119.516 168.462 119.317 168.941 118.968C168.408 118.629 168.064 118.409 167.73 118.2C162.397 114.899 157.064 111.618 151.749 108.287C151.361 108.037 151.026 107.908 150.674 107.908C150.357 107.908 150.041 108.017 149.68 108.247C144.311 111.648 138.915 114.989 133.518 118.349C133.211 118.539 132.922 118.758 132.515 119.048C132.841 119.317 133.067 119.536 133.329 119.696C138.797 123.087 144.265 126.468 149.716 129.888C150.068 130.108 150.366 130.227 150.674 130.227C150.972 130.227 151.261 130.128 151.587 129.918ZM132.38 141.646C132.389 142.494 132.741 142.893 133.338 143.282C138.2 146.413 143.054 149.565 147.917 152.716C148.703 153.225 149.499 153.724 150.493 154.352C150.511 153.694 150.529 153.265 150.529 152.836C150.457 146.005 150.375 139.183 150.33 132.352C150.321 131.564 150.122 131.075 149.481 130.656C144.03 127.146 138.598 123.595 133.166 120.055C132.931 119.895 132.678 119.776 132.334 119.586C132.28 119.935 132.19 120.224 132.19 120.504C132.244 127.545 132.334 134.595 132.38 141.646ZM150.231 106.821C150.294 99.2811 150.357 91.6817 150.421 83.7731C144.247 87.8122 138.345 91.6717 132.371 95.5812C132.307 103.181 132.244 110.79 132.181 118.419C133.076 118.22 148.107 108.546 150.231 106.821ZM114.818 84.2419C120.214 87.5828 125.61 90.9038 130.988 94.2847C131.331 94.4941 131.62 94.6038 131.919 94.6038C132.217 94.6038 132.506 94.4941 132.85 94.2847C138.255 90.8739 143.678 87.513 149.101 84.1322C149.399 83.9427 149.67 83.7133 150.059 83.4241C149.661 83.1349 149.372 82.9155 149.074 82.726C143.687 79.375 138.282 76.0441 132.913 72.6732C132.542 72.4338 132.208 72.3241 131.882 72.3241C131.548 72.3241 131.214 72.4438 130.843 72.6832C125.474 76.074 120.078 79.4149 114.7 82.7758C114.402 82.9653 114.122 83.1947 113.688 83.5238C114.158 83.823 114.492 84.0324 114.818 84.2419ZM114.293 12.6557C119.861 16.1164 125.438 19.567 130.997 23.0376C131.277 23.2171 131.53 23.3268 131.801 23.3268C132 23.3268 132.208 23.267 132.434 23.1174C138.128 19.5471 143.822 15.9867 149.526 12.4264C149.625 12.3665 149.707 12.2668 149.996 11.9875C149.535 11.6884 149.2 11.4789 148.866 11.2695C143.497 7.94848 138.128 4.63745 132.777 1.2965C132.416 1.06712 132.09 0.947443 131.765 0.947443C131.467 0.947443 131.159 1.05715 130.807 1.27655C125.402 4.69729 119.97 8.05819 114.546 11.439C114.266 11.6086 114.013 11.808 113.643 12.0673C113.905 12.2967 114.076 12.5161 114.293 12.6557ZM1.07562 11.459C1.22023 11.3493 1.32869 11.2595 1.42812 11.1897C1.59985 11.0501 1.74448 10.9404 1.90717 10.8407L6.62532 7.88866C10.539 5.44527 14.5883 2.92211 18.5653 0.418886C18.7552 0.29921 18.954 0.209453 19.1619 0.139642L19.189 0.129669L19.2161 0.119696C19.3607 0.0897769 19.5054 0.0698309 19.65 0.0698309C19.8127 0.0698309 19.9754 0.0897769 20.138 0.129669L20.1561 0.139642L20.1923 0.149615C20.2736 0.169561 20.3821 0.219426 20.4996 0.259318C20.6442 0.329129 20.7708 0.388967 20.9063 0.478723C24.2777 2.58302 27.6492 4.67735 31.0206 6.77168C33.1446 8.08812 35.2687 9.40455 37.3928 10.731C37.6097 10.8606 37.7905 11.0202 37.9893 11.1797C38.0797 11.2496 38.1701 11.3293 38.2786 11.4091L38.3328 11.449L38.6311 11.2795C38.7034 11.2296 38.7576 11.1797 38.8118 11.1398C38.9836 11.0002 39.1192 10.9005 39.2818 10.7908L43.7017 8.03825C47.6878 5.55497 51.8003 2.99191 55.8406 0.448801L55.8677 0.428855L55.8948 0.408909C56.2925 0.199476 56.6721 0.0997463 57.0518 0.0997463C57.4495 0.0997462 57.8381 0.209449 58.2539 0.428855L58.281 0.438828L58.2991 0.448801C60.3237 1.71537 62.3574 2.97197 64.3821 4.22856L66.0361 5.25578L66.5875 5.59486L67.3287 6.05362C69.3172 7.29027 71.3057 8.51695 73.2942 9.7536L74.7584 10.6811C74.9753 10.8207 75.1742 10.9703 75.373 11.1398C75.4544 11.2097 75.5448 11.2795 75.6442 11.3593L75.7707 11.459L75.8702 11.3792C75.9606 11.3094 76.0238 11.2495 76.0871 11.1997C76.2136 11.1 76.3221 11.0102 76.4577 10.9304L80.9408 8.128L85.3607 5.36548L85.7765 5.06629L87.8192 3.79972C89.645 2.6628 91.4708 1.51591 93.2966 0.378987C93.6582 0.149608 94.0107 0.0399048 94.3813 0.0399047C94.8965 0.0399047 95.3303 0.269283 95.6467 0.468743C98.8734 2.47331 102.1 4.47789 105.336 6.48246C107.605 7.88865 109.873 9.29484 112.151 10.711C112.368 10.8407 112.549 10.9902 112.766 11.1598C112.847 11.2196 112.928 11.2894 113.019 11.3592L113.76 10.8805L113.76 10.9304C113.905 10.8307 114.04 10.7409 114.176 10.6512C115.577 9.77354 116.987 8.90589 118.388 8.02827C122.338 5.56494 126.423 3.02183 130.427 0.498659C130.906 0.199469 131.349 0.0498741 131.792 0.0498741C132.244 0.0498741 132.696 0.199469 133.202 0.518605C137.279 3.07169 141.436 5.64472 145.458 8.128L149.273 10.4816C149.526 10.6312 149.77 10.7908 150.077 10.9902L150.601 11.3194C150.665 11.2695 150.719 11.2296 150.773 11.1897C150.945 11.0501 151.09 10.9404 151.252 10.8406L155.961 7.89862C159.884 5.45523 163.933 2.93207 167.91 0.428844C168.308 0.179519 168.679 0.0598435 169.067 0.0598435C169.601 0.0598435 170.044 0.289222 170.369 0.488682C173.731 2.58301 177.103 4.67734 180.465 6.76169C182.589 8.0881 184.722 9.41451 186.855 10.7309C187.072 10.8606 187.253 11.0202 187.452 11.1797C187.524 11.2396 187.606 11.3094 187.687 11.3692L188.374 10.9204L188.374 10.9603C188.455 10.9005 188.537 10.8406 188.627 10.7808L193.056 8.01829C197.069 5.51507 201.218 2.93206 205.285 0.369003C205.683 0.119678 206.062 1.98149e-06 206.442 1.94488e-06C206.975 1.89345e-06 207.418 0.229381 207.735 0.438813C211.251 2.63287 214.776 4.81696 218.301 7.00104C220.28 8.22772 222.26 9.4544 224.23 10.6811C224.447 10.8207 224.646 10.9703 224.845 11.1398C224.926 11.2096 225.016 11.2795 225.116 11.3592L225.215 11.439L225.694 11.1797L225.721 11.828L226.074 12.1072L225.739 12.3565L225.749 12.5361L225.767 13.0048C225.785 13.3738 225.803 13.6929 225.794 14.0121C225.794 16.0864 225.776 18.1708 225.758 20.2551C225.721 24.8726 225.676 29.6497 225.667 34.347C225.658 35.6235 225.224 36.4413 224.212 37.0896C220.361 39.5728 216.457 42.1359 212.679 44.6092C211.269 45.5367 209.859 46.4542 208.449 47.3817C208.277 47.5014 208.096 47.6111 207.897 47.7307L212.715 50.8722C216.71 53.4652 220.705 56.0682 224.709 58.6611C225.613 59.2495 225.721 60.1272 225.721 60.7355C225.758 64.1762 225.794 67.6269 225.83 71.0675C225.866 74.7177 225.902 78.3578 225.938 82.0079C225.938 82.3071 225.884 82.5664 225.821 82.8157C225.812 82.8456 225.803 82.8756 225.803 82.9155L226.426 83.3144L225.812 83.7632C225.83 83.823 225.839 83.8629 225.848 83.9028C225.884 84.0324 225.929 84.182 225.929 84.3815L225.884 89.9165C225.848 95.3418 225.803 100.757 225.776 106.182C225.767 107.429 225.007 107.928 224.637 108.167C221.853 109.982 219.069 111.807 216.285 113.622C213.574 115.397 210.862 117.173 208.141 118.948C208.069 118.998 207.988 119.038 207.915 119.078C207.961 119.107 208.015 119.137 208.06 119.167L212.968 122.359C216.8 124.852 220.768 127.435 224.673 129.948C225.703 130.616 225.839 131.524 225.848 132.332C225.884 136.67 225.929 141.018 225.974 145.356C226.002 147.969 226.029 150.582 226.056 153.185C226.065 153.474 226.02 153.754 225.993 154.013C225.993 154.033 225.984 154.053 225.984 154.073L226.128 154.023L226.128 154.262L226.607 154.571L226.119 154.93L226.119 155.27L226.002 168.853L225.92 178.247L225.911 178.756L225.514 179.015C220.127 182.546 214.785 186.036 209.343 189.587L208.132 190.374L211.703 192.698C216.122 195.57 220.533 198.433 224.953 201.295C225.649 201.744 225.993 202.422 226.002 203.349C226.038 207.009 226.074 210.669 226.11 214.33C226.146 217.8 226.182 221.271 226.209 224.741C226.209 225.031 226.137 225.29 226.083 225.489C226.065 225.539 226.056 225.589 226.038 225.639L226.553 226.008L225.839 226.527L225.785 226.786L225.613 226.696L225.514 226.776C225.378 226.876 225.251 226.965 225.143 227.055C224.935 227.215 224.727 227.374 224.51 227.504L220.099 230.256C216.213 232.68 212.2 235.173 208.268 237.656C207.789 237.956 207.364 238.095 206.93 238.095C206.496 238.095 206.08 237.956 205.601 237.666C201.471 235.083 197.259 232.47 193.191 229.957L189.431 227.634C189.223 227.504 189.016 227.374 188.763 227.215L188.283 226.906L187.822 226.616L187.669 226.666L187.669 226.517L187.145 226.187L187.642 225.818L187.633 225.509C187.624 225.36 187.624 225.23 187.615 225.1C187.606 224.861 187.597 224.652 187.597 224.442L187.642 219.575C187.687 214.33 187.732 208.894 187.759 203.559C187.759 203.12 187.822 202.741 187.958 202.402C187.551 202.342 187.208 202.153 186.946 201.983C182.49 199.211 178.025 196.448 173.56 193.676L170.559 191.821C170.378 191.711 170.197 191.591 169.962 191.442L169.555 191.182L169.275 191.003L168.859 191.202L168.859 190.743L168.435 190.474L168.453 190.464C168.344 190.404 168.245 190.354 168.136 190.285L164.81 188.121C160.463 185.288 155.961 182.356 151.523 179.494C150.502 178.836 150.357 177.918 150.357 177.11C150.321 172.423 150.276 167.736 150.222 163.058C150.195 160.834 150.177 158.61 150.15 156.386C150.15 156.127 150.159 155.868 150.177 155.579C150.186 155.459 150.195 155.329 150.204 155.19L150.086 155.11L149.146 154.512C148.559 154.143 148.034 153.803 147.51 153.464L143.678 150.981C140.099 148.657 136.519 146.344 132.931 144.03C132.262 143.601 131.575 142.973 131.566 141.626C131.539 136.959 131.485 132.222 131.44 127.634C131.412 125.251 131.385 122.867 131.367 120.484C131.367 120.195 131.412 119.935 131.467 119.706C131.485 119.626 131.503 119.546 131.512 119.466L131.494 119.456L131.349 119.486L131.349 119.377C131.205 119.297 131.069 119.217 130.942 119.157C130.689 119.018 130.472 118.908 130.256 118.768C128.764 117.801 127.264 116.824 125.772 115.846C122.003 113.393 118.099 110.85 114.248 108.386C113.263 107.748 112.838 106.92 112.838 105.604C112.811 100.737 112.757 95.7806 112.703 90.9836C112.684 89.0688 112.657 87.164 112.639 85.2491C112.639 85.0098 112.648 84.7804 112.666 84.5111C112.522 84.6208 112.386 84.7106 112.242 84.8004C110.741 85.7378 109.232 86.6753 107.731 87.6127C103.845 90.0362 99.8225 92.5394 95.8817 95.0227C95.4297 95.3119 95.0049 95.4515 94.5801 95.4515C94.1372 95.4515 93.7034 95.3119 93.2153 94.9928C90.7477 93.4469 88.2712 91.9111 85.7946 90.3753L85.3788 90.116L85.3788 90.0462L80.6787 87.1241L77.1265 84.92C76.9186 84.7904 76.7108 84.6607 76.4396 84.4912L76.3221 84.4114L76.2769 84.3815L76.2317 84.3416C76.1775 84.3017 76.1323 84.2518 76.0781 84.212L76.069 84.2419L75.9244 84.1521L75.3188 84.5411L75.3279 83.7731L75.1019 83.6335L74.0444 82.9653L70.1758 80.4422C66.2712 77.8991 62.2399 75.2762 58.2629 72.7131C57.2777 72.0848 56.8348 71.2271 56.8258 69.9606C56.7987 65.1935 56.7535 60.3566 56.6993 55.6792C56.6812 53.6547 56.6541 51.6302 56.636 49.6157C56.636 49.3564 56.645 49.0871 56.6541 48.7879C56.636 48.7979 56.6179 48.8078 56.5998 48.8178L52.8669 51.1515C48.4109 53.934 43.9548 56.7164 39.5078 59.5089C39.3813 59.5886 39.2818 59.6285 39.2095 59.6485L39.1734 59.6684L39.092 59.6983C38.8841 59.7582 38.6853 59.7881 38.4865 59.7881C38.3418 59.7881 38.2063 59.7682 38.0616 59.7482L38.0164 59.7382L37.9713 59.7183C37.7634 59.6485 37.5645 59.5488 37.3747 59.439C34.1931 57.4544 31.0115 55.4798 27.8299 53.5051C25.4437 52.0191 23.0485 50.5431 20.6623 49.0572C20.4363 48.9175 20.2646 48.738 20.1019 48.5785C20.0386 48.5186 19.9754 48.4488 19.894 48.379L19.8669 48.3591L19.2071 48.738L19.2161 47.7607L19.0444 47.6011L19.2252 47.4715L19.2252 47.2421L19.415 24.6134L19.415 24.4638L19.4602 24.3241C19.4782 24.2643 19.4963 24.2144 19.5144 24.1646C19.4782 24.1646 19.433 24.1546 19.3969 24.1546L19.3517 24.1446L19.3065 24.1347C19.0353 24.0549 18.7732 23.9452 18.5021 23.7756C14.4257 21.2325 10.3402 18.6994 6.25475 16.1762L2.22351 13.683C1.90717 13.4835 1.59985 13.284 1.1208 12.9849L1.62308e-05 12.2668L1.07562 11.459ZM76.078 12.6458C76.06 13.1045 76.0238 13.4336 76.0329 13.7627C76.1052 20.674 76.1865 27.5853 76.2408 34.4966C76.2498 35.2146 76.3854 35.7133 77 36.1122C80.0641 38.0869 83.1282 40.0815 86.1923 42.0761L86.1923 42.1459C88.5604 43.6817 90.9195 45.2275 93.2876 46.7634C93.5497 46.9329 93.8299 47.0626 94.2186 47.272C94.2457 46.7733 94.2909 46.3944 94.2909 46.0154C94.2186 39.1939 94.1282 32.3624 94.1011 25.5408C94.1011 24.5834 93.8028 24.0449 93.0616 23.5662C90.7297 22.0702 88.3977 20.5543 86.0748 19.0385L86.0748 19.0484C82.8751 16.9641 79.6664 14.8897 76.4667 12.8053C76.3763 12.7455 76.2769 12.7156 76.078 12.6458ZM111.735 11.4889C106.24 8.06816 100.726 4.66737 95.2309 1.24664C94.9236 1.05715 94.6524 0.937474 94.3722 0.937474C94.1643 0.937474 93.9384 1.00729 93.6943 1.15688C91.1997 2.72264 88.696 4.2884 86.1923 5.84419L86.1923 5.89405C83.083 7.83879 79.9647 9.78352 76.8554 11.7283C76.7198 11.808 76.5932 11.9277 76.3492 12.1172C76.6294 12.3566 76.8283 12.5959 77.0813 12.7455C80.1183 14.6304 83.1553 16.5153 86.1923 18.4002L86.1923 18.47C88.5513 19.936 90.9014 21.3921 93.2514 22.8681C93.6672 23.1374 94.0378 23.267 94.4084 23.267C94.7699 23.267 95.1315 23.1374 95.5472 22.8781C100.844 19.5172 106.177 16.2261 111.491 12.9051C111.826 12.6956 112.151 12.4563 112.603 12.1471C112.233 11.8679 111.998 11.6485 111.735 11.4889ZM94.8603 24.2743C94.797 31.8837 94.7338 39.4931 94.6705 47.1224C95.7099 46.8432 109.738 37.8176 112.721 35.5438C112.784 28.0141 112.847 20.3948 112.91 12.4663C106.746 16.5053 100.844 20.3649 94.8603 24.2743ZM131.422 25.3613C131.412 24.6433 131.286 24.1446 130.662 23.7457C125.14 20.1853 119.644 16.5951 114.14 13.0148C113.941 12.8851 113.724 12.7854 113.408 12.6158C113.362 13.0447 113.29 13.3738 113.299 13.6929C113.362 20.6541 113.444 27.6152 113.507 34.5764C113.516 35.2944 113.634 35.8031 114.257 36.202C119.807 39.7823 125.339 43.4025 130.879 47.0027C131.042 47.1124 131.232 47.1723 131.575 47.3318C131.593 46.8033 131.629 46.4642 131.62 46.1151C131.557 39.1839 131.476 32.2726 131.422 25.3613ZM113.652 105.624C113.652 106.561 113.887 107.14 114.655 107.629C120.006 111.059 125.329 114.55 130.671 118.01C130.97 118.2 131.286 118.359 131.738 118.609C131.765 118.04 131.801 117.611 131.792 117.193C131.72 110.411 131.638 103.619 131.593 96.8378C131.584 95.9003 131.34 95.3318 130.581 94.8432C125.266 91.4224 119.979 87.9518 114.682 84.5012C114.357 84.2917 114.022 84.0823 113.516 83.7632C113.489 84.4214 113.453 84.8502 113.453 85.2691C113.525 92.0507 113.615 98.8324 113.652 105.624ZM113.444 82.8756C113.706 82.7858 113.941 82.7659 114.122 82.6462C119.689 79.016 125.248 75.3759 130.816 71.7457C131.268 71.4465 131.503 71.1274 131.512 70.4991C131.548 63.2786 131.611 56.0582 131.666 48.8278C131.666 48.6981 131.629 48.5685 131.584 48.2394C131.159 48.4787 130.843 48.6383 130.536 48.8378C125.176 52.3383 119.825 55.8587 114.456 59.3393C113.841 59.7382 113.561 60.1571 113.561 60.9849C113.534 67.946 113.462 74.9072 113.408 81.8583C113.408 82.1575 113.435 82.4567 113.444 82.8756ZM113.977 58.6811C119.518 55.1806 125.085 51.7399 130.644 48.2693C130.843 48.1496 131.024 47.9801 131.403 47.6909C130.951 47.4016 130.671 47.2221 130.4 47.0526C124.941 43.6717 119.472 40.2909 114.013 36.8901C113.697 36.6906 113.417 36.571 113.127 36.571C112.892 36.571 112.648 36.6508 112.368 36.8203C106.827 40.3108 101.26 43.7615 95.7009 47.2321C95.502 47.3618 95.3213 47.5213 95.023 47.7507C95.3845 48.02 95.6557 48.2593 95.9449 48.4388C101.413 51.8297 106.882 55.2005 112.332 58.6013C112.648 58.8008 112.938 58.9204 113.227 58.9204C113.462 58.9304 113.706 58.8606 113.977 58.6811ZM113.019 81.7785C112.947 74.8673 112.865 67.956 112.811 61.0447C112.802 60.3266 112.675 59.828 112.052 59.4291C106.502 55.8587 100.97 52.2385 95.4297 48.6483C95.258 48.5386 95.0772 48.4588 94.7247 48.2793C94.6976 48.8078 94.6705 49.1469 94.6795 49.486C94.7519 56.3973 94.8332 63.3086 94.8874 70.2198C94.8965 70.9379 95.032 71.4266 95.6557 71.8255C101.169 75.3859 106.665 78.9761 112.16 82.5564C112.368 82.6861 112.585 82.7958 112.929 82.9853C112.965 82.5165 113.019 82.1475 113.019 81.7785ZM76.7198 83.6634C77.0452 83.8729 77.2802 84.0225 77.5152 84.1721C80.4076 85.9672 83.2999 87.7623 86.1832 89.5475L86.1832 89.6173C88.6598 91.1532 91.1364 92.699 93.6039 94.2448C93.9564 94.4642 94.2547 94.5839 94.5711 94.5839C94.8513 94.5839 95.1405 94.4841 95.4659 94.2747C100.907 90.844 106.376 87.4532 111.835 84.0424C112.106 83.8729 112.359 83.6734 112.829 83.3244C112.287 82.9853 111.952 82.7659 111.618 82.5465C106.285 79.2454 100.952 75.9643 95.6376 72.6333C95.249 72.394 94.9055 72.2543 94.562 72.2543C94.2547 72.2543 93.9293 72.364 93.5678 72.5934C91.1183 74.1492 88.6508 75.685 86.1923 77.2209L86.1923 77.2508C83.2186 79.1058 80.2449 80.9608 77.2712 82.8157C77.0452 82.9554 76.8373 83.1448 76.4486 83.4341C76.5481 83.5238 76.6384 83.5936 76.7198 83.6634ZM86.0748 76.4929L86.0748 76.5427C88.7592 74.7875 91.4256 73.0422 94.1191 71.277C94.1824 63.6776 94.2457 56.0682 94.3089 48.4488C93.8751 48.5286 90.1693 50.8124 86.1923 53.3555L86.1923 53.4552C83.1101 55.4698 80.055 57.4644 76.9819 59.4789C76.7198 59.6684 76.5029 59.828 76.3311 59.9576C76.2679 67.5172 76.2046 75.0867 76.1413 82.9753C79.5127 80.7912 82.8028 78.6271 86.0748 76.4929ZM76.5481 58.711C79.7206 56.7264 82.8932 54.7418 86.0657 52.7671L86.0657 52.807C88.5333 51.2712 90.9918 49.7254 93.4593 48.1795C93.5949 48.0998 93.6943 47.9701 93.9836 47.7208C93.4864 47.4116 93.152 47.1922 92.7995 46.9728C90.5579 45.5766 88.3073 44.1903 86.0657 42.7941L86.0657 42.8041C82.9745 40.8893 79.8924 38.9645 76.8102 37.0297C76.6475 36.93 76.4938 36.8602 76.3492 36.8004C76.2679 36.7704 76.1775 36.7405 76.0961 36.7206C76.06 36.7106 76.0329 36.7106 75.9967 36.7006C75.9154 36.6907 75.8431 36.6807 75.7617 36.6807C75.6081 36.6807 75.4544 36.7006 75.3007 36.7505C75.129 36.8103 74.9482 36.9101 74.7494 37.0297C69.4166 40.4106 64.0567 43.7216 58.7149 47.0626C58.4076 47.252 58.1183 47.4715 57.7025 47.7706C58.0008 48.01 58.1997 48.1895 58.4166 48.3291C63.9844 51.7798 69.5612 55.2205 75.1109 58.6911C75.3731 58.8606 75.6081 58.9304 75.8431 58.9404C76.0781 58.9404 76.304 58.8706 76.5481 58.711ZM57.4314 49.6356C57.4947 56.4172 57.5851 63.2088 57.6212 69.9905C57.6302 70.9479 57.9105 71.4964 58.6516 71.9751C63.9302 75.3659 69.1726 78.7966 74.433 82.2174C74.7765 82.4368 75.129 82.6562 75.4905 82.8955C75.5629 82.5465 75.6442 82.2872 75.6352 82.0279C75.5719 74.9371 75.4905 67.8463 75.4273 60.7555C75.4273 60.6657 75.4182 60.576 75.4092 60.4962C75.3007 59.9975 75.0296 59.6285 74.5867 59.3094C69.0099 55.6992 63.4511 52.069 57.8833 48.4488C57.802 48.3989 57.7025 48.369 57.4947 48.2892C57.4856 48.3391 57.4675 48.389 57.4585 48.4388C57.4495 48.8876 57.4224 49.2666 57.4314 49.6356ZM57.4495 47.282C57.4675 47.272 57.4766 47.262 57.4947 47.2521C57.9375 46.9828 58.2539 46.7933 58.5612 46.5938C63.8127 43.1631 69.0641 39.7025 74.3336 36.3017C75.0748 35.823 75.373 35.3044 75.3821 34.337C75.3911 27.5554 75.4725 20.7738 75.5267 13.9921C75.5357 13.6032 75.4996 13.1943 75.4815 12.6857C75.355 12.7256 75.2375 12.7654 75.129 12.8053C74.9573 12.8951 74.7946 12.9749 74.65 13.0646C69.2177 16.605 63.8036 20.1654 58.3714 23.7058C57.8562 24.0349 57.5308 24.364 57.5308 25.122C57.5037 32.2128 57.4314 39.3036 57.3772 46.3944C57.3772 46.6337 57.4133 46.8831 57.4495 47.282ZM57.0789 23.257C57.2054 23.257 57.332 23.2271 57.4585 23.1972C57.576 23.1573 57.6935 23.1074 57.8291 23.0277C63.3788 19.5371 68.9375 16.0865 74.4963 12.6158C74.6951 12.4962 74.8759 12.3266 75.1832 12.0973C74.8488 11.838 74.6228 11.6285 74.3607 11.469C71.8841 9.93311 69.4076 8.3873 66.9219 6.85146C66.4881 6.58219 66.0633 6.31292 65.6294 6.05362C63.0444 4.44797 60.4684 2.85229 57.8833 1.24664C57.5851 1.08707 57.3139 1.00729 57.0427 1.00729C56.7806 1.00729 56.5185 1.0771 56.2292 1.22669C50.7247 4.6973 45.2021 8.12801 39.6795 11.5787C39.4807 11.7083 39.2999 11.8679 38.9203 12.1571C39.3722 12.4463 39.6434 12.6258 39.9236 12.7854C45.3829 16.1762 50.8513 19.5471 56.3106 22.9479C56.5818 23.1174 56.8258 23.2271 57.0789 23.257ZM56.7987 47.2421C56.8258 46.7734 56.871 46.4043 56.862 46.0353C56.7987 39.2138 56.6993 32.3923 56.6722 25.5608C56.6631 24.6034 56.3829 24.0648 55.6417 23.5861C55.2169 23.3069 54.7921 23.0376 54.3583 22.7584C49.4413 19.587 44.5423 16.3956 39.6343 13.2043C39.3722 13.0347 39.083 12.8851 38.7215 12.6857C38.7215 12.6857 38.7215 12.6857 38.7124 12.6857C38.6853 13.1644 38.6401 13.5334 38.6491 13.8924C38.7215 20.7638 38.8028 27.6252 38.848 34.4966C38.857 35.2745 39.0288 35.7831 39.6795 36.202C45.1208 39.7125 50.544 43.2629 55.9762 46.8033C56.2202 46.9429 56.4823 47.0725 56.7987 47.2421ZM21.051 48.2992C26.6187 51.7598 32.1956 55.2105 37.7634 58.6811C37.917 58.7709 38.0616 58.8407 38.1972 58.8905C38.2876 58.9105 38.378 58.9205 38.4684 58.9205C38.5949 58.9205 38.7305 58.9005 38.8661 58.8606C38.9384 58.8307 39.0107 58.8107 39.083 58.7609C44.7773 55.1806 50.4717 51.6302 56.175 48.0698C56.2744 48 56.3558 47.9003 56.645 47.631C56.1841 47.3418 55.8496 47.1224 55.5152 46.913C50.1463 43.592 44.7773 40.2809 39.4265 36.94C39.2547 36.8303 39.092 36.7505 38.9294 36.6907C38.9022 36.6807 38.8751 36.6807 38.848 36.6707C38.7305 36.6308 38.622 36.6109 38.5136 36.6009C38.2243 36.6109 37.9261 36.7006 37.5826 36.92C32.1775 40.3408 26.7453 43.7017 21.3221 47.0925C21.051 47.262 20.7888 47.4615 20.4183 47.7208C20.6623 47.9402 20.834 48.1596 21.051 48.2992ZM21.1142 46.6337C26.4018 43.1831 31.6804 39.7025 36.9861 36.2818C37.7453 35.7931 37.9893 35.2545 37.9984 34.3071C38.0165 27.5753 38.0887 20.8336 38.143 14.0919C38.143 13.683 38.1249 13.2541 38.1159 12.5959C37.9893 12.6657 37.8899 12.7256 37.7905 12.7854C31.9696 16.5951 26.3205 20.2851 20.581 24.0349C20.4092 24.2045 20.3008 24.4039 20.2194 24.6333C20.1561 32.0831 20.0929 39.5729 20.0296 47.262C20.4906 47.0027 20.816 46.8332 21.1142 46.6337ZM2.63025 12.8951C8.06247 16.256 13.4947 19.6169 18.9178 22.9878C19.1257 23.1174 19.3246 23.1972 19.5144 23.257C19.5867 23.267 19.659 23.277 19.7313 23.277C19.8579 23.277 19.9844 23.257 20.1109 23.2271C20.2194 23.1872 20.3188 23.1473 20.4363 23.0775C25.977 19.587 31.5448 16.1363 37.1035 12.6657C37.3024 12.5361 37.4922 12.3865 37.7905 12.1471C37.4651 11.8978 37.2391 11.6784 36.977 11.5188C31.4815 8.10806 25.9861 4.6973 20.4906 1.27656C20.3821 1.20675 20.2827 1.15689 20.1832 1.117C20.1109 1.08708 20.0296 1.05716 19.9573 1.03721C19.9482 1.03721 19.9482 1.03721 19.9392 1.02724C19.8398 0.997319 19.7404 0.987346 19.6409 0.987346C19.5596 0.987346 19.4692 0.997319 19.3788 1.01727C19.2523 1.05716 19.1167 1.117 18.963 1.20675C13.4224 4.6973 7.85458 8.14796 2.29584 11.6186C2.09699 11.7482 1.91621 11.9078 1.52754 12.197C2.00659 12.5062 2.3139 12.7056 2.63025 12.8951Z" fill="#FFFEFE"/>
</svg>
