<svg width="147" height="34" viewBox="0 0 147 34" fill="none" xmlns="http://www.w3.org/2000/svg">
<path d="M146.516 22.4935C143.775 19.4404 141.216 16.2487 138.83 12.8783C137.669 11.2412 136.542 9.57465 135.414 7.91081C134.55 6.63626 133.595 4.56712 132.133 4.01251C131.998 3.96184 131.794 4.07117 131.772 4.23115C131.546 5.88166 132.829 7.6895 133.573 9.0547C134.613 10.9665 135.74 12.8144 136.911 14.6382C138.028 16.3794 139.184 18.0992 140.367 19.795C125.332 13.353 109.423 9.64931 93.1692 9.07337C75.3235 8.43876 57.3069 11.4705 40.5739 18.1099C35.8619 19.9817 31.2479 22.1282 26.7745 24.5759C24.5265 25.8078 22.3036 27.101 20.1335 28.4822C18.0513 29.8101 15.8084 31.138 14.1381 33.0258C13.799 33.4071 14.128 34.167 14.653 33.967C16.6548 33.2018 18.4155 31.9326 20.2742 30.8447C22.2007 29.7168 24.1246 28.5862 26.0913 27.533C30.0448 25.4132 34.1037 23.5094 38.238 21.8242C46.391 18.5018 54.853 16.054 63.4556 14.4649C80.6935 11.2812 98.6071 11.6385 115.682 15.7181C122.114 17.2539 128.441 19.2857 134.555 21.8855C133.437 21.9468 132.322 22.0215 131.204 22.1148C128.765 22.3175 126.334 22.6028 123.908 22.9521C121.511 23.296 119.027 23.552 116.742 24.3893C114.936 25.0505 115.089 28.2449 117.216 28.1223C119.645 27.9809 122.046 27.373 124.458 27.0024C126.698 26.6557 128.949 26.3891 131.204 26.1838C133.47 25.9758 135.743 25.8371 138.013 25.7518C139.533 25.6931 141.078 25.7465 142.61 25.7198C142.866 25.8558 143.125 25.9891 143.381 26.1278C144.644 26.8104 145.825 26.1011 146.367 25.0772C147.066 24.4453 147.284 23.3494 146.516 22.4935Z" fill="#FFD35E"/>
</svg>
