<svg width="885" height="752" viewBox="0 0 885 752" fill="none" xmlns="http://www.w3.org/2000/svg">
<path d="M-168.207 0.0952148L-168.207 776.095M-143.102 0.0952148L-143.102 776.095M-117.997 0.0952148L-117.997 776.095M-92.8915 0.0952148L-92.8915 776.095M-67.7861 0.0952148L-67.7862 776.095M-42.6808 0.0952148L-42.6808 776.095M-17.5755 0.0952148L-17.5755 776.095M7.52988 0.0952148L7.52983 776.095M32.6352 0.0952148L32.6351 776.095M57.7405 0.0952148L57.7404 776.095M82.8458 0.0952148L82.8457 776.095M107.951 0.0952148L107.951 776.095M133.056 0.0952148L133.056 776.095M158.162 0.0952148L158.162 776.095M183.267 0.0952148V776.095M208.372 0.0952148L208.372 776.095M233.478 0.0952148L233.478 776.095M258.583 0.0952148L258.583 776.095M283.688 0.0952148L283.688 776.095M308.794 0.0952148L308.793 776.095M333.899 0.0952148L333.899 776.095M359.004 0.0952148L359.004 776.095M384.109 0.0952148V776.095M409.215 0.0952148L409.215 776.095M434.32 0.0952148L434.32 776.095M459.425 0.0952148L459.425 776.095M484.531 0.0952148V776.095M509.636 0.0952148L509.636 776.095M534.741 0.0952148L534.741 776.095M559.847 0.0952148V776.095M584.952 0.0952148L584.952 776.095M610.057 0.0952148L610.057 776.095M635.162 0.0952148L635.162 776.095M660.268 0.0952148V776.095M685.373 0.0952148L685.373 776.095M710.478 0.0952148L710.478 776.095M735.584 0.0952148L735.584 776.095M760.689 0.0952148L760.689 776.095M785.794 0.0952148L785.794 776.095M810.9 0.0952148L810.899 776.095M836.005 0.0952148L836.005 776.095M861.11 0.0952148V776.095M885 23.9908L-184 23.9907M885 0.500269L-184 0.500176M885 49.1015L-184 49.1014M885 74.2122L-184 74.2121M885 99.3229L-184 99.3228M885 124.434L-184 124.433M885 149.544L-184 149.544M885 174.655L-184 174.655M885 199.766L-184 199.766M885 224.876L-184 224.876M885 249.987L-184 249.987M885 275.098L-184 275.097M885 300.208L-184 300.208M885 325.319L-184 325.319M885 350.429L-184 350.429M885 375.54L-184 375.54M885 400.651L-184 400.651M885 425.761L-184 425.761M885 450.872L-184 450.872M885 475.983L-184 475.983M885 501.093L-184 501.093M885 526.204L-184 526.204M885 551.315L-184 551.315M885 576.425L-184 576.425M885 601.536L-184 601.536M885 626.647L-184 626.646M885 651.757L-184 651.757M885 676.868L-184 676.868M885 701.979L-184 701.978M885 727.089L-184 727.089M885 752.2L-184 752.2" stroke="url(#paint0_linear_2037_572)"/>
<defs>
<linearGradient id="paint0_linear_2037_572" x1="39.5187" y1="132.129" x2="350.607" y2="776.043" gradientUnits="userSpaceOnUse">
<stop stop-color="#F6F6F6" stop-opacity="0.92"/>
<stop offset="1" stop-color="white"/>
</linearGradient>
</defs>
</svg>
