<svg width="133" height="109" viewBox="0 0 133 109" fill="none" xmlns="http://www.w3.org/2000/svg">
<path d="M125.763 37.1029C123.747 39.768 121.719 42.4244 119.702 45.0895C119.541 45.3069 119.362 45.4243 119.011 45.4243C114.973 45.4417 110.934 45.4721 106.895 45.5025C106.822 45.5025 106.75 45.4895 106.677 45.4808C106.755 45.0721 111.792 38.3028 113.14 36.8029C117.39 36.7724 121.624 36.742 125.942 36.7116C125.869 36.8724 125.841 36.9985 125.763 37.1029ZM105.474 45.4764C101.563 45.4417 97.6581 45.4069 93.7473 45.3765C93.3574 45.3721 93.1178 45.2852 92.9173 45.0156C90.9173 42.3461 88.8951 39.6897 86.8895 37.0246C86.8283 36.942 86.7781 36.8551 86.689 36.7072C86.9118 36.6855 87.0901 36.6507 87.2684 36.6507C91.1792 36.6811 95.0844 36.7203 98.9951 36.7507C99.3405 36.7551 99.5912 36.8029 99.7862 37.0594C101.836 39.7941 103.898 42.52 105.959 45.2504C105.987 45.2808 105.987 45.3243 106.037 45.446C105.803 45.4634 105.641 45.4764 105.474 45.4764ZM112.51 36.6029C112.51 36.7898 112.427 36.9768 112.271 37.1898C110.416 39.7028 108.599 42.2331 106.767 44.7591C106.638 44.9417 106.505 45.1156 106.321 45.3591C106.159 45.1895 106.026 45.0808 105.937 44.9591C104.054 42.3461 102.182 39.7289 100.282 37.1246C100.148 36.9377 100.076 36.7768 100.076 36.6072C100.076 36.4551 100.137 36.2986 100.265 36.1246C102.165 33.5421 104.031 30.9466 105.909 28.3554C106.014 28.2076 106.137 28.0684 106.338 27.8293C106.7 28.3206 106.995 28.7163 107.285 29.1162C108.95 31.4292 110.594 33.7465 112.287 36.0464C112.438 36.242 112.51 36.4246 112.51 36.6029ZM86.6389 18.4862C86.7893 18.2601 86.8895 18.0906 87.0121 17.9341C88.9452 15.3863 90.8895 12.8473 92.8003 10.2909C93.0677 9.93004 93.363 9.79526 93.9033 9.79526C97.6971 9.78657 101.491 9.75179 105.279 9.7257C105.519 9.7257 105.753 9.73874 106.076 9.75179C105.925 9.97786 105.825 10.1474 105.703 10.3039C103.769 12.8517 101.825 15.3907 99.9143 17.9471C99.6469 18.308 99.3517 18.4427 98.8169 18.4427C95.0231 18.4514 91.2293 18.4862 87.4411 18.5123C87.2015 18.5123 86.9675 18.4949 86.6389 18.4862ZM85.5581 18.4862C81.6473 18.4558 77.7365 18.4167 73.8313 18.3862C73.4859 18.3819 73.2352 18.3297 73.0403 18.0732C71.0013 15.3559 68.9456 12.6473 66.8955 9.93439C66.8565 9.88656 66.8398 9.83004 66.773 9.69527C67.0404 9.68222 67.2298 9.66483 67.4192 9.66918C71.2799 9.70396 75.1405 9.74309 79.0011 9.76918C79.4022 9.77352 79.6808 9.8257 79.9092 10.13C81.9036 12.7995 83.9258 15.4603 85.9369 18.121C85.9982 18.2036 86.0428 18.2906 86.1375 18.4384C85.9146 18.4558 85.7364 18.4862 85.5581 18.4862ZM92.505 9.98656C90.5496 12.656 88.6221 15.3342 86.6779 18.008C86.6054 18.108 86.5163 18.1949 86.3882 18.3427C86.2489 18.1993 86.1152 18.0906 86.0261 17.9688C84.132 15.3429 82.2434 12.7082 80.3382 10.0822C80.2156 9.91265 80.1432 9.76048 80.1432 9.60831C80.1432 9.47788 80.1933 9.34311 80.3047 9.18659C82.2434 6.55191 84.1487 3.90419 86.0651 1.26517C86.1486 1.15213 86.2489 1.04778 86.4327 0.83475C86.6166 1.08691 86.7391 1.24778 86.8561 1.40864C88.7168 3.9868 90.5664 6.5693 92.4326 9.14746C92.5552 9.31702 92.6443 9.46919 92.6443 9.6344C92.6443 9.73874 92.6053 9.85613 92.505 9.98656ZM52.6173 10.017C50.7176 12.5995 48.8514 15.195 46.974 17.7862C46.8681 17.9341 46.74 18.0732 46.5784 18.2688C46.4336 18.108 46.3054 17.9993 46.2163 17.8775C44.3166 15.2472 42.4337 12.6169 40.5228 9.99091C40.4003 9.8257 40.339 9.67788 40.339 9.53006C40.339 9.39528 40.3947 9.25615 40.5117 9.09529C42.4337 6.478 44.3222 3.84767 46.2275 1.22604C46.3222 1.09561 46.4391 0.973875 46.6286 0.747797C46.818 1.00431 46.9405 1.16952 47.0631 1.33038C48.9071 3.8955 50.7399 6.46061 52.6006 9.01703C52.7343 9.20398 52.8123 9.36484 52.8123 9.5344C52.8067 9.68657 52.7454 9.83874 52.6173 10.017ZM39.1691 9.70831C39.5646 9.71266 39.8488 9.76048 40.0772 10.0648C42.0771 12.7343 44.0938 15.3994 46.1105 18.0602C46.1717 18.1384 46.2107 18.2297 46.2999 18.3688C46.0715 18.3906 45.8876 18.4254 45.7094 18.4254C41.8209 18.3949 37.9324 18.3471 34.0439 18.3297C33.5536 18.3254 33.2974 18.1862 33.0578 17.8689C31.0969 15.2472 29.1136 12.6343 27.1415 10.0213C27.0691 9.92569 27.0189 9.817 26.9075 9.63005C27.2028 9.61701 27.3978 9.60397 27.5872 9.60397C31.4367 9.64309 35.3029 9.67788 39.1691 9.70831ZM53.4251 9.75179C57.6422 9.72135 61.8817 9.69092 66.2939 9.66049C64.0544 12.6169 61.8929 15.4646 59.7035 18.3427C55.4529 18.3732 51.2023 18.4036 46.9405 18.434C47.0575 17.9906 52.5226 10.6865 53.4251 9.75179ZM60.3274 18.2341C62.3107 15.5168 64.2828 12.7908 66.2549 10.0692C66.2995 10.0083 66.3719 9.95178 66.5111 9.81265C66.6838 10.0474 66.812 10.2083 66.929 10.3778C68.7729 12.9386 70.6058 15.5037 72.472 18.0558C72.6113 18.2471 72.6837 18.4123 72.6837 18.5775C72.6837 18.7427 72.6113 18.9123 72.472 19.1036C70.5835 21.6644 68.7339 24.2425 66.8677 26.8163C66.7618 26.9641 66.6337 27.1033 66.4722 27.3033C66.3385 27.1598 66.2326 27.0685 66.1546 26.9641C64.2271 24.286 62.3051 21.6078 60.372 18.9297C60.2717 18.7949 60.2104 18.6732 60.2104 18.5427C60.216 18.4427 60.2494 18.3427 60.3274 18.2341ZM59.1743 18.7166C59.5587 18.721 59.8038 18.7993 60.0099 19.0732C62.0154 21.7426 64.0377 24.4034 66.0488 27.0685C66.11 27.1511 66.149 27.238 66.2549 27.412C65.9318 27.425 65.7145 27.438 65.4972 27.438C61.6812 27.4033 57.8707 27.3641 54.0546 27.3424C53.5643 27.338 53.2524 27.2424 52.9905 26.8902C51.0463 24.2816 49.0742 21.6861 47.1132 19.0905C47.0297 18.9775 46.9572 18.8558 46.8458 18.6862C47.0464 18.6601 47.2024 18.6167 47.3583 18.6167C51.297 18.6471 55.2356 18.6862 59.1743 18.7166ZM67.0237 26.9859C69.0013 24.3773 70.9902 21.7644 72.9678 19.1558C73.1517 18.9079 73.3355 18.7514 73.7589 18.7514C77.7254 18.7384 81.6807 18.7036 85.6417 18.6732C85.7809 18.6732 85.9202 18.6949 86.1765 18.7123C85.9982 18.9645 85.8812 19.134 85.7587 19.2992C83.8423 21.8252 81.9092 24.3512 80.0095 26.8859C79.7421 27.2424 79.4524 27.3902 78.912 27.3902C75.1182 27.3989 71.3356 27.4337 67.5418 27.4598C67.3078 27.4598 67.0682 27.4467 66.7451 27.438C66.8621 27.2467 66.929 27.1076 67.0237 26.9859ZM87.3185 18.6993C91.1847 18.734 95.0454 18.7732 98.9116 18.7949C99.3517 18.7993 99.6247 18.8992 99.8531 19.2036C101.82 21.8252 103.803 24.4382 105.775 27.0511C105.859 27.1641 105.931 27.2859 106.048 27.4728C105.781 27.4902 105.574 27.5163 105.374 27.5163C101.508 27.4815 97.647 27.4424 93.7808 27.4206C93.2905 27.4163 93.0343 27.2772 92.7947 26.9598C90.8338 24.3382 88.8505 21.7252 86.8784 19.1123C86.806 19.0166 86.7558 18.9079 86.6444 18.721C86.9397 18.7123 87.1291 18.6993 87.3185 18.6993ZM80.3047 27.1859C82.2601 24.5208 84.1877 21.8426 86.1263 19.1731C86.1932 19.0775 86.2823 18.9905 86.4495 18.8036C86.6221 19.0384 86.7336 19.1862 86.8394 19.334C88.7057 21.9296 90.5664 24.5295 92.4493 27.112C92.5719 27.2815 92.6387 27.4337 92.6387 27.5815C92.6387 27.7293 92.5775 27.8815 92.4493 28.0554C90.5552 30.6379 88.689 33.2335 86.8116 35.8203C86.7057 35.9681 86.5832 36.1029 86.416 36.3029C86.26 36.1246 86.1319 35.9986 86.0261 35.8594C84.132 33.2335 82.249 30.6031 80.3493 27.9771C80.2379 27.825 80.171 27.6859 80.171 27.5424C80.171 27.4337 80.21 27.3207 80.3047 27.1859ZM79.1126 27.7467C79.4802 27.7511 79.6919 27.8598 79.8758 28.1032C81.8757 30.7683 83.8924 33.4291 85.8979 36.0942C85.9703 36.1899 86.0149 36.2899 86.0985 36.442C85.8144 36.4551 85.6027 36.4725 85.391 36.4681C81.5526 36.4377 77.7143 36.3985 73.8815 36.3681C73.4859 36.3638 73.2018 36.3203 72.9734 36.0116C70.9679 33.3248 68.9345 30.651 66.9067 27.9728C66.8565 27.9076 66.8231 27.838 66.7563 27.7206C66.9345 27.6945 67.0905 27.6467 67.2409 27.6511C71.1963 27.6772 75.1572 27.7163 79.1126 27.7467ZM86.6221 36.4507C88.8282 33.5074 91.012 30.664 93.1903 27.7902C97.452 27.7598 101.703 27.7293 106.098 27.6989C105.886 27.9902 105.775 28.1597 105.647 28.3206C103.742 30.8379 101.82 33.3465 99.9311 35.8681C99.6525 36.2377 99.3628 36.4029 98.7835 36.4029C95.0398 36.4029 91.2961 36.442 87.5581 36.4681C87.2962 36.4681 87.0344 36.4594 86.6221 36.4507ZM126.048 36.4942C125.68 36.5072 125.446 36.5246 125.212 36.5246C121.418 36.4942 117.63 36.4464 113.842 36.4333C113.262 36.4333 112.961 36.2768 112.683 35.8986C110.778 33.3422 108.839 30.7944 106.917 28.2467C106.806 28.1032 106.722 27.9511 106.572 27.7206C106.928 27.7119 107.145 27.7032 107.368 27.7032C111.156 27.738 114.945 27.7772 118.738 27.7989C119.262 27.8032 119.58 27.9163 119.853 28.2858C121.763 30.8422 123.697 33.3856 125.63 35.9334C125.752 36.0942 125.869 36.2551 126.048 36.4942ZM126.566 19.3166C128.471 21.9556 130.376 24.6034 132.287 27.2467C132.398 27.3989 132.465 27.5337 132.465 27.6772C132.465 27.7902 132.421 27.9076 132.326 28.038C130.376 30.7031 128.449 33.3813 126.51 36.0507C126.437 36.1464 126.348 36.2333 126.187 36.4203C126.014 36.1899 125.908 36.0464 125.797 35.8942C123.919 33.2813 122.042 30.6683 120.159 28.0598C120.048 27.9076 119.975 27.7685 119.975 27.625C119.975 27.5163 120.014 27.3989 120.109 27.2685C122.059 24.6034 123.986 21.9252 125.925 19.2514C125.997 19.1558 126.081 19.0688 126.215 18.921C126.354 19.0818 126.476 19.1905 126.566 19.3166ZM126.025 18.7688C123.797 21.7035 121.646 24.5382 119.446 27.4293C115.207 27.4598 110.945 27.4902 106.56 27.5206C106.728 27.2685 106.828 27.0989 106.95 26.9424C108.878 24.399 110.822 21.86 112.733 19.3079C113.006 18.9427 113.307 18.8253 113.836 18.821C117.596 18.8123 121.362 18.7775 125.128 18.7514C125.373 18.7514 125.613 18.7645 126.025 18.7688ZM112.382 19.0862C110.471 21.6861 108.594 24.299 106.7 26.9076C106.605 27.0381 106.494 27.1641 106.349 27.3424C106.221 27.2207 106.098 27.138 106.02 27.0337C104.087 24.3556 102.159 21.6731 100.221 18.9949C100.12 18.8601 100.059 18.7384 100.059 18.608C100.059 18.5123 100.093 18.4123 100.171 18.3036C102.171 15.5646 104.154 12.8256 106.143 10.0822C106.182 10.0344 106.237 9.99525 106.388 9.85613C106.549 10.0779 106.672 10.2387 106.789 10.3996C108.644 12.9821 110.494 15.5646 112.36 18.1384C112.488 18.3123 112.555 18.4645 112.555 18.621C112.56 18.7688 112.505 18.9166 112.382 19.0862ZM125.234 18.5688C121.396 18.534 117.563 18.4949 113.725 18.4732C113.29 18.4688 113.006 18.3862 112.772 18.0732C110.811 15.4559 108.828 12.8473 106.85 10.2344C106.755 10.1083 106.683 9.97352 106.566 9.78657C106.85 9.77352 107.062 9.75179 107.274 9.75179C111.084 9.78657 114.895 9.83004 118.711 9.84309C119.245 9.84743 119.546 9.98221 119.814 10.3431C121.73 12.9169 123.674 15.4733 125.613 18.0384C125.719 18.1819 125.808 18.3341 125.942 18.534C125.663 18.5471 125.451 18.5688 125.234 18.5688ZM126.599 1.33908C128.504 3.9781 130.404 6.62582 132.315 9.2692C132.426 9.42136 132.493 9.55614 132.493 9.69961C132.493 9.81265 132.448 9.93004 132.354 10.0605C130.404 12.7256 128.471 15.4037 126.538 18.0775C126.465 18.1732 126.376 18.2601 126.215 18.4427C126.053 18.2254 125.953 18.0949 125.864 17.9602C123.97 15.3342 122.087 12.7038 120.187 10.0779C120.075 9.92569 120.009 9.79091 120.009 9.64744C120.009 9.5344 120.053 9.42136 120.148 9.28659C122.098 6.61713 124.025 3.94332 125.964 1.26951C126.031 1.17387 126.125 1.08691 126.254 0.943441C126.393 1.09996 126.504 1.213 126.599 1.33908ZM106.967 8.93443C108.889 6.40844 110.817 3.88245 112.716 1.34777C112.984 0.991265 113.273 0.847792 113.814 0.843445C117.602 0.834749 121.39 0.799968 125.178 0.773882C125.418 0.769535 125.652 0.786925 125.975 0.799968C125.858 0.991265 125.791 1.12604 125.697 1.25212C123.719 3.86506 121.73 6.46931 119.752 9.08225C119.569 9.32571 119.385 9.48658 118.961 9.48658C115 9.49962 111.039 9.5344 107.079 9.56049C106.939 9.56049 106.794 9.5431 106.544 9.52136C106.728 9.26485 106.845 9.09964 106.967 8.93443ZM99.0676 0.817359C99.3851 0.817359 99.6191 0.878226 99.7974 1.113C101.842 3.83028 103.898 6.54322 105.948 9.25615C105.987 9.30398 105.998 9.3605 106.07 9.51267C105.747 9.52136 105.508 9.5344 105.274 9.53006C101.485 9.49962 97.6916 9.45615 93.9033 9.43876C93.3685 9.43441 93.0621 9.30398 92.7947 8.94312C90.8783 6.37366 88.9285 3.80854 86.9954 1.24343C86.8951 1.113 86.8004 0.98257 86.6611 0.795621C86.8784 0.76084 87.0288 0.713016 87.1848 0.717363C91.1457 0.747797 95.1066 0.786926 99.0676 0.817359ZM73.0124 1.14778C73.174 0.934746 73.33 0.795621 73.6865 0.791274C77.7477 0.773883 81.8089 0.743449 85.8756 0.721711C85.9202 0.721711 85.9703 0.739101 86.1208 0.773883C85.0957 2.24774 83.9648 3.65203 82.8896 5.08241C81.8089 6.52148 80.7058 7.9562 79.6084 9.39963C75.341 9.43006 71.1127 9.46049 66.7953 9.49093C66.8788 9.31702 66.9067 9.19094 66.9847 9.08659C68.9958 6.43453 71.0069 3.79115 73.0124 1.14778ZM59.0796 0.756492C59.4862 0.76084 59.7592 0.830402 59.982 1.12604C61.9764 3.7955 63.9931 6.45627 66.0042 9.11703C66.0655 9.19963 66.11 9.28659 66.2103 9.4518C65.9095 9.46049 65.7201 9.47788 65.5307 9.47354C61.67 9.43876 57.8094 9.39963 53.9487 9.37354C53.5421 9.36919 53.2802 9.29528 53.0574 8.99964C51.0741 6.34758 49.0631 3.7042 47.0631 1.06083C46.9907 0.960832 46.935 0.856489 46.8347 0.699973C47.0631 0.678235 47.2469 0.647801 47.4308 0.652149C51.3137 0.691278 55.1966 0.730407 59.0796 0.756492ZM33.4366 0.721712C37.6984 0.691278 41.9546 0.660844 46.2776 0.630411C46.2163 0.778231 46.2052 0.886922 46.1383 0.973875C44.1105 3.65203 42.0716 6.33018 40.0437 9.00834C39.8766 9.22572 39.6983 9.33876 39.3474 9.34311C35.3085 9.3605 31.2751 9.39093 27.2362 9.41702C27.1638 9.41702 27.0914 9.40397 26.863 9.37789C29.0802 6.46061 31.2473 3.60421 33.4366 0.721712ZM7.03606 0.652149C7.19205 0.621716 7.32018 0.573892 7.44831 0.573892C11.4315 0.604325 15.4147 0.643454 19.3979 0.673888C19.7266 0.678235 19.9439 0.756493 20.1166 0.982571C22.1667 3.71724 24.2279 6.44322 26.2892 9.17355C26.3114 9.20833 26.317 9.24746 26.3671 9.36919C26.1165 9.37789 25.927 9.39528 25.7376 9.39528C21.8547 9.3605 17.9662 9.32572 14.0777 9.29963C13.6933 9.29528 13.4482 9.20833 13.2476 8.93878C11.2477 6.27366 9.231 3.6129 7.21433 0.952137C7.16419 0.869532 7.11963 0.778231 7.03606 0.652149ZM6.27841 17.6906C4.41216 15.0951 2.55149 12.4995 0.668518 9.9083C0.551529 9.74744 0.49025 9.60397 0.49025 9.46484C0.49025 9.32137 0.551543 9.18224 0.674103 9.01703C2.57936 6.41714 4.45674 3.80855 6.34528 1.19995C6.45112 1.05648 6.57926 0.926052 6.74081 0.739102C6.90237 0.934747 7.02492 1.06952 7.13077 1.21734C9.00259 3.80855 10.8633 6.40844 12.7463 8.99095C12.8744 9.1692 12.9412 9.32572 12.9412 9.48223C12.9412 9.6431 12.8744 9.80396 12.7407 9.98656C10.8466 12.5691 8.98032 15.1603 7.10292 17.7515C6.99707 17.8949 6.86894 18.0254 6.6851 18.2384C6.51797 18.008 6.3954 17.8515 6.27841 17.6906ZM7.0472 18.3514C7.09734 18.221 7.1085 18.1123 7.17535 18.0254C9.20316 15.3472 11.2421 12.6734 13.2644 9.99525C13.4315 9.77787 13.6097 9.66483 13.9607 9.66049C17.9941 9.6431 22.0274 9.61266 26.0663 9.58658C26.1387 9.58658 26.2112 9.60397 26.4006 9.6257C26.2669 9.83004 26.1777 9.98221 26.0719 10.1257C24.1165 12.7038 22.15 15.2777 20.2057 17.8602C19.9829 18.1558 19.7545 18.2906 19.2865 18.2949C15.398 18.308 11.5095 18.3427 7.62659 18.3688C7.44833 18.3732 7.28118 18.3601 7.0472 18.3514ZM26.278 26.7728C24.3895 24.1469 22.5009 21.5165 20.6012 18.8906C20.4898 18.7384 20.423 18.5993 20.423 18.4558C20.423 18.3471 20.462 18.2297 20.5622 18.0993C22.5176 15.4342 24.4452 12.756 26.3783 10.0822C26.4507 9.98656 26.5398 9.89961 26.668 9.75179C26.824 9.92569 26.9521 10.0518 27.0524 10.1952C28.9465 12.8212 30.835 15.4516 32.7347 18.0775C32.8461 18.2297 32.913 18.3688 32.913 18.5123C32.913 18.6253 32.8684 18.7384 32.7737 18.8688C30.8239 21.5383 28.8908 24.2121 26.9577 26.8859C26.8852 26.9815 26.7961 27.0685 26.6346 27.2554C26.473 27.0381 26.3727 26.9076 26.278 26.7728ZM27.1917 26.9337C29.186 24.3034 31.186 21.6774 33.1748 19.0471C33.3586 18.8036 33.5536 18.6949 33.9269 18.6906C37.9156 18.6732 41.9044 18.6384 45.8932 18.6123C45.9879 18.6123 46.0882 18.6253 46.3054 18.6427C45.2693 20.147 44.1328 21.547 43.0632 22.973C41.9824 24.4121 40.8849 25.8468 39.7819 27.2902C35.5202 27.3207 31.2863 27.3511 26.9521 27.3815C27.0524 27.1946 27.1025 27.0554 27.1917 26.9337ZM40.4894 27.0772C42.4114 24.4599 44.2999 21.8296 46.2052 19.2079C46.2999 19.0775 46.4169 18.9601 46.5951 18.7427C46.9517 19.2297 47.2525 19.6253 47.5366 20.0209C49.2023 22.3339 50.8513 24.6512 52.5393 26.9511C52.6897 27.1598 52.7733 27.338 52.7733 27.5206C52.7733 27.6859 52.7064 27.8554 52.5616 28.0511C50.6786 30.5988 48.8402 33.1596 46.9851 35.716C46.8681 35.8812 46.7344 36.0377 46.5728 36.2464C46.4336 36.1073 46.311 36.016 46.233 35.9073C44.3222 33.2639 42.4225 30.6118 40.5061 27.9728C40.3836 27.8076 40.3223 27.6598 40.3223 27.5119C40.3167 27.3728 40.3724 27.2337 40.4894 27.0772ZM45.6425 36.3855C41.7819 36.3507 37.9212 36.3116 34.0606 36.2855C33.6595 36.2812 33.3865 36.2159 33.1637 35.916C31.1637 33.2465 29.147 30.5901 27.1359 27.925C27.0747 27.8424 27.0301 27.7554 26.9521 27.625C27.1415 27.5989 27.3031 27.5598 27.459 27.5598C31.3921 27.5902 35.3307 27.6293 39.2638 27.6598C39.6092 27.6641 39.8599 27.7206 40.0493 27.9771C42.0883 30.6944 44.1384 33.403 46.1885 36.116C46.2275 36.1638 46.2386 36.2203 46.3054 36.3551C46.0213 36.3725 45.8319 36.3855 45.6425 36.3855ZM46.7734 36.3681C48.9906 33.4465 51.1577 30.5944 53.3471 27.7076C57.6088 27.6772 61.8594 27.6467 66.1992 27.6163C66.1268 27.7815 66.0933 27.9076 66.0153 28.0076C63.9987 30.6727 61.9709 33.3291 59.9542 35.9942C59.7926 36.2116 59.6199 36.329 59.2634 36.3333C55.2245 36.3507 51.1856 36.3812 47.1467 36.4072C47.0798 36.4116 47.0074 36.3942 46.7734 36.3681ZM60.4277 36.0855C62.3497 33.4682 64.2382 30.8379 66.1435 28.2163C66.2382 28.0858 66.3496 27.9685 66.5446 27.738C66.734 27.9945 66.8566 28.1597 66.9735 28.3206C68.8175 30.8857 70.6503 33.4508 72.511 36.0073C72.6503 36.1942 72.7227 36.3551 72.7227 36.5246C72.7227 36.6768 72.6614 36.829 72.5333 37.0029C70.6336 39.5854 68.7674 42.1809 66.89 44.7765C66.7841 44.9243 66.6616 45.0634 66.5 45.2591C66.3496 45.1026 66.227 44.9939 66.1379 44.8678C64.2438 42.2374 62.3553 39.6071 60.4444 36.9855C60.3219 36.8159 60.255 36.6725 60.255 36.5246C60.255 36.3812 60.3107 36.242 60.4277 36.0855ZM53.8763 45.3243C53.4028 45.3199 53.18 45.1504 52.9627 44.8634C51.2134 42.5244 49.453 40.1897 47.6926 37.8507C47.4085 37.4724 47.1299 37.0898 46.779 36.6116C47.1467 36.6029 47.3862 36.5942 47.6257 36.5942C51.4418 36.629 55.2523 36.6681 59.0684 36.6898C59.5085 36.6942 59.7815 36.7898 60.0155 37.0985C61.9764 39.7202 63.9597 42.3331 65.9374 44.946C66.0265 45.0591 66.0933 45.1808 66.1992 45.346C66.0042 45.3721 65.8426 45.4156 65.6867 45.4156C61.7536 45.3895 57.815 45.346 53.8763 45.3243ZM73.3299 36.7377C77.5416 36.7072 81.7866 36.6768 86.2043 36.6464C83.9481 39.6158 81.7922 42.4548 79.6084 45.3286C75.3633 45.3591 71.1127 45.3895 66.851 45.4199C66.9624 44.9895 72.3662 37.7594 73.3299 36.7377ZM85.9425 53.7718C84.0762 51.1762 82.2211 48.5807 80.3326 45.9938C80.2156 45.8286 80.1543 45.6895 80.1543 45.546C80.1543 45.4025 80.2156 45.2634 80.3326 45.0982C82.2378 42.4983 84.1152 39.8897 86.0038 37.2811C86.1096 37.1377 86.2378 37.0072 86.3993 36.8203C86.5609 37.0116 86.6834 37.1507 86.7893 37.2942C88.6611 39.8854 90.5218 42.4853 92.4048 45.0678C92.5385 45.246 92.5997 45.4069 92.5997 45.5634C92.5997 45.7243 92.5329 45.8851 92.3992 46.0634C90.5051 48.6459 88.6388 51.2414 86.7614 53.8283C86.6556 53.9718 86.5274 54.1065 86.3436 54.3152C86.1765 54.0892 86.0595 53.9283 85.9425 53.7718ZM125.931 54.0239C123.997 51.3458 122.07 48.6633 120.131 45.9895C120.031 45.8547 119.97 45.733 119.97 45.6025C119.97 45.5069 120.003 45.4069 120.087 45.2982C122.081 42.5592 124.07 39.8202 126.059 37.0768C126.092 37.029 126.148 36.9898 126.304 36.8507C126.471 37.0724 126.588 37.2333 126.705 37.3942C128.56 39.9767 130.41 42.5592 132.276 45.133C132.404 45.3069 132.471 45.4634 132.471 45.6199C132.471 45.7634 132.409 45.9112 132.287 46.0808C130.376 48.6807 128.499 51.2936 126.61 53.9022C126.515 54.037 126.404 54.1587 126.259 54.337C126.131 54.2109 126.009 54.1283 125.931 54.0239ZM126.599 108.483C126.66 108.413 126.71 108.361 126.749 108.313C126.827 108.23 126.889 108.161 126.944 108.083L128.593 105.813C129.958 103.931 131.368 101.983 132.766 100.07C132.833 99.9786 132.883 99.883 132.922 99.783L132.928 99.7699L132.933 99.7569C132.95 99.6873 132.961 99.6178 132.961 99.5482C132.961 99.47 132.95 99.3917 132.928 99.3134L132.922 99.3047L132.916 99.2873C132.905 99.2482 132.877 99.196 132.855 99.1395C132.816 99.07 132.783 99.0091 132.733 98.9439C131.557 97.3222 130.387 95.7005 129.217 94.0789C128.482 93.0572 127.747 92.0355 127.006 91.0138C126.933 90.9094 126.844 90.8225 126.755 90.7268C126.716 90.6833 126.671 90.6399 126.627 90.5877L126.605 90.5616L126.699 90.4181C126.727 90.3833 126.755 90.3573 126.777 90.3312C126.855 90.2486 126.911 90.1834 126.972 90.1051L128.51 87.9791C129.897 86.0618 131.329 84.0836 132.749 82.1402L132.76 82.1272L132.772 82.1141C132.889 81.9228 132.944 81.7402 132.944 81.5576C132.944 81.3663 132.883 81.1794 132.76 80.9794L132.755 80.9663L132.749 80.9576C132.042 79.9838 131.34 79.0056 130.638 78.0317L130.064 77.2361L129.875 76.9708L129.618 76.6143C128.928 75.6579 128.242 74.7014 127.552 73.7449L127.034 73.0406C126.956 72.9362 126.872 72.8406 126.777 72.7449C126.738 72.7058 126.699 72.6623 126.655 72.6145L126.599 72.5536L126.644 72.5058C126.683 72.4623 126.716 72.4319 126.744 72.4015C126.8 72.3406 126.85 72.2884 126.894 72.2232L128.46 70.0668L130.003 67.9408L130.17 67.7408L130.877 66.7582C131.513 65.88 132.153 65.0018 132.788 64.1235C132.916 63.9496 132.978 63.7801 132.978 63.6018C132.978 63.354 132.85 63.1453 132.738 62.9931C131.618 61.441 130.499 59.8889 129.379 58.3325C128.593 57.2412 127.808 56.1499 127.017 55.0543C126.944 54.95 126.861 54.863 126.766 54.7587C126.733 54.7196 126.694 54.6804 126.655 54.637L126.922 54.2804L126.894 54.2804C126.95 54.2109 127 54.1457 127.05 54.0805C127.541 53.4066 128.025 52.7283 128.515 52.0544C129.891 50.1545 131.312 48.1894 132.721 46.2634C132.889 46.0329 132.972 45.8199 132.972 45.6069C132.972 45.3895 132.889 45.1721 132.71 44.9286C131.284 42.9679 129.847 40.9679 128.46 39.0332L127.145 37.1985C127.061 37.0768 126.972 36.9594 126.861 36.8116L126.677 36.5594C126.705 36.529 126.727 36.5029 126.749 36.4768C126.827 36.3942 126.889 36.3246 126.944 36.2464L128.588 33.9813C129.953 32.0944 131.362 30.1466 132.76 28.2337C132.9 28.0424 132.967 27.8641 132.967 27.6772C132.967 27.4206 132.838 27.2076 132.727 27.0511C131.557 25.4338 130.387 23.8121 129.223 22.1948C128.482 21.1731 127.741 20.147 127.006 19.121C126.933 19.0166 126.844 18.9297 126.755 18.834C126.722 18.7993 126.683 18.7601 126.649 18.721L126.9 18.3906L126.878 18.3906C126.911 18.3514 126.944 18.3123 126.978 18.2688L128.521 16.1385C129.919 14.2081 131.362 12.2126 132.794 10.2561C132.933 10.0648 133 9.88221 133 9.69961C133 9.4431 132.872 9.23007 132.755 9.0779C131.529 7.38666 130.309 5.69108 129.089 3.99549C128.404 3.04336 127.719 2.09122 127.034 1.14343C126.956 1.03909 126.872 0.943441 126.777 0.847792C126.738 0.808663 126.699 0.765187 126.655 0.717363L126.61 0.669539L126.755 0.439113L126.393 0.42607L126.237 0.256512L126.098 0.417375L125.997 0.413027L125.736 0.404332C125.529 0.395636 125.351 0.386941 125.173 0.391289C124.014 0.391289 122.85 0.399984 121.685 0.40868C119.106 0.42607 116.438 0.447808 113.814 0.452156C113.101 0.456504 112.644 0.665191 112.282 1.15213C110.895 3.00423 109.463 4.88241 108.081 6.69973C107.563 7.37797 107.051 8.0562 106.533 8.73444C106.466 8.81704 106.404 8.90399 106.338 8.99964L104.583 6.68234C103.134 4.76068 101.68 2.83902 100.232 0.913007C99.9032 0.478242 99.413 0.42607 99.0731 0.42607C97.1512 0.40868 95.2236 0.391289 93.3017 0.373899C91.2627 0.356508 89.2293 0.339117 87.1904 0.321727C87.0233 0.321727 86.8784 0.347813 86.7391 0.378246C86.7224 0.382594 86.7057 0.386942 86.6834 0.386942L86.4606 0.0869536L86.2099 0.382594C86.1765 0.373899 86.1542 0.369551 86.1319 0.365203C86.0595 0.347813 85.9759 0.326075 85.8645 0.326075L82.7726 0.347813C79.7421 0.365203 76.7171 0.386942 73.6865 0.399985C72.9901 0.404332 72.7116 0.769535 72.5779 0.947789C71.564 2.28687 70.5445 3.62594 69.5306 4.96502C68.539 6.26932 67.5473 7.57361 66.5557 8.88226C66.5279 8.91704 66.5056 8.95617 66.4833 8.99095C66.4666 8.96921 66.4499 8.94312 66.4332 8.92138L64.6505 6.56061C63.2577 4.7172 61.8149 2.80858 60.411 0.930399C60.0377 0.434766 59.5308 0.369551 59.0796 0.365204C56.6562 0.347813 54.2273 0.326075 51.8039 0.304337C50.3444 0.291294 48.8848 0.278251 47.4308 0.265208C47.2692 0.26086 47.1132 0.282598 46.9684 0.295641C46.9572 0.295641 46.9461 0.299989 46.935 0.299989L46.9628 0.230427L46.8291 0.230427L46.6564 1.02964e-06L46.4559 0.234774L46.2664 0.234774L38.6789 0.291294L33.4311 0.330423L33.1469 0.33477L33.0021 0.526067C31.03 3.11727 29.0802 5.68673 27.0969 8.30402L26.6568 8.8866L25.3588 7.16928C23.7544 5.04328 22.1555 2.92162 20.5567 0.795622C20.306 0.460853 19.9272 0.295642 19.4091 0.291294C17.3646 0.273904 15.32 0.256513 13.2755 0.239122C11.3368 0.221732 9.39814 0.204341 7.45947 0.191298C7.29791 0.191298 7.15306 0.226079 7.04164 0.252165C7.01379 0.260861 6.98593 0.265208 6.95808 0.273904L6.75195 0.0260874L6.46227 0.369552L6.31743 0.395638L6.36755 0.478243L6.32299 0.526068C6.26728 0.591282 6.21714 0.652149 6.167 0.704321C6.07787 0.804317 5.98873 0.904313 5.91631 1.00866L4.37875 3.13031C3.02502 4.9998 1.63229 6.93016 0.245133 8.82139C0.0780052 9.05181 1.10379e-07 9.25615 1.12867e-07 9.46484C1.15356e-07 9.67353 0.0779914 9.87352 0.239548 10.1039C1.68241 12.0908 3.14201 14.1168 4.54588 16.0733L5.84391 17.8819C5.91633 17.9819 5.98874 18.0819 6.07787 18.2036L6.25056 18.434L6.41213 18.6558L6.38428 18.7297L6.46784 18.7297L6.65169 18.9819L6.8578 18.7427L7.0305 18.7471C7.11407 18.7514 7.18649 18.7514 7.25891 18.7558C7.39261 18.7601 7.50961 18.7645 7.62659 18.7645L10.3452 18.7427C13.2755 18.721 16.3117 18.6993 19.2921 18.6862C19.5372 18.6862 19.7489 18.6558 19.9383 18.5906C19.9717 18.7862 20.0776 18.9514 20.1723 19.0775C21.721 21.2209 23.2642 23.3686 24.8129 25.5164L25.849 26.9598C25.9103 27.0467 25.9772 27.1337 26.0607 27.2467L26.2056 27.4424L26.3059 27.5772L26.1945 27.7772L26.4507 27.7772L26.6011 27.9815L26.6067 27.9728C26.6401 28.025 26.668 28.0728 26.707 28.125L27.9159 29.7249C29.498 31.8161 31.1359 33.9813 32.7347 36.116C33.1024 36.6072 33.6149 36.6768 34.0661 36.6768C36.6845 36.6942 39.3028 36.7159 41.9156 36.742C43.1579 36.7551 44.4002 36.7638 45.6425 36.7768C45.7874 36.7768 45.9322 36.7724 46.0938 36.7638C46.1606 36.7594 46.233 36.7551 46.311 36.7507L46.3556 36.8072L46.6898 37.2594C46.896 37.542 47.0854 37.7941 47.2748 38.0463L48.6619 39.8897C49.96 41.6114 51.2524 43.3331 52.5449 45.0591C52.7844 45.3808 53.1354 45.7112 53.8875 45.7156C56.4947 45.7286 59.1408 45.7547 61.7035 45.7764C63.0349 45.7895 64.3664 45.8025 65.6978 45.8112C65.8594 45.8112 66.0042 45.7895 66.1323 45.7634C66.1769 45.7547 66.2215 45.746 66.266 45.7417L66.2716 45.7504L66.2549 45.8199L66.3162 45.8199C66.3607 45.8895 66.4053 45.9547 66.4387 46.0156C66.5167 46.1373 66.578 46.2416 66.656 46.346C67.1964 47.0633 67.7423 47.7851 68.2883 48.5024C69.6587 50.3154 71.0793 52.1936 72.4553 54.0457C72.8119 54.5196 73.2742 54.7239 74.0096 54.7239C76.7282 54.7369 79.4969 54.763 82.1766 54.7891C83.2462 54.7978 84.3102 54.8109 85.3798 54.8196C85.5135 54.8196 85.6417 54.8152 85.7921 54.8065C85.7308 54.8761 85.6807 54.9413 85.6305 55.0109C85.1069 55.7326 84.5832 56.4586 84.0595 57.1803C82.7058 59.0498 81.3075 60.9845 79.9203 62.8801C79.7588 63.0975 79.6808 63.3018 79.6808 63.5062C79.6808 63.7192 79.7588 63.9279 79.937 64.1627C80.8005 65.3496 81.6585 66.5408 82.5164 67.7321L82.6612 67.9321L82.7002 67.9321L84.3325 70.1929L85.5637 71.9015C85.6361 72.0015 85.7085 72.1015 85.8032 72.2319L85.8478 72.2884L85.8645 72.3102L85.8868 72.3319C85.9091 72.358 85.9369 72.3797 85.9592 72.4058L85.9425 72.4102L85.9926 72.4797L85.7754 72.771L86.2043 72.7667L86.2823 72.8754L86.6556 73.384L88.065 75.2448C89.4856 77.123 90.9507 79.0621 92.3825 80.975C92.7334 81.4489 93.2125 81.662 93.92 81.6663C96.5829 81.6794 99.2848 81.7011 101.898 81.7272C103.028 81.7359 104.159 81.7489 105.285 81.7576C105.43 81.7576 105.58 81.7533 105.747 81.7489C105.742 81.7576 105.736 81.7663 105.73 81.775L104.427 83.5706C102.873 85.714 101.318 87.8574 99.7584 89.9964C99.7138 90.0573 99.6915 90.1051 99.6804 90.1399L99.6692 90.1573L99.6525 90.1964C99.6191 90.2964 99.6024 90.3921 99.6024 90.4877C99.6024 90.5573 99.6135 90.6225 99.6247 90.692L99.6302 90.7138L99.6414 90.7355C99.6804 90.8355 99.7361 90.9312 99.7974 91.0225C100.906 92.5528 102.009 94.0832 103.112 95.6136C103.942 96.7614 104.767 97.9135 105.597 99.0613C105.675 99.17 105.775 99.2526 105.864 99.3308C105.898 99.3613 105.937 99.3917 105.976 99.4308L105.987 99.4439L105.775 99.7612L106.321 99.7569L106.41 99.8395L106.482 99.7525L106.611 99.7525L119.251 99.6612L119.335 99.6612L119.413 99.6395C119.446 99.6308 119.474 99.6221 119.502 99.6134C119.502 99.6308 119.507 99.6525 119.507 99.6699L119.513 99.6917L119.518 99.7134C119.563 99.8438 119.624 99.9699 119.719 100.1C121.14 102.061 122.555 104.026 123.964 105.991L125.357 107.93C125.468 108.083 125.58 108.23 125.747 108.461L126.148 109L126.599 108.483ZM125.936 72.4058C125.68 72.4145 125.496 72.4319 125.312 72.4276C121.451 72.3928 117.591 72.3536 113.73 72.3276C113.329 72.3232 113.051 72.258 112.828 71.9623C111.725 70.4885 110.611 69.0146 109.496 67.5408L109.457 67.5408C108.599 66.4017 107.736 65.267 106.878 64.1279C106.783 64.0018 106.711 63.867 106.594 63.6801C106.872 63.667 107.084 63.6453 107.296 63.6453C111.106 63.6801 114.922 63.7235 118.733 63.7366C119.268 63.7366 119.569 63.8801 119.836 64.2366C120.672 65.3583 121.518 66.48 122.365 67.5973L122.36 67.5973C123.524 69.1364 124.683 70.6798 125.847 72.2189C125.88 72.2623 125.897 72.3102 125.936 72.4058ZM126.582 55.2543C128.493 57.8977 130.393 60.5498 132.304 63.1931C132.409 63.341 132.476 63.4714 132.476 63.6062C132.476 63.7062 132.437 63.8149 132.354 63.9322C131.479 65.1322 130.605 66.3365 129.735 67.5408L129.708 67.5408C128.621 69.0364 127.535 70.5363 126.449 72.0319C126.404 72.0971 126.337 72.158 126.231 72.2754C126.098 72.1406 125.964 72.045 125.88 71.9232C124.827 70.4624 123.775 69.0016 122.722 67.5408L122.683 67.5408C121.864 66.4061 121.05 65.2757 120.226 64.1453C120.075 63.9453 120.003 63.767 120.003 63.5888C120.003 63.4149 120.075 63.241 120.22 63.041C122.098 60.4932 123.936 57.9281 125.791 55.3717C125.908 55.2108 126.042 55.0543 126.215 54.8369C126.371 55.0152 126.493 55.1282 126.582 55.2543ZM119.44 63.3714C115.19 63.4018 110.939 63.4323 106.677 63.4627C106.833 62.9627 111.875 56.2152 113.145 54.7804C117.351 54.75 121.607 54.7196 126.036 54.6891C123.78 57.6542 121.624 60.4932 119.44 63.3714ZM118.833 45.7851C119.234 45.7895 119.513 45.8503 119.736 46.1503C121.724 48.8067 123.73 51.4501 125.73 54.0978C125.802 54.1935 125.858 54.2978 125.953 54.45C125.713 54.4717 125.529 54.5065 125.351 54.5022C121.463 54.4717 117.574 54.4326 113.686 54.4022C113.285 54.3978 113 54.3413 112.778 54.0413C110.778 51.3719 108.755 48.7111 106.744 46.046C106.683 45.9677 106.65 45.8764 106.56 45.7112C106.856 45.7025 107.045 45.6851 107.24 45.6895C111.112 45.7199 114.973 45.759 118.833 45.7851ZM73.9985 54.3326C73.4748 54.3326 73.1517 54.2196 72.8787 53.85C70.9623 51.2762 69.0125 48.7155 67.0794 46.146C66.9735 46.0025 66.8844 45.8503 66.7451 45.633C67.0627 45.6199 67.3022 45.6025 67.5362 45.6069C71.3244 45.6417 75.1182 45.6808 78.9064 45.7025C79.4301 45.7069 79.7476 45.8243 80.0206 46.1895C81.9314 48.7459 83.8701 51.2893 85.7977 53.837C85.9146 53.9935 86.0316 54.1544 86.2099 54.3978C85.8422 54.4109 85.6027 54.4283 85.3687 54.4283C81.5805 54.3935 77.7923 54.35 73.9985 54.3326ZM86.7057 54.4326C86.7558 54.3065 86.767 54.1935 86.8338 54.1065C88.8617 51.4284 90.895 48.7546 92.9229 46.0764C93.09 45.859 93.2682 45.746 93.6192 45.7417C97.6526 45.7243 101.686 45.6938 105.725 45.6677C105.797 45.6677 105.87 45.6851 106.053 45.7069C105.92 45.9112 105.831 46.0634 105.719 46.2112C103.764 48.7894 101.797 51.3632 99.8531 53.9457C99.6302 54.2413 99.3963 54.3761 98.9339 54.3761C95.0454 54.3891 91.1569 54.4239 87.2739 54.45C87.1068 54.45 86.9397 54.437 86.7057 54.4326ZM100.221 54.1761C102.176 51.511 104.098 48.8328 106.037 46.159C106.104 46.0634 106.198 45.9764 106.36 45.7938C106.521 46.0112 106.622 46.146 106.716 46.2764C108.605 48.9024 110.494 51.5327 112.393 54.1587C112.505 54.3109 112.571 54.4457 112.571 54.5848C112.571 54.6978 112.527 54.8152 112.432 54.95C110.482 57.6151 108.555 60.2933 106.616 62.9671C106.544 63.0627 106.455 63.1497 106.326 63.2931C106.176 63.1192 106.042 62.9888 105.942 62.8497C104.048 60.2193 102.165 57.589 100.265 54.9674C100.154 54.8152 100.087 54.6761 100.087 54.537C100.081 54.4239 100.12 54.3065 100.221 54.1761ZM87.3185 54.637C91.1792 54.6717 95.0398 54.7109 98.9004 54.737C99.3015 54.7413 99.5801 54.8022 99.8029 55.1022C101.797 57.7716 103.82 60.4324 105.825 63.0975C105.886 63.1801 105.931 63.267 106.031 63.4366C105.736 63.4496 105.547 63.4627 105.357 63.4583C101.496 63.4236 97.6358 63.3844 93.7752 63.3583C93.3741 63.354 93.1011 63.2888 92.8783 62.9888C90.8895 60.3367 88.8839 57.6934 86.884 55.05C86.8116 54.95 86.7503 54.8456 86.6444 54.6804C86.9063 54.663 87.1124 54.637 87.3185 54.637ZM86.2656 72.0971C86.1486 71.9406 86.0651 71.8276 85.9815 71.7145C84.9787 70.3233 83.976 68.932 82.9788 67.5451L82.9398 67.5451C82.0818 66.3539 81.2184 65.1626 80.3549 63.9757C80.2323 63.8062 80.1655 63.6627 80.1655 63.5105C80.1655 63.3757 80.2212 63.2366 80.3382 63.0801C82.2545 60.4628 84.1487 57.8325 86.0539 55.2065C86.1486 55.0761 86.26 54.9543 86.455 54.7283C86.6444 54.9891 86.767 55.15 86.8895 55.3108C88.7335 57.876 90.5664 60.4411 92.427 62.9975C92.5607 63.1844 92.6387 63.3497 92.6387 63.5149C92.6387 63.6627 92.5775 63.8192 92.4493 63.9931C91.5803 65.1713 90.7223 66.3582 89.8644 67.5408L89.8477 67.5408C88.8115 68.9712 87.7753 70.4015 86.7391 71.8319C86.6611 71.9406 86.5553 72.0406 86.3937 72.2276C86.3436 72.1797 86.3046 72.1363 86.2656 72.0971ZM90.2711 67.5973L90.2432 67.5973C91.2237 66.3061 92.1986 65.0235 93.1847 63.7279C97.4297 63.6975 101.68 63.667 105.937 63.6366C105.892 63.8453 104.616 65.6278 103.196 67.5408L103.14 67.5408C102.015 69.0233 100.9 70.4929 99.7751 71.9711C99.6692 72.0971 99.5801 72.2015 99.5077 72.2841C95.2849 72.3145 91.0566 72.3449 86.65 72.3754C87.87 70.7537 89.0789 69.1712 90.2711 67.5973ZM100.204 72.1797C101.313 70.6537 102.421 69.1277 103.524 67.6017L103.502 67.6017C104.36 66.4147 105.223 65.2322 106.087 64.0453C106.131 63.9801 106.204 63.9322 106.343 63.7931C106.516 64.0322 106.638 64.1931 106.761 64.3627C107.541 65.4409 108.315 66.5234 109.095 67.6017L109.09 67.6017C110.159 69.0886 111.234 70.5711 112.315 72.0537C112.371 72.1319 112.41 72.2058 112.443 72.2754C112.46 72.3145 112.477 72.358 112.488 72.3971C112.493 72.4145 112.493 72.4275 112.499 72.4449C112.505 72.4841 112.51 72.5189 112.51 72.558C112.51 72.6319 112.499 72.7058 112.471 72.7797C112.438 72.8623 112.382 72.9493 112.315 73.0449C110.427 75.61 108.577 78.1882 106.711 80.7576C106.605 80.9055 106.482 81.0446 106.315 81.2446C106.182 81.1011 106.081 81.0055 106.003 80.9011C104.076 78.223 102.154 75.5405 100.215 72.871C100.12 72.7449 100.081 72.6319 100.076 72.5189C100.076 72.4058 100.115 72.2971 100.204 72.1797ZM105.274 81.375C101.485 81.3446 97.6916 81.3011 93.9033 81.2837C93.3685 81.2794 93.0621 81.1446 92.7947 80.7881C90.9006 78.2491 88.9842 75.7274 87.0734 73.1971C86.9508 73.0319 86.8283 72.8623 86.6946 72.6884C86.8896 72.6536 87.0344 72.6145 87.1792 72.6189C91.1402 72.6493 95.1011 72.6884 99.062 72.7188C99.1121 72.7188 99.1623 72.7232 99.2068 72.7275C99.4854 72.7797 99.6915 72.9101 99.8698 73.1232C101.886 75.8057 103.914 78.4795 105.937 81.1576C105.964 81.1968 105.981 81.2446 106.026 81.3446C105.998 81.3489 105.97 81.3576 105.942 81.362C105.691 81.3663 105.48 81.3794 105.274 81.375ZM106.588 81.3663C106.594 81.3576 106.599 81.3533 106.605 81.3446C106.755 81.1315 106.861 80.9794 106.973 80.8316C108.889 78.3056 110.822 75.7796 112.722 73.2449C112.989 72.8884 113.279 72.7449 113.819 72.7406C117.608 72.7362 121.396 72.6971 125.184 72.671C125.401 72.6667 125.63 72.6841 125.914 72.6927C125.892 72.7536 125.869 72.8101 125.847 72.8623C125.797 72.9449 125.752 73.0232 125.702 73.0927C123.724 75.7057 121.736 78.3099 119.758 80.9229C119.574 81.1707 119.39 81.3272 118.967 81.3272C115.006 81.3402 111.045 81.375 107.084 81.4011C106.95 81.4011 106.811 81.3837 106.588 81.3663ZM120.009 81.5446C120.009 81.4837 120.025 81.4228 120.042 81.362C120.064 81.3055 120.092 81.2489 120.137 81.1837C122.087 78.5143 124.014 75.8405 125.953 73.1666C126.02 73.071 126.114 72.984 126.242 72.8362C126.387 72.9971 126.504 73.1058 126.593 73.2319C127.451 74.4231 128.315 75.6144 129.173 76.81C129.323 77.0187 129.474 77.223 129.618 77.4317C130.515 78.6751 131.407 79.9142 132.304 81.1576C132.393 81.3011 132.437 81.4315 132.437 81.562C132.437 81.688 132.398 81.8141 132.315 81.9533C130.376 84.601 128.46 87.2574 126.532 89.9138C126.46 90.0095 126.371 90.0964 126.209 90.279C126.048 90.0616 125.947 89.9312 125.858 89.7964C123.964 87.1704 122.081 84.5401 120.181 81.9141C120.087 81.7837 120.025 81.6663 120.009 81.5446ZM106.611 81.6794C106.872 81.6663 107.079 81.6446 107.285 81.6489C111.095 81.6794 114.906 81.7272 118.722 81.7402C119.257 81.7446 119.557 81.8793 119.825 82.2359C119.981 82.4402 120.131 82.6445 120.287 82.8532C122.059 85.2183 123.841 87.5748 125.624 89.9355C125.719 90.0616 125.802 90.2008 125.914 90.3747C125.914 90.3747 125.914 90.3747 125.914 90.379C125.646 90.392 125.44 90.4138 125.24 90.4094C121.401 90.3747 117.569 90.3355 113.73 90.3138C113.296 90.3094 113.012 90.2268 112.778 89.9138C110.817 87.2965 108.833 84.6879 106.856 82.075C106.778 81.9576 106.705 81.8315 106.611 81.6794ZM106.02 98.8743C104.087 96.1962 102.159 93.5137 100.221 90.8355C100.171 90.7616 100.132 90.692 100.104 90.6268C100.093 90.5833 100.087 90.5399 100.087 90.4964C100.087 90.4355 100.098 90.3703 100.12 90.3051C100.137 90.2703 100.148 90.2355 100.176 90.2008C102.176 87.4617 104.159 84.7227 106.148 81.9793C106.187 81.9315 106.243 81.8924 106.393 81.7533C106.555 81.975 106.677 82.1359 106.794 82.2967C108.65 84.8792 110.499 87.4617 112.365 90.0355C112.427 90.1182 112.471 90.1964 112.505 90.2747C112.51 90.2877 112.51 90.3007 112.516 90.3138C112.538 90.3703 112.549 90.4225 112.555 90.4747C112.549 90.6138 112.499 90.7573 112.376 90.9225C110.466 93.5224 108.588 96.1353 106.694 98.7439C106.599 98.8743 106.488 99.0004 106.343 99.1787C106.221 99.0613 106.098 98.9787 106.02 98.8743ZM106.95 98.8439C108.878 96.3005 110.822 93.7615 112.733 91.2094C113.006 90.8442 113.307 90.7268 113.836 90.7225C117.596 90.7138 121.362 90.679 125.128 90.6529C125.357 90.6529 125.596 90.6616 125.964 90.6659C125.925 90.7268 125.892 90.7746 125.858 90.8225C123.73 93.6224 121.669 96.3396 119.574 99.1004C119.479 99.183 119.368 99.2352 119.24 99.2743C115.078 99.3047 110.895 99.3352 106.599 99.3656C106.744 99.1439 106.839 98.9874 106.95 98.8439ZM125.797 107.735C123.919 105.122 122.042 102.509 120.159 99.9004C120.087 99.8004 120.042 99.7047 120.009 99.6134C120.003 99.5786 119.997 99.5439 119.997 99.5091C119.997 99.4482 120.009 99.3873 120.025 99.3265C120.048 99.2743 120.07 99.2265 120.109 99.17C122.059 96.5049 123.986 93.8267 125.925 91.1529C125.997 91.0572 126.081 90.9659 126.215 90.8225C126.354 90.979 126.476 91.0877 126.566 91.2138C128.471 93.8571 130.376 96.5005 132.287 99.1439C132.326 99.196 132.354 99.2439 132.376 99.2917C132.393 99.3265 132.409 99.3656 132.421 99.4004C132.421 99.4047 132.421 99.4047 132.426 99.4091C132.443 99.4569 132.448 99.5047 132.448 99.5526C132.448 99.5917 132.443 99.6352 132.432 99.6786C132.409 99.7395 132.376 99.8047 132.326 99.8786C130.376 102.544 128.449 105.222 126.51 107.896C126.437 107.991 126.348 108.078 126.187 108.265C126.014 108.035 125.903 107.887 125.797 107.735Z" fill="#704EE7" fill-opacity="0.35"/>
</svg>
