<svg width="206" height="210" viewBox="0 0 206 210" fill="none" xmlns="http://www.w3.org/2000/svg">
<path d="M112.588 52.01L113.22 53.1368L114.152 52.2434L154.4 13.6818L144.184 68.8886L143.951 70.1481L145.229 70.0686L200.873 66.6058L157.63 102.204L156.642 103.017L157.671 103.779L202.652 137.104L146.764 136.435L145.473 136.42L145.781 137.673L159.104 191.973L116.768 155.46L115.792 154.619L115.219 155.773L90.3343 205.868L81.278 150.68L81.07 149.411L79.8915 149.925L28.918 172.148L57.1816 124.047L57.826 122.95L56.6083 122.583L3.23174 106.475L55.8803 88.0917L57.0892 87.6695L56.3861 86.5989L25.5665 39.6698L77.6168 59.6132L78.8228 60.0753L78.9683 58.7917L85.2481 3.19839L112.588 52.01Z" stroke="#FCD061" stroke-width="2"/>
</svg>
